<?xml version="1.0" encoding="UTF-8" standalone="no"?>
<svg
   version="1.0"
   width="482.02866pt"
   height="101.935pt"
   viewBox="0 0 482.02866 101.935"
   preserveAspectRatio="xMidYMid meet"
   id="svg73"
   sodipodi:docname="logo_blanco2.svg"
   inkscape:version="1.1.1 (3bf5ae0d25, 2021-09-20)"
   xmlns:inkscape="http://www.inkscape.org/namespaces/inkscape"
   xmlns:sodipodi="http://sodipodi.sourceforge.net/DTD/sodipodi-0.dtd"
   xmlns="http://www.w3.org/2000/svg"
   xmlns:svg="http://www.w3.org/2000/svg">
  <defs
     id="defs77" />
  <sodipodi:namedview
     id="namedview75"
     pagecolor="#ffffff"
     bordercolor="#666666"
     borderopacity="1.0"
     inkscape:pageshadow="2"
     inkscape:pageopacity="0.0"
     inkscape:pagecheckerboard="0"
     inkscape:document-units="pt"
     showgrid="false"
     inkscape:zoom="1.8588777"
     inkscape:cx="274.09011"
     inkscape:cy="100.32935"
     inkscape:window-width="1920"
     inkscape:window-height="1009"
     inkscape:window-x="-8"
     inkscape:window-y="-8"
     inkscape:window-maximized="1"
     inkscape:current-layer="svg73"
     fit-margin-top="0"
     fit-margin-left="0"
     fit-margin-right="0"
     fit-margin-bottom="0" />
  <path
     id="path49"
     style="fill:#ffffff;stroke:none;stroke-width:0.0999997"
     d="M 50.44175,0.00519672 C 44.97925,0.06769647 39.528468,0.69211077 35.828469,1.8421108 5.8284686,11.442111 -8.6714338,45.942111 5.4285664,73.842112 c 1.9999995,3.800002 3.4009762,5.200972 6.5009766,6.500977 6.299999,2.499998 11.399121,2.899215 18.599121,1.699215 10.4,-1.8 16.900488,-5.499315 26.500488,-14.799314 8.1,-7.900001 9.400488,-8.80088 13.000488,-8.400879 2.500002,0.3 5.999997,5.000195 5.999997,8.200195 0,9.299998 -11.599899,19.900491 -27.399899,25.000491 -5.7,1.8 -8.401172,2.09922 -16.201172,1.699215 -5.2,-0.3 -9.399902,-0.399218 -9.399902,-0.199215 0,0.199995 2.200976,1.50039 5.000976,2.900385 28.300001,14.299998 62.89961,-0.4998 72.09961,-30.799802 1.7,-5.5 1.99922,-8.700976 1.69922,-17.000977 -0.6,-13.399999 -3.499218,-21.100293 -9.199218,-24.300292 -8.300002,-4.7 -20.000197,-3.899414 -32.200198,2.100586 -5.499999,2.7 -8.899609,5.3 -15.099609,12 -8.2,8.7 -10.800879,9.999707 -14.400879,7.199706 -11.4,-8.799999 4.500684,-28.799706 27.200684,-34.199706 7.9,-1.8000003 12.50039,-1.89961 20.900387,-0.09961 l 6.399908,1.299315 -2.900393,-2.399413 C 78.42915,6.94299 71.529738,3.4432827 65.129738,1.5432826 61.379738,0.44328267 55.90425,-0.05730326 50.44175,0.00519672 Z M 282.02915,15.043282 c -5.6,0.100001 -17.00059,2.498829 -23.10058,4.798829 -33.1,12.6 -45.19962,50.800684 -21.09961,66.200686 8.8,5.599995 16.8997,7.399312 32.69971,7.299315 12.9,0 21.0998,-0.99951 30.7998,-3.499515 3.7,-0.999998 3.7002,-0.999218 3.7002,-6.199215 0,-2.900003 -0.29913,-6.800783 -0.59913,-8.800785 l -0.60058,-3.600584 -7.19971,2.000976 c -10,2.799998 -32.00039,2.999903 -38.90039,0.3999 -5,-1.999997 -7.69922,-5.499704 -7.69922,-10.199704 v -2.500488 h 33.29883 33.40137 l 1.1997,-2.600098 c 0.6,-1.4 1.59981,-5.599219 2.2998,-9.199219 0.9,-5.7 0.79942,-7.600976 -0.60058,-12.500977 -3.2,-11.1 -13.19961,-18.699706 -27.09961,-20.699706 -3.8,-0.500001 -8.6,-0.899415 -10.5,-0.899415 z m 163.99952,0.09961 c -11.20001,0.3 -27.19962,3.399902 -33.09962,6.399902 l -2.69971,1.299317 1.69923,7.5 c 0.9,4.099999 1.80019,7.700977 2.20019,8.000977 0.3,0.3 3.90097,-0.700587 8.00098,-2.100587 6.5,-2.4 8.89922,-2.699316 19.69922,-2.799316 11.1,0 12.50029,0.199902 13.80029,1.899903 3.1,4.299999 1.9997,5.399999 -6.30029,6 -25.30001,1.999999 -39.69981,6.399706 -48.79981,14.699706 -5.9,5.4 -8.50009,10.499219 -8.6001,16.699219 -0.19999,8.000001 4.29962,14.101364 13.59962,18.401369 4.2,1.899997 6.70048,2.19873 16.00048,2.19873 9.2,0 12.19991,-0.400095 18.3999,-2.6001 7.2,-2.499998 7.40069,-2.49873 9.20069,-0.69873 1.59999,1.599997 3.49883,1.8999 12.29883,1.8999 h 10.30077 l 0.59913,-6.200678 c 0.3,-3.500002 2.60058,-14.199319 5.10058,-23.799319 2.50001,-9.6 4.59962,-19.8 4.59962,-22.5 -0.10001,-12.7 -9.19962,-21.100488 -25.59962,-23.500488 -3.79999,-0.500001 -8.50039,-0.899805 -10.40038,-0.799805 z m -78.39844,0.191894 c -1.95157,-0.02968 -3.57608,0.03301 -4.60108,0.208008 -18.1,3 -28.5,8.499414 -33,17.399415 -6,11.7 1.19951,22.500488 18.49952,28.000488 10.8,3.399999 14.50048,5.199414 14.50048,6.899414 0,2.2 -3.6,5.600101 -7.5,7.100101 -5,1.899997 -18.40009,1.40097 -25.1001,-0.99903 -3.19999,-1.099997 -6.49931,-2.199802 -7.29931,-2.299802 -0.80001,-0.1 -3.80127,3.098634 -6.80127,7.098632 l -5.39942,7.300785 5.6001,2.500485 c 14.8,6.800002 39.9998,6.89961 54.79981,0.09961 13.09999,-6 20.1997,-17.80029 16.19971,-27.30029 -3.10001,-7.5 -7.69923,-10.699414 -22.69923,-15.899414 -5.6,-2 -10.70058,-4.000391 -11.10058,-4.400391 -1.6,-1.599999 1.1998,-4.799511 5.29981,-6.499512 5.59999,-2.199999 15.3999,-2.000487 22.8999,0.499512 3.5,1.100001 6.40097,1.899219 6.50097,1.699219 0.2,-0.2 2.59902,-3.399316 5.49903,-7.299316 l 5.20019,-6.899415 -3.49951,-1.800292 c -1.9,-1.000001 -6,-2.400684 -9,-3.200684 -4.35,-1.2 -13.14433,-2.118457 -18.99902,-2.20752 z m -200.20166,0.180177 c -7.92481,-0.189454 -16.04932,0.803222 -22.29932,2.928222 -14.7,5 -23.79961,16.399414 -21.09961,26.399414 1.9,7.2 8.70019,12.199512 23.2002,16.999512 5.29999,1.8 10.19883,3.900683 10.79883,4.700683 1.8,2.000001 -1.19932,6.200586 -5.79933,8.100588 -5.49999,2.299995 -18.40068,1.99941 -25.70067,-0.600585 -3.3,-1.200003 -6.70001,-2.39971 -7.5,-2.699709 -1.00001,-0.300001 -3.29942,2.099709 -6.89942,7.199709 -2.9,4.099995 -5.0999,7.699897 -4.89991,7.8999 0.20001,0.3 3.40011,1.600387 7.1001,2.900392 10.10001,3.9 22.59922,5.199803 34.69923,3.7998 21.99999,-2.599995 35.00097,-12.60039 35.00097,-26.900388 0,-9.4 -6.20078,-15.099414 -22.30078,-20.399413 -11.3,-3.700001 -13.2999,-4.900782 -12.3999,-7.300782 1.99999,-5.3 18.10087,-7.299121 27.90088,-3.599121 2.89999,1.1 5.59999,1.999512 6,1.999512 0.9,0 10.79883,-13.000196 10.79883,-14.200196 0,-1.099999 -7.09903,-4.100098 -12.99903,-5.600098 -4.1625,-0.975 -8.84619,-1.513769 -13.60107,-1.62744 z m 53.6001,1.428222 c -8.60001,0 -10.99952,0.299316 -10.99952,1.299316 0,3.2 -5.99941,9.600684 -11.39941,12.200684 -3.1,1.5 -5.6001,3.199414 -5.6001,3.899414 0,0.6 -0.30059,2.100293 -0.60059,3.300293 -0.6,2.1 -0.29951,2.299805 4.00049,2.299805 2.5,0 4.59961,0.199512 4.59961,0.499512 0,0.199999 -3.10048,11.7 -7.00048,25.5 -3.80001,13.800003 -6.99903,25.3 -6.99903,25.500003 0,0.3 5.5999,0.50097 12.3999,0.50097 11,0 12.49902,-0.200288 12.99903,-1.800293 0.99999,-3.199995 19.60107,-72.399802 19.60107,-72.799801 0,-0.200001 -4.90098,-0.399903 -11.00097,-0.399903 z m 60.06444,15.490722 c 6.72692,-0.03643 13.11456,1.917676 14.33643,5.008302 0.3,0.9 0.59913,2.800097 0.59913,4.100097 v 2.400879 h -19.69923 -19.5996 l 1.8999,-2.100586 c 3,-3.4 8.9997,-6.799414 14.6997,-8.399414 2.44688,-0.675 5.13141,-0.995022 7.76367,-1.009278 z m 171.83643,25.50879 -1.60107,4.5 c -2.4,7.2 -8.7999,11.599612 -19.8999,13.599607 -3.7,0.700005 -6.59991,0.700395 -9.3999,-0.09961 -3.50001,-0.9 -3.99903,-1.40049 -3.99903,-4.000488 0,-6 8.19951,-10.899414 21.49951,-12.899415 3.3,-0.5 7.7002,-0.900488 9.70019,-1.000488 z"
     sodipodi:nodetypes="sccccccsccsccccccccccccscccccsccccsccccccccccccccccccccscssccscccscccsccsccccccscccccccsscccccccccccscccsscssscscsscsssssscscccccsccccsccc" />
</svg>
