<svg xmlns="http://www.w3.org/2000/svg" width="426.998" height="398.005" viewBox="0 0 426.998 398.005">
  <g id="Group_2638" data-name="Group 2638" transform="translate(18875 1576.005)" opacity="0.5">
    <path id="Union_1" data-name="Union 1" d="M16.385,36.808V24.457H4.035a4.035,4.035,0,0,1,0-8.07H16.385V4.036a4.035,4.035,0,1,1,8.07,0V16.386H36.806a4.035,4.035,0,1,1,0,8.07H24.456V36.808a4.035,4.035,0,0,1-8.07,0Z" transform="translate(-18774.404 -1547.535) rotate(-16)" fill="#909090" opacity="0.5"/>
    <path id="Union_2" data-name="Union 2" d="M16.385,36.808V24.458H4.035a4.036,4.036,0,0,1,0-8.071H16.385V4.036a4.035,4.035,0,1,1,8.07,0V16.386H36.806a4.036,4.036,0,0,1,0,8.071H24.456V36.808a4.035,4.035,0,0,1-8.07,0Z" transform="translate(-18632.051 -1576.005) rotate(28)" fill="#909090" opacity="0.5"/>
    <path id="Union_4" data-name="Union 4" d="M16.385,36.808V24.458H4.035a4.036,4.036,0,0,1,0-8.071H16.385V4.036a4.035,4.035,0,1,1,8.07,0V16.386H36.806a4.036,4.036,0,0,1,0,8.071H24.456V36.808a4.035,4.035,0,0,1-8.07,0Z" transform="translate(-18555.348 -1278.321) rotate(9)" fill="#909090" opacity="0.5"/>
    <path id="Union_6" data-name="Union 6" d="M16.385,36.808V24.458H4.035a4.036,4.036,0,0,1,0-8.071H16.385V4.036a4.035,4.035,0,1,1,8.07,0V16.386H36.806a4.036,4.036,0,0,1,0,8.071H24.456V36.808a4.035,4.035,0,0,1-8.07,0Z" transform="translate(-18847.463 -1282.31) rotate(-18)" fill="#909090" opacity="0.5"/>
    <path id="Union_3" data-name="Union 3" d="M10.427,23.423v-7.86H2.568a2.568,2.568,0,0,1,0-5.136h7.859V2.568a2.568,2.568,0,0,1,5.136,0v7.86h7.859a2.568,2.568,0,0,1,0,5.136H15.563v7.86a2.568,2.568,0,0,1-5.136,0Z" transform="translate(-18473.324 -1431.001) rotate(13)" fill="#909090" opacity="0.5"/>
    <path id="Union_7" data-name="Union 7" d="M10.427,23.423v-7.86H2.568a2.568,2.568,0,0,1,0-5.136h7.859V2.568a2.568,2.568,0,0,1,5.136,0v7.86h7.859a2.568,2.568,0,0,1,0,5.136H15.563v7.86a2.568,2.568,0,0,1-5.136,0Z" transform="translate(-18809.58 -1469.026) rotate(-15)" fill="#909090" opacity="0.5"/>
    <path id="Union_5" data-name="Union 5" d="M10.427,23.423v-7.86H2.568a2.568,2.568,0,0,1,0-5.136h7.859V2.568a2.568,2.568,0,0,1,5.136,0v7.86h7.859a2.568,2.568,0,0,1,0,5.136H15.563v7.86a2.568,2.568,0,0,1-5.136,0Z" transform="translate(-18690.037 -1227.109) rotate(-11)" fill="#909090" opacity="0.5"/>
    <path id="Exclusion_1" data-name="Exclusion 1" d="M14,28a14.1,14.1,0,0,1-2.822-.284,13.921,13.921,0,0,1-5.006-2.106A14.039,14.039,0,0,1,1.1,19.449a13.926,13.926,0,0,1-.816-2.628,14.135,14.135,0,0,1,0-5.643A13.924,13.924,0,0,1,2.391,6.172,14.041,14.041,0,0,1,8.551,1.1,13.9,13.9,0,0,1,11.179.284a14.134,14.134,0,0,1,5.643,0,13.921,13.921,0,0,1,5.006,2.106A14.04,14.04,0,0,1,26.9,8.551a13.932,13.932,0,0,1,.816,2.628,14.137,14.137,0,0,1,0,5.643,13.925,13.925,0,0,1-2.107,5.006A14.041,14.041,0,0,1,19.45,26.9a13.914,13.914,0,0,1-2.628.816A14.1,14.1,0,0,1,14,28ZM14,4.359A9.6,9.6,0,0,0,8.61,6.006a9.669,9.669,0,0,0-3.493,4.242,9.628,9.628,0,0,0,.889,9.143,9.667,9.667,0,0,0,4.241,3.493,9.628,9.628,0,0,0,9.143-.889,9.671,9.671,0,0,0,3.493-4.241,9.628,9.628,0,0,0-.889-9.143,9.668,9.668,0,0,0-4.242-3.493A9.582,9.582,0,0,0,14,4.359Z" transform="translate(-18544 -1516)" fill="#909090" opacity="0.5"/>
    <path id="Exclusion_6" data-name="Exclusion 6" d="M14,28a14.1,14.1,0,0,1-2.822-.284,13.921,13.921,0,0,1-5.006-2.106A14.039,14.039,0,0,1,1.1,19.449a13.926,13.926,0,0,1-.816-2.628,14.135,14.135,0,0,1,0-5.643A13.924,13.924,0,0,1,2.391,6.172,14.041,14.041,0,0,1,8.551,1.1,13.9,13.9,0,0,1,11.179.284a14.134,14.134,0,0,1,5.643,0,13.921,13.921,0,0,1,5.006,2.106A14.04,14.04,0,0,1,26.9,8.551a13.932,13.932,0,0,1,.816,2.628,14.137,14.137,0,0,1,0,5.643,13.925,13.925,0,0,1-2.107,5.006A14.041,14.041,0,0,1,19.45,26.9a13.914,13.914,0,0,1-2.628.816A14.1,14.1,0,0,1,14,28ZM14,4.359A9.6,9.6,0,0,0,8.61,6.006a9.669,9.669,0,0,0-3.493,4.242,9.628,9.628,0,0,0,.889,9.143,9.667,9.667,0,0,0,4.241,3.493,9.628,9.628,0,0,0,9.143-.889,9.671,9.671,0,0,0,3.493-4.241,9.628,9.628,0,0,0-.889-9.143,9.668,9.668,0,0,0-4.242-3.493A9.582,9.582,0,0,0,14,4.359Z" transform="translate(-18875 -1416)" fill="#909090" opacity="0.5"/>
    <path id="Exclusion_4" data-name="Exclusion 4" d="M14,28a14.1,14.1,0,0,1-2.822-.284,13.921,13.921,0,0,1-5.006-2.106A14.039,14.039,0,0,1,1.1,19.449a13.926,13.926,0,0,1-.816-2.628,14.135,14.135,0,0,1,0-5.643A13.924,13.924,0,0,1,2.391,6.172,14.041,14.041,0,0,1,8.551,1.1,13.9,13.9,0,0,1,11.179.284a14.134,14.134,0,0,1,5.643,0,13.921,13.921,0,0,1,5.006,2.106A14.04,14.04,0,0,1,26.9,8.551a13.932,13.932,0,0,1,.816,2.628,14.137,14.137,0,0,1,0,5.643,13.925,13.925,0,0,1-2.107,5.006A14.041,14.041,0,0,1,19.45,26.9a13.914,13.914,0,0,1-2.628.816A14.1,14.1,0,0,1,14,28ZM14,4.359A9.6,9.6,0,0,0,8.61,6.006a9.669,9.669,0,0,0-3.493,4.242,9.628,9.628,0,0,0,.889,9.143,9.667,9.667,0,0,0,4.241,3.493,9.628,9.628,0,0,0,9.143-.889,9.671,9.671,0,0,0,3.493-4.241,9.628,9.628,0,0,0-.889-9.143,9.668,9.668,0,0,0-4.242-3.493A9.582,9.582,0,0,0,14,4.359Z" transform="translate(-18612 -1206)" fill="#909090" opacity="0.5"/>
    <path id="Exclusion_8" data-name="Exclusion 8" d="M14,28a14.1,14.1,0,0,1-2.822-.284,13.921,13.921,0,0,1-5.006-2.106A14.039,14.039,0,0,1,1.1,19.449a13.926,13.926,0,0,1-.816-2.628,14.135,14.135,0,0,1,0-5.643A13.924,13.924,0,0,1,2.391,6.172,14.041,14.041,0,0,1,8.551,1.1,13.9,13.9,0,0,1,11.179.284a14.134,14.134,0,0,1,5.643,0,13.921,13.921,0,0,1,5.006,2.106A14.04,14.04,0,0,1,26.9,8.551a13.932,13.932,0,0,1,.816,2.628,14.137,14.137,0,0,1,0,5.643,13.925,13.925,0,0,1-2.107,5.006A14.041,14.041,0,0,1,19.45,26.9a13.914,13.914,0,0,1-2.628.816A14.1,14.1,0,0,1,14,28ZM14,4.359A9.6,9.6,0,0,0,8.61,6.006a9.669,9.669,0,0,0-3.493,4.242,9.628,9.628,0,0,0,.889,9.143,9.667,9.667,0,0,0,4.241,3.493,9.628,9.628,0,0,0,9.143-.889,9.671,9.671,0,0,0,3.493-4.241,9.628,9.628,0,0,0-.889-9.143,9.668,9.668,0,0,0-4.242-3.493A9.582,9.582,0,0,0,14,4.359Z" transform="translate(-18494 -1302)" fill="#909090" opacity="0.5"/>
    <path id="Exclusion_2" data-name="Exclusion 2" d="M8.5,17a8.559,8.559,0,0,1-1.713-.173,8.452,8.452,0,0,1-3.039-1.279,8.524,8.524,0,0,1-3.08-3.74,8.455,8.455,0,0,1-.5-1.6,8.582,8.582,0,0,1,0-3.426,8.454,8.454,0,0,1,1.279-3.04A8.525,8.525,0,0,1,5.192.668a8.441,8.441,0,0,1,1.6-.5,8.582,8.582,0,0,1,3.426,0,8.452,8.452,0,0,1,3.039,1.279,8.524,8.524,0,0,1,3.08,3.74,8.459,8.459,0,0,1,.5,1.6,8.583,8.583,0,0,1,0,3.426,8.455,8.455,0,0,1-1.279,3.04,8.525,8.525,0,0,1-3.74,3.079,8.448,8.448,0,0,1-1.6.5A8.558,8.558,0,0,1,8.5,17Zm0-14.353a5.826,5.826,0,0,0-3.273,1A5.871,5.871,0,0,0,3.107,6.222a5.845,5.845,0,0,0,.54,5.551,5.869,5.869,0,0,0,2.575,2.121,5.846,5.846,0,0,0,5.551-.54,5.872,5.872,0,0,0,2.121-2.575,5.846,5.846,0,0,0-.54-5.551,5.87,5.87,0,0,0-2.575-2.121A5.818,5.818,0,0,0,8.5,2.647Z" transform="translate(-18539 -1374)" fill="#909090" opacity="0.5"/>
    <path id="Exclusion_5" data-name="Exclusion 5" d="M8.5,17a8.559,8.559,0,0,1-1.713-.173,8.452,8.452,0,0,1-3.039-1.279,8.524,8.524,0,0,1-3.08-3.74,8.455,8.455,0,0,1-.5-1.6,8.582,8.582,0,0,1,0-3.426,8.454,8.454,0,0,1,1.279-3.04A8.525,8.525,0,0,1,5.192.668a8.441,8.441,0,0,1,1.6-.5,8.582,8.582,0,0,1,3.426,0,8.452,8.452,0,0,1,3.039,1.279,8.524,8.524,0,0,1,3.08,3.74,8.459,8.459,0,0,1,.5,1.6,8.583,8.583,0,0,1,0,3.426,8.455,8.455,0,0,1-1.279,3.04,8.525,8.525,0,0,1-3.74,3.079,8.448,8.448,0,0,1-1.6.5A8.558,8.558,0,0,1,8.5,17Zm0-14.353a5.826,5.826,0,0,0-3.273,1A5.871,5.871,0,0,0,3.107,6.222a5.845,5.845,0,0,0,.54,5.551,5.869,5.869,0,0,0,2.575,2.121,5.846,5.846,0,0,0,5.551-.54,5.872,5.872,0,0,0,2.121-2.575,5.846,5.846,0,0,0-.54-5.551,5.87,5.87,0,0,0-2.575-2.121A5.818,5.818,0,0,0,8.5,2.647Z" transform="translate(-18765 -1215)" fill="#909090" opacity="0.5"/>
    <path id="Exclusion_3" data-name="Exclusion 3" d="M8.5,17a8.559,8.559,0,0,1-1.713-.173,8.452,8.452,0,0,1-3.039-1.279,8.524,8.524,0,0,1-3.08-3.74,8.455,8.455,0,0,1-.5-1.6,8.582,8.582,0,0,1,0-3.426,8.454,8.454,0,0,1,1.279-3.04A8.525,8.525,0,0,1,5.192.668a8.441,8.441,0,0,1,1.6-.5,8.582,8.582,0,0,1,3.426,0,8.452,8.452,0,0,1,3.039,1.279,8.524,8.524,0,0,1,3.08,3.74,8.459,8.459,0,0,1,.5,1.6,8.583,8.583,0,0,1,0,3.426,8.455,8.455,0,0,1-1.279,3.04,8.525,8.525,0,0,1-3.74,3.079,8.448,8.448,0,0,1-1.6.5A8.558,8.558,0,0,1,8.5,17Zm0-14.353a5.826,5.826,0,0,0-3.273,1A5.871,5.871,0,0,0,3.107,6.222a5.845,5.845,0,0,0,.54,5.551,5.869,5.869,0,0,0,2.575,2.121,5.846,5.846,0,0,0,5.551-.54,5.872,5.872,0,0,0,2.121-2.575,5.846,5.846,0,0,0-.54-5.551,5.87,5.87,0,0,0-2.575-2.121A5.818,5.818,0,0,0,8.5,2.647Z" transform="translate(-18683 -1502)" fill="#909090" opacity="0.5"/>
    <path id="Exclusion_7" data-name="Exclusion 7" d="M8.5,17a8.559,8.559,0,0,1-1.713-.173,8.452,8.452,0,0,1-3.039-1.279,8.524,8.524,0,0,1-3.08-3.74,8.455,8.455,0,0,1-.5-1.6,8.582,8.582,0,0,1,0-3.426,8.454,8.454,0,0,1,1.279-3.04A8.525,8.525,0,0,1,5.192.668a8.441,8.441,0,0,1,1.6-.5,8.582,8.582,0,0,1,3.426,0,8.452,8.452,0,0,1,3.039,1.279,8.524,8.524,0,0,1,3.08,3.74,8.459,8.459,0,0,1,.5,1.6,8.583,8.583,0,0,1,0,3.426,8.455,8.455,0,0,1-1.279,3.04,8.525,8.525,0,0,1-3.74,3.079,8.448,8.448,0,0,1-1.6.5A8.558,8.558,0,0,1,8.5,17Zm0-14.353a5.826,5.826,0,0,0-3.273,1A5.871,5.871,0,0,0,3.107,6.222a5.845,5.845,0,0,0,.54,5.551,5.869,5.869,0,0,0,2.575,2.121,5.846,5.846,0,0,0,5.551-.54,5.872,5.872,0,0,0,2.121-2.575,5.846,5.846,0,0,0-.54-5.551,5.87,5.87,0,0,0-2.575-2.121A5.818,5.818,0,0,0,8.5,2.647Z" transform="translate(-18788 -1411)" fill="#909090" opacity="0.5"/>
    <g id="Group_2635" data-name="Group 2635" transform="translate(-19752.715 -1958)">
      <g id="Rectangle_1657" data-name="Rectangle 1657" transform="translate(1007.715 527)" fill="#c1c1c1" stroke="#c1c1c1" stroke-width="1">
        <rect width="171" height="31" rx="5" stroke="none"/>
        <rect x="0.5" y="0.5" width="170" height="30" rx="4.5" fill="none"/>
      </g>
      <g id="Rectangle_1658" data-name="Rectangle 1658" transform="translate(1007.715 570)" fill="#c1c1c1" stroke="#c1c1c1" stroke-width="1">
        <rect width="171" height="15" rx="5" stroke="none"/>
        <rect x="0.5" y="0.5" width="170" height="14" rx="4.5" fill="none"/>
      </g>
      <g id="Rectangle_1658-2" data-name="Rectangle 1658" transform="translate(1007.715 596)" fill="#c1c1c1" stroke="#c1c1c1" stroke-width="1">
        <rect width="171" height="15" rx="5" stroke="none"/>
        <rect x="0.5" y="0.5" width="170" height="14" rx="4.5" fill="none"/>
      </g>
      <g id="Rectangle_1658-3" data-name="Rectangle 1658" transform="translate(1007.715 623)" fill="#c1c1c1" stroke="#c1c1c1" stroke-width="1">
        <rect width="171" height="15" rx="5" stroke="none"/>
        <rect x="0.5" y="0.5" width="170" height="14" rx="4.5" fill="none"/>
      </g>
      <g id="Rectangle_1658-4" data-name="Rectangle 1658" transform="translate(1007.715 649)" fill="#c1c1c1" stroke="#c1c1c1" stroke-width="1">
        <rect width="171" height="15" rx="5" stroke="none"/>
        <rect x="0.5" y="0.5" width="170" height="14" rx="4.5" fill="none"/>
      </g>
    </g>
  </g>
</svg>
