<svg xmlns="http://www.w3.org/2000/svg" width="426.998" height="398.005" viewBox="0 0 426.998 398.005">
  <g id="Group_2639" data-name="Group 2639" transform="translate(19395 1576.005)" opacity="0.5">
    <g id="Group_2637" data-name="Group 2637" transform="translate(-19394.824 -1576.005)">
      <path id="Union_1" data-name="Union 1" d="M16.385,36.808V24.457H4.035a4.035,4.035,0,0,1,0-8.07H16.385V4.036a4.035,4.035,0,1,1,8.07,0V16.386H36.806a4.035,4.035,0,1,1,0,8.07H24.456V36.808a4.035,4.035,0,0,1-8.07,0Z" transform="translate(100.419 28.47) rotate(-16)" fill="#909090" opacity="0.5"/>
      <path id="Union_2" data-name="Union 2" d="M16.385,36.808V24.458H4.035a4.036,4.036,0,0,1,0-8.071H16.385V4.036a4.035,4.035,0,1,1,8.07,0V16.386H36.806a4.036,4.036,0,0,1,0,8.071H24.456V36.808a4.035,4.035,0,0,1-8.07,0Z" transform="translate(242.773 0) rotate(28)" fill="#909090" opacity="0.5"/>
      <path id="Union_4" data-name="Union 4" d="M16.385,36.808V24.458H4.035a4.036,4.036,0,0,1,0-8.071H16.385V4.036a4.035,4.035,0,1,1,8.07,0V16.386H36.806a4.036,4.036,0,0,1,0,8.071H24.456V36.808a4.035,4.035,0,0,1-8.07,0Z" transform="translate(319.476 297.683) rotate(9)" fill="#909090" opacity="0.5"/>
      <path id="Union_6" data-name="Union 6" d="M16.385,36.808V24.458H4.035a4.036,4.036,0,0,1,0-8.071H16.385V4.036a4.035,4.035,0,1,1,8.07,0V16.386H36.806a4.036,4.036,0,0,1,0,8.071H24.456V36.808a4.035,4.035,0,0,1-8.07,0Z" transform="translate(27.361 293.694) rotate(-18)" fill="#909090" opacity="0.5"/>
      <path id="Union_3" data-name="Union 3" d="M10.427,23.423v-7.86H2.568a2.568,2.568,0,0,1,0-5.136h7.859V2.568a2.568,2.568,0,0,1,5.136,0v7.86h7.859a2.568,2.568,0,0,1,0,5.136H15.563v7.86a2.568,2.568,0,0,1-5.136,0Z" transform="translate(401.501 145.003) rotate(13)" fill="#909090" opacity="0.5"/>
      <path id="Union_7" data-name="Union 7" d="M10.427,23.423v-7.86H2.568a2.568,2.568,0,0,1,0-5.136h7.859V2.568a2.568,2.568,0,0,1,5.136,0v7.86h7.859a2.568,2.568,0,0,1,0,5.136H15.563v7.86a2.568,2.568,0,0,1-5.136,0Z" transform="translate(65.244 106.978) rotate(-15)" fill="#909090" opacity="0.5"/>
      <path id="Union_5" data-name="Union 5" d="M10.427,23.423v-7.86H2.568a2.568,2.568,0,0,1,0-5.136h7.859V2.568a2.568,2.568,0,0,1,5.136,0v7.86h7.859a2.568,2.568,0,0,1,0,5.136H15.563v7.86a2.568,2.568,0,0,1-5.136,0Z" transform="translate(184.787 348.896) rotate(-11)" fill="#909090" opacity="0.5"/>
      <path id="Exclusion_1" data-name="Exclusion 1" d="M14,28a14.1,14.1,0,0,1-2.822-.284,13.921,13.921,0,0,1-5.006-2.106A14.039,14.039,0,0,1,1.1,19.449a13.926,13.926,0,0,1-.816-2.628,14.135,14.135,0,0,1,0-5.643A13.924,13.924,0,0,1,2.391,6.172,14.041,14.041,0,0,1,8.551,1.1,13.9,13.9,0,0,1,11.179.284a14.134,14.134,0,0,1,5.643,0,13.921,13.921,0,0,1,5.006,2.106A14.04,14.04,0,0,1,26.9,8.551a13.932,13.932,0,0,1,.816,2.628,14.137,14.137,0,0,1,0,5.643,13.925,13.925,0,0,1-2.107,5.006A14.041,14.041,0,0,1,19.45,26.9a13.914,13.914,0,0,1-2.628.816A14.1,14.1,0,0,1,14,28ZM14,4.359A9.6,9.6,0,0,0,8.61,6.006a9.669,9.669,0,0,0-3.493,4.242,9.628,9.628,0,0,0,.889,9.143,9.667,9.667,0,0,0,4.241,3.493,9.628,9.628,0,0,0,9.143-.889,9.671,9.671,0,0,0,3.493-4.241,9.628,9.628,0,0,0-.889-9.143,9.668,9.668,0,0,0-4.242-3.493A9.582,9.582,0,0,0,14,4.359Z" transform="translate(330.824 60.005)" fill="#909090" opacity="0.5"/>
      <path id="Exclusion_6" data-name="Exclusion 6" d="M14,28a14.1,14.1,0,0,1-2.822-.284,13.921,13.921,0,0,1-5.006-2.106A14.039,14.039,0,0,1,1.1,19.449a13.926,13.926,0,0,1-.816-2.628,14.135,14.135,0,0,1,0-5.643A13.924,13.924,0,0,1,2.391,6.172,14.041,14.041,0,0,1,8.551,1.1,13.9,13.9,0,0,1,11.179.284a14.134,14.134,0,0,1,5.643,0,13.921,13.921,0,0,1,5.006,2.106A14.04,14.04,0,0,1,26.9,8.551a13.932,13.932,0,0,1,.816,2.628,14.137,14.137,0,0,1,0,5.643,13.925,13.925,0,0,1-2.107,5.006A14.041,14.041,0,0,1,19.45,26.9a13.914,13.914,0,0,1-2.628.816A14.1,14.1,0,0,1,14,28ZM14,4.359A9.6,9.6,0,0,0,8.61,6.006a9.669,9.669,0,0,0-3.493,4.242,9.628,9.628,0,0,0,.889,9.143,9.667,9.667,0,0,0,4.241,3.493,9.628,9.628,0,0,0,9.143-.889,9.671,9.671,0,0,0,3.493-4.241,9.628,9.628,0,0,0-.889-9.143,9.668,9.668,0,0,0-4.242-3.493A9.582,9.582,0,0,0,14,4.359Z" transform="translate(-0.176 160.005)" fill="#909090" opacity="0.5"/>
      <path id="Exclusion_4" data-name="Exclusion 4" d="M14,28a14.1,14.1,0,0,1-2.822-.284,13.921,13.921,0,0,1-5.006-2.106A14.039,14.039,0,0,1,1.1,19.449a13.926,13.926,0,0,1-.816-2.628,14.135,14.135,0,0,1,0-5.643A13.924,13.924,0,0,1,2.391,6.172,14.041,14.041,0,0,1,8.551,1.1,13.9,13.9,0,0,1,11.179.284a14.134,14.134,0,0,1,5.643,0,13.921,13.921,0,0,1,5.006,2.106A14.04,14.04,0,0,1,26.9,8.551a13.932,13.932,0,0,1,.816,2.628,14.137,14.137,0,0,1,0,5.643,13.925,13.925,0,0,1-2.107,5.006A14.041,14.041,0,0,1,19.45,26.9a13.914,13.914,0,0,1-2.628.816A14.1,14.1,0,0,1,14,28ZM14,4.359A9.6,9.6,0,0,0,8.61,6.006a9.669,9.669,0,0,0-3.493,4.242,9.628,9.628,0,0,0,.889,9.143,9.667,9.667,0,0,0,4.241,3.493,9.628,9.628,0,0,0,9.143-.889,9.671,9.671,0,0,0,3.493-4.241,9.628,9.628,0,0,0-.889-9.143,9.668,9.668,0,0,0-4.242-3.493A9.582,9.582,0,0,0,14,4.359Z" transform="translate(262.824 370.005)" fill="#909090" opacity="0.5"/>
      <path id="Exclusion_8" data-name="Exclusion 8" d="M14,28a14.1,14.1,0,0,1-2.822-.284,13.921,13.921,0,0,1-5.006-2.106A14.039,14.039,0,0,1,1.1,19.449a13.926,13.926,0,0,1-.816-2.628,14.135,14.135,0,0,1,0-5.643A13.924,13.924,0,0,1,2.391,6.172,14.041,14.041,0,0,1,8.551,1.1,13.9,13.9,0,0,1,11.179.284a14.134,14.134,0,0,1,5.643,0,13.921,13.921,0,0,1,5.006,2.106A14.04,14.04,0,0,1,26.9,8.551a13.932,13.932,0,0,1,.816,2.628,14.137,14.137,0,0,1,0,5.643,13.925,13.925,0,0,1-2.107,5.006A14.041,14.041,0,0,1,19.45,26.9a13.914,13.914,0,0,1-2.628.816A14.1,14.1,0,0,1,14,28ZM14,4.359A9.6,9.6,0,0,0,8.61,6.006a9.669,9.669,0,0,0-3.493,4.242,9.628,9.628,0,0,0,.889,9.143,9.667,9.667,0,0,0,4.241,3.493,9.628,9.628,0,0,0,9.143-.889,9.671,9.671,0,0,0,3.493-4.241,9.628,9.628,0,0,0-.889-9.143,9.668,9.668,0,0,0-4.242-3.493A9.582,9.582,0,0,0,14,4.359Z" transform="translate(380.824 274.005)" fill="#909090" opacity="0.5"/>
      <path id="Exclusion_2" data-name="Exclusion 2" d="M8.5,17a8.559,8.559,0,0,1-1.713-.173,8.452,8.452,0,0,1-3.039-1.279,8.524,8.524,0,0,1-3.08-3.74,8.455,8.455,0,0,1-.5-1.6,8.582,8.582,0,0,1,0-3.426,8.454,8.454,0,0,1,1.279-3.04A8.525,8.525,0,0,1,5.192.668a8.441,8.441,0,0,1,1.6-.5,8.582,8.582,0,0,1,3.426,0,8.452,8.452,0,0,1,3.039,1.279,8.524,8.524,0,0,1,3.08,3.74,8.459,8.459,0,0,1,.5,1.6,8.583,8.583,0,0,1,0,3.426,8.455,8.455,0,0,1-1.279,3.04,8.525,8.525,0,0,1-3.74,3.079,8.448,8.448,0,0,1-1.6.5A8.558,8.558,0,0,1,8.5,17Zm0-14.353a5.826,5.826,0,0,0-3.273,1A5.871,5.871,0,0,0,3.107,6.222a5.845,5.845,0,0,0,.54,5.551,5.869,5.869,0,0,0,2.575,2.121,5.846,5.846,0,0,0,5.551-.54,5.872,5.872,0,0,0,2.121-2.575,5.846,5.846,0,0,0-.54-5.551,5.87,5.87,0,0,0-2.575-2.121A5.818,5.818,0,0,0,8.5,2.647Z" transform="translate(335.824 202.005)" fill="#909090" opacity="0.5"/>
      <path id="Exclusion_5" data-name="Exclusion 5" d="M8.5,17a8.559,8.559,0,0,1-1.713-.173,8.452,8.452,0,0,1-3.039-1.279,8.524,8.524,0,0,1-3.08-3.74,8.455,8.455,0,0,1-.5-1.6,8.582,8.582,0,0,1,0-3.426,8.454,8.454,0,0,1,1.279-3.04A8.525,8.525,0,0,1,5.192.668a8.441,8.441,0,0,1,1.6-.5,8.582,8.582,0,0,1,3.426,0,8.452,8.452,0,0,1,3.039,1.279,8.524,8.524,0,0,1,3.08,3.74,8.459,8.459,0,0,1,.5,1.6,8.583,8.583,0,0,1,0,3.426,8.455,8.455,0,0,1-1.279,3.04,8.525,8.525,0,0,1-3.74,3.079,8.448,8.448,0,0,1-1.6.5A8.558,8.558,0,0,1,8.5,17Zm0-14.353a5.826,5.826,0,0,0-3.273,1A5.871,5.871,0,0,0,3.107,6.222a5.845,5.845,0,0,0,.54,5.551,5.869,5.869,0,0,0,2.575,2.121,5.846,5.846,0,0,0,5.551-.54,5.872,5.872,0,0,0,2.121-2.575,5.846,5.846,0,0,0-.54-5.551,5.87,5.87,0,0,0-2.575-2.121A5.818,5.818,0,0,0,8.5,2.647Z" transform="translate(109.824 361.005)" fill="#909090" opacity="0.5"/>
      <path id="Exclusion_3" data-name="Exclusion 3" d="M8.5,17a8.559,8.559,0,0,1-1.713-.173,8.452,8.452,0,0,1-3.039-1.279,8.524,8.524,0,0,1-3.08-3.74,8.455,8.455,0,0,1-.5-1.6,8.582,8.582,0,0,1,0-3.426,8.454,8.454,0,0,1,1.279-3.04A8.525,8.525,0,0,1,5.192.668a8.441,8.441,0,0,1,1.6-.5,8.582,8.582,0,0,1,3.426,0,8.452,8.452,0,0,1,3.039,1.279,8.524,8.524,0,0,1,3.08,3.74,8.459,8.459,0,0,1,.5,1.6,8.583,8.583,0,0,1,0,3.426,8.455,8.455,0,0,1-1.279,3.04,8.525,8.525,0,0,1-3.74,3.079,8.448,8.448,0,0,1-1.6.5A8.558,8.558,0,0,1,8.5,17Zm0-14.353a5.826,5.826,0,0,0-3.273,1A5.871,5.871,0,0,0,3.107,6.222a5.845,5.845,0,0,0,.54,5.551,5.869,5.869,0,0,0,2.575,2.121,5.846,5.846,0,0,0,5.551-.54,5.872,5.872,0,0,0,2.121-2.575,5.846,5.846,0,0,0-.54-5.551,5.87,5.87,0,0,0-2.575-2.121A5.818,5.818,0,0,0,8.5,2.647Z" transform="translate(191.824 74.005)" fill="#909090" opacity="0.5"/>
      <path id="Exclusion_7" data-name="Exclusion 7" d="M8.5,17a8.559,8.559,0,0,1-1.713-.173,8.452,8.452,0,0,1-3.039-1.279,8.524,8.524,0,0,1-3.08-3.74,8.455,8.455,0,0,1-.5-1.6,8.582,8.582,0,0,1,0-3.426,8.454,8.454,0,0,1,1.279-3.04A8.525,8.525,0,0,1,5.192.668a8.441,8.441,0,0,1,1.6-.5,8.582,8.582,0,0,1,3.426,0,8.452,8.452,0,0,1,3.039,1.279,8.524,8.524,0,0,1,3.08,3.74,8.459,8.459,0,0,1,.5,1.6,8.583,8.583,0,0,1,0,3.426,8.455,8.455,0,0,1-1.279,3.04,8.525,8.525,0,0,1-3.74,3.079,8.448,8.448,0,0,1-1.6.5A8.558,8.558,0,0,1,8.5,17Zm0-14.353a5.826,5.826,0,0,0-3.273,1A5.871,5.871,0,0,0,3.107,6.222a5.845,5.845,0,0,0,.54,5.551,5.869,5.869,0,0,0,2.575,2.121,5.846,5.846,0,0,0,5.551-.54,5.872,5.872,0,0,0,2.121-2.575,5.846,5.846,0,0,0-.54-5.551,5.87,5.87,0,0,0-2.575-2.121A5.818,5.818,0,0,0,8.5,2.647Z" transform="translate(86.824 165.005)" fill="#909090" opacity="0.5"/>
      <g id="statistics" transform="translate(120.064 106.425)" opacity="0.5">
        <path id="Path_1074" data-name="Path 1074" d="M47.522,88.116A16.439,16.439,0,0,0,58.958,83.47l16.3,8.15a16.182,16.182,0,0,0-.2,2,16.522,16.522,0,1,0,33.043,0,16.321,16.321,0,0,0-1.656-7.078L128.56,64.43a16.321,16.321,0,0,0,7.078,1.656,16.541,16.541,0,0,0,16.522-16.522,16.274,16.274,0,0,0-.825-4.893l19.215-14.408a16.511,16.511,0,1,0-7.376-13.742A16.274,16.274,0,0,0,164,21.415L144.783,35.823a16.45,16.45,0,0,0-24.011,20.82L98.657,78.758a16.235,16.235,0,0,0-18.514,2.989l-16.3-8.15a16.182,16.182,0,0,0,.2-2A16.522,16.522,0,1,0,47.522,88.116Zm0,0" transform="translate(-19.618)" fill="#909090"/>
        <path id="Path_1075" data-name="Path 1075" d="M182.473,271.893H176.6V155.507A5.5,5.5,0,0,0,171.091,150H149.062a5.5,5.5,0,0,0-5.507,5.507V271.893H132.541V188.551a5.5,5.5,0,0,0-5.507-5.507H105a5.5,5.5,0,0,0-5.507,5.507v83.343H88.483V232.608a5.5,5.5,0,0,0-5.507-5.507H60.947a5.5,5.5,0,0,0-5.507,5.507v39.285H44.425V210.58a5.505,5.505,0,0,0-5.507-5.507H16.889a5.505,5.505,0,0,0-5.507,5.507v61.314H5.507a5.507,5.507,0,1,0,0,11.014H182.473a5.507,5.507,0,1,0,0-11.014Zm0,0" transform="translate(0 -94.928)" fill="#909090"/>
      </g>
    </g>
  </g>
</svg>
