<?xml version="1.0" encoding="utf-8"?>
<!-- Generator: Adobe Illustrator 27.9.0, SVG Export Plug-In . SVG Version: 6.00 Build 0)  -->
<svg version="1.1" id="Layer_1" xmlns="http://www.w3.org/2000/svg" xmlns:xlink="http://www.w3.org/1999/xlink" x="0px" y="0px"
	 viewBox="0 0 2000 2000" style="enable-background:new 0 0 2000 2000;" xml:space="preserve">
<style type="text/css">
	.st0{fill:#313131;}
	.st1{fill:#FFFFFF;}
</style>
<path class="st0" d="M999.6,547.6c33.7,0,66,13.5,89.7,37.3c23.8,23.8,37.1,56.2,37.1,89.9l-0.2,112.6l-254-0.4l0.2-112.6
	c0-33.7,13.5-66,37.3-89.7S965.9,547.6,999.6,547.6z"/>
<path class="st0" d="M1126.2,790.2l-254-0.4c-0.7,0-1.4-0.3-1.9-0.8s-0.8-1.2-0.8-1.9l0.2-112.6c0.1-34.3,13.8-67.3,38.1-91.5
	s57.2-37.9,91.6-38h0.2c34.4,0.1,67.3,13.8,91.6,38.2s37.9,57.4,37.9,91.7l-0.2,112.6c0,0.4-0.1,0.7-0.2,1s-0.3,0.6-0.6,0.9
	c-0.3,0.3-0.6,0.4-0.9,0.6C1126.9,790.1,1126.6,790.2,1126.2,790.2z M874.8,784.4l248.7,0.4l0.1-109.9c0-33-13-64.6-36.3-87.9
	c-23.3-23.3-54.9-36.5-87.8-36.6h-0.2c-32.9,0-64.5,13.1-87.8,36.4c-23.3,23.3-36.4,54.8-36.5,87.8L874.8,784.4z"/>
<path class="st1" d="M922.5,725.2c11.1-4.6,15.2-19.9,9.3-34.2s-19.7-22.2-30.8-17.6c-11.1,4.6-15.2,19.9-9.3,34.2
	C897.6,721.9,911.4,729.7,922.5,725.2z"/>
<path class="st0" d="M915.9,729.1c-12.1,0-24.3-10.6-28.3-25.3c-1.2-4.1-1.6-8.4-1.1-12.7s1.9-8.4,4-12.1c1.5-2.4,3.4-4.5,5.8-6.1
	c2.3-1.6,5-2.7,7.8-3.2c13.2-2.4,27.5,8.8,31.9,25c1.2,4.1,1.6,8.4,1.1,12.7s-1.9,8.4-4,12.1c-1.8,3-4.3,5.4-7.3,7.1
	C922.7,728.3,919.3,729.2,915.9,729.1L915.9,729.1z M892.8,702.4c3.6,13.5,15.2,23,25.7,21.1c2.1-0.4,4-1.2,5.7-2.4s3.2-2.7,4.2-4.5
	c1.7-3.1,2.8-6.5,3.2-10s0-7.1-1-10.5c-3.6-13.5-15.2-23-25.8-21.1c-2.1,0.4-4,1.2-5.7,2.4s-3.2,2.7-4.2,4.5
	c-1.8,3.1-2.8,6.5-3.2,10C891.3,695.5,891.6,699,892.8,702.4L892.8,702.4L892.8,702.4z"/>
<path class="st0" d="M908.9,699.3c-0.5,0-1-0.1-1.4-0.4l-9.4-5.6c-0.6-0.4-1-1-1.1-1.6c-0.2-0.7,0-1.4,0.3-2c0.4-0.6,0.9-1,1.6-1.2
	c0.7-0.2,1.4-0.1,2,0.2l9.4,5.6c0.5,0.3,0.9,0.8,1.1,1.3c0.2,0.5,0.3,1.2,0.1,1.7c-0.2,0.6-0.5,1.1-1,1.4
	C910.1,699.1,909.5,699.3,908.9,699.3z"/>
<path class="st1" d="M1106.6,707.9c6-14.3,1.9-29.6-9.2-34.2c-11.1-4.6-24.9,3.2-30.8,17.5s-1.9,29.6,9.2,34.2
	C1086.8,730,1100.6,722.2,1106.6,707.9z"/>
<path class="st0" d="M1082.3,729.4c-1.2,0-2.4-0.1-3.6-0.3c-2.8-0.5-5.4-1.6-7.8-3.3c-2.3-1.6-4.3-3.7-5.8-6.1
	c-2.1-3.7-3.5-7.8-4-12.1s-0.1-8.6,1.2-12.7c4.4-16.1,18.7-27.3,32-24.9c2.8,0.5,5.4,1.6,7.8,3.2c2.3,1.6,4.3,3.7,5.8,6.1
	c2.1,3.7,3.5,7.8,4,12.1s0.1,8.6-1.2,12.7C1106.6,718.8,1094.5,729.4,1082.3,729.4z M1090.6,675c-9.7,0-19.7,8.9-23,21.3
	c-1.1,3.4-1.4,7-1.1,10.5s1.5,7,3.2,10c1.1,1.8,2.5,3.4,4.2,4.6c1.7,1.2,3.7,2,5.7,2.4c10.5,1.9,22.1-7.5,25.8-21
	c1.1-3.4,1.4-7,1-10.5s-1.5-7-3.2-10c-1.1-1.8-2.5-3.4-4.2-4.6c-1.7-1.2-3.7-2-5.7-2.4C1092.5,675.1,1091.5,675,1090.6,675z"/>
<path class="st1" d="M1080,960l-76.6,81l-84.9-80.8L918.2,704l161.5-0.3L1080,960z"/>
<path class="st0" d="M1003.5,1043.8c-0.7,0-1.4-0.3-1.9-0.8l-84.9-80.8c-0.3-0.3-0.5-0.6-0.6-0.9c-0.1-0.3-0.2-0.7-0.2-1.1
	l-0.3-256.1c0-0.7,0.3-1.4,0.8-1.9s1.2-0.8,1.9-0.8l161.4-0.3c0.7,0,1.4,0.3,1.9,0.8c0.3,0.2,0.5,0.5,0.6,0.9c0.1,0.3,0.2,0.7,0.2,1
	l0.3,256.3c0,0.7-0.3,1.4-0.7,1.9l-76.5,80.9c-0.2,0.3-0.5,0.5-0.9,0.6C1004.2,1043.7,1003.9,1043.8,1003.5,1043.8L1003.5,1043.8
	L1003.5,1043.8z M921.2,959.2l82.1,78.1l74-78.3l-0.3-252.5l-156.1,0.3L921.2,959.2z"/>
<path class="st0" d="M1079.7,724.6l-0.1,86.6c0,0-18.1-25.2-68.1-22.4c-26.5,1.5,11.3-73.4,11.3-73.4L1079.7,724.6z"/>
<path class="st0" d="M1079.6,813.8c-0.4,0-0.8-0.1-1.2-0.3c-0.4-0.2-0.7-0.5-0.9-0.8c-0.2-0.2-18-24-65.7-21.3
	c-1.9,0.3-3.8,0-5.6-0.8s-3.3-2.1-4.3-3.7c-9.9-15.1,15.6-67,18.6-72.8c0.3-0.5,0.7-0.9,1.2-1.2s1.1-0.3,1.7-0.3l56.9,9.2
	c0.6,0.1,1.2,0.4,1.6,0.9s0.6,1.1,0.6,1.8l-0.1,86.6c0,0.6-0.2,1.1-0.5,1.6s-0.8,0.8-1.4,1C1080.2,813.8,1079.9,813.8,1079.6,813.8z
	 M1019.3,785.8c32,0,49.8,11.6,57.6,18.6l0.1-77.5l-52.7-8.6c-10.5,21.3-24.1,56.5-18,65.7c0.5,0.8,1.3,1.5,2.2,1.8
	c0.9,0.4,1.9,0.5,2.9,0.3C1014.1,785.9,1016.8,785.8,1019.3,785.8L1019.3,785.8L1019.3,785.8z"/>
<path class="st1" d="M1088,700.4c0,11.7-2.3,23.3-6.7,34.1c-4.5,10.8-11,20.7-19.3,28.9c-8.3,8.3-18.1,14.9-28.9,19.4
	c-10.8,4.5-22.4,6.8-34.1,6.8h-0.3c-23.6,0-46.2-9.4-62.9-26.1c-16.7-16.7-26.1-39.3-26.1-62.9v-35.3c0-11.7,2.2-23.3,6.7-34.1
	s11-20.7,19.3-29s18.1-14.9,28.9-19.4c10.8-4.5,22.4-6.8,34.1-6.8h0.3c21.6,0,42.5,7.9,58.8,22.2c16.2,14.3,26.7,34,29.5,55.5
	c0.5,3.7,0.7,7.5,0.7,11.3V700.4z"/>
<path class="st0" d="M999.1,792.3h-0.3c-19.2,0-37.9-6.1-53.5-17.3c-0.5-0.5-0.8-1.1-0.8-1.7c-0.1-0.6,0.1-1.3,0.5-1.8
	s0.9-0.9,1.6-1c0.6-0.1,1.3-0.1,1.9,0.3c14.6,10.6,32.3,16.3,50.4,16.3h0.3c22.9,0,44.9-9.2,61.1-25.4
	c16.2-16.2,25.3-38.3,25.2-61.2V665c0-5-0.5-9.9-1.3-14.8c-0.1-0.7,0-1.4,0.5-2c0.4-0.6,1-1,1.7-1.1s1.4,0,2,0.5
	c0.6,0.4,1,1,1.1,1.7c0.9,5.2,1.4,10.4,1.4,15.7v35.3c0,24.4-9.7,47.7-26.9,65S1023.4,792.3,999.1,792.3z"/>
<path class="st0" d="M931.6,761.6c-0.4,0-0.8-0.1-1.1-0.2c-0.4-0.2-0.7-0.4-0.9-0.7c-14.4-16.7-22.4-37.9-22.4-60v-35.3
	c0-5.4,0.4-10.9,1.4-16.3c0.1-0.7,0.5-1.3,1.1-1.7c0.3-0.2,0.6-0.3,1-0.4c0.3-0.1,0.7-0.1,1.1,0s0.7,0.2,1,0.4s0.6,0.4,0.8,0.7
	s0.3,0.6,0.4,1c0.1,0.3,0.1,0.7,0,1.1c-0.9,5-1.4,10.2-1.3,15.3v35.3c0,20.7,7.5,40.8,21.1,56.5c0.5,0.5,0.7,1.2,0.7,1.9
	s-0.4,1.4-0.9,1.8C932.9,761.3,932.2,761.6,931.6,761.6z"/>
<path class="st0" d="M989.6,579.2c-0.7,0-1.4-0.2-1.9-0.7s-0.8-1.2-0.9-1.9c0-0.7,0.2-1.4,0.7-1.9s1.2-0.8,1.9-0.9
	c1.5-0.1,3-0.3,4.5-0.3h0.3c1.6,0,3.1-0.1,4.5-0.1h0.3c1.6,0,3.2,0,4.7,0.1c0.7,0,1.4,0.4,1.9,0.9s0.7,1.2,0.7,1.9s-0.4,1.4-0.9,1.9
	s-1.2,0.7-1.9,0.7c-1.5,0-2.9-0.1-4.4-0.1h-0.3h-4h-0.6l-4.2,0.3L989.6,579.2z"/>
<path class="st0" d="M1089.3,699.6c-0.6,0-1.2-0.2-1.6-0.5c-0.5-0.4-0.8-0.9-1-1.4s-0.1-1.2,0.1-1.7s0.6-1,1.1-1.3l9.4-5.5
	c0.3-0.2,0.6-0.3,1-0.3s0.7,0,1.1,0.1c0.3,0.1,0.7,0.2,0.9,0.5c0.3,0.2,0.5,0.5,0.7,0.8s0.3,0.6,0.3,1s0,0.7-0.1,1.1
	c-0.1,0.3-0.2,0.7-0.5,0.9c-0.2,0.3-0.5,0.5-0.8,0.7l-9.4,5.5C1090.2,699.4,1089.7,699.6,1089.3,699.6z"/>
<path class="st0" d="M1005.3,721.5c-7.3,0-8.5-1.3-9-1.9c-0.6-0.6-2.2-2.5,0-42.8c0-0.4,0.1-0.7,0.2-1.1c0.1-0.3,0.4-0.6,0.6-0.9
	c0.3-0.3,0.6-0.5,0.9-0.6c0.3-0.1,0.7-0.2,1.1-0.2c0.4,0,0.7,0.1,1.1,0.3c0.3,0.2,0.6,0.4,0.9,0.7c0.2,0.3,0.4,0.6,0.5,1
	s0.1,0.7,0.1,1.1c-0.9,16.2-1.5,34.1-1,38.7c3.8,0.3,7.7,0.3,11.5,0c0.4,0,0.7,0,1,0.1s0.6,0.3,0.9,0.5c0.3,0.2,0.5,0.5,0.6,0.8
	c0.2,0.3,0.3,0.7,0.3,1c0,0.4,0,0.7-0.1,1s-0.3,0.6-0.5,0.9s-0.5,0.5-0.8,0.6c-0.3,0.2-0.7,0.3-1,0.3
	C1009.5,721.4,1007.2,721.5,1005.3,721.5z"/>
<path class="st0" d="M1012,737.7c-3.4,0-6.7-0.6-9.9-1.6c-0.4,0-0.8-0.2-1.1-0.4s-0.6-0.5-0.8-0.8s-0.4-0.7-0.4-1.1
	c-0.1-0.4,0-0.8,0.1-1.2s0.3-0.7,0.6-1s0.6-0.5,1-0.7s0.8-0.2,1.2-0.2s0.8,0.1,1.1,0.3c10.8,3.2,17.8,0.8,21-7.2
	c0.1-0.3,0.3-0.6,0.6-0.9c0.2-0.3,0.5-0.5,0.9-0.6c0.3-0.1,0.7-0.2,1-0.2s0.7,0.1,1,0.2c0.7,0.3,1.2,0.8,1.5,1.4
	c0.3,0.7,0.3,1.4,0,2.1c-1.3,3.6-3.7,6.7-6.9,8.8C1019.6,736.7,1015.8,737.8,1012,737.7z"/>
<path class="st0" d="M1043.6,684.2c-0.6,0-1.3-0.2-1.7-0.6c-0.5-0.4-0.8-1-0.9-1.6s-2.6-14.2-18.2-12.6c-0.4,0-0.7,0-1-0.1
	s-0.7-0.3-0.9-0.5s-0.5-0.5-0.7-0.8s-0.3-0.7-0.3-1c0-0.4,0-0.7,0.1-1s0.3-0.7,0.5-0.9c0.2-0.3,0.5-0.5,0.8-0.7s0.7-0.3,1-0.3
	c16.6-1.7,23,10.4,24.1,17.1c0.1,0.7,0,1.4-0.5,2c-0.4,0.6-1,1-1.7,1.1L1043.6,684.2z"/>
<path class="st0" d="M953.6,684.5c-0.3,0-0.6,0-0.9-0.2c-0.7-0.2-1.2-0.7-1.6-1.3c-0.3-0.6-0.4-1.4-0.1-2.1
	c1.5-4.6,4.5-8.7,8.5-11.4s8.9-4,13.7-3.7c0.7,0.1,1.3,0.4,1.8,1s0.7,1.2,0.6,1.9c-0.1,0.7-0.4,1.4-0.9,1.8
	c-0.5,0.5-1.2,0.7-1.9,0.6c-3.7-0.2-7.3,0.8-10.3,2.9c-3,2.1-5.3,5.1-6.4,8.6c-0.2,0.5-0.5,1-1,1.3
	C954.7,684.4,954.2,684.5,953.6,684.5z"/>
<path class="st0" d="M1088,665c0,0-27,3.4-52.7-7.1c-22.8-9.3-37-30.5-37-30.5c-4.4,8.1-10.5,15.2-17.9,20.7
	c-7.4,5.6-15.9,9.5-24.9,11.5c-15,3.5-30.3,5.4-45.7,5.6c1.9-56.5,17.9-97.2,89.1-97.2C1054.8,568.1,1088,604.4,1088,665z"/>
<path class="st0" d="M957.2,723c-7,0-13.9-2.1-19.7-6s-10.4-9.4-13.1-15.9c-2.7-6.5-3.4-13.6-2-20.5s4.7-13.2,9.7-18.2
	s11.3-8.4,18.2-9.7s14-0.7,20.5,2s12,7.2,15.9,13.1c3.9,5.8,6,12.7,6,19.7c0,9.4-3.8,18.4-10.4,25.1
	C975.7,719.2,966.6,723,957.2,723z M957.2,657.4c-6,0-11.8,1.8-16.7,5.1c-5,3.3-8.8,8-11.1,13.5s-2.9,11.6-1.7,17.4
	c1.2,5.8,4,11.2,8.2,15.4s9.6,7.1,15.4,8.2c5.8,1.2,11.9,0.6,17.4-1.7s10.2-6.1,13.5-11.1s5.1-10.8,5.1-16.7c0-8-3.2-15.7-8.8-21.3
	C972.9,660.5,965.2,657.4,957.2,657.4z"/>
<path class="st0" d="M1039.3,720.2c-7,0-13.9-2.1-19.7-6s-10.4-9.5-13.1-15.9c-2.7-6.5-3.4-13.6-2-20.5s4.8-13.2,9.7-18.2
	s11.3-8.3,18.2-9.7c6.9-1.4,14-0.7,20.5,2s12,7.2,15.9,13.1c3.9,5.8,6,12.7,6,19.7c0,9.4-3.8,18.4-10.4,25.1
	S1048.7,720.2,1039.3,720.2z M1039.3,654.6c-6,0-11.8,1.8-16.7,5.1c-5,3.3-8.8,8-11.1,13.5s-2.9,11.6-1.7,17.4
	c1.2,5.8,4,11.2,8.2,15.4s9.6,7.1,15.4,8.2c5.8,1.2,11.9,0.6,17.4-1.7s10.2-6.1,13.5-11.1s5.1-10.8,5.1-16.7c0-8-3.2-15.6-8.8-21.3
	C1054.9,657.8,1047.3,654.7,1039.3,654.6L1039.3,654.6L1039.3,654.6z"/>
<path class="st0" d="M1016,696.2c2.1,0,3.8-1.7,3.8-3.8s-1.7-3.8-3.8-3.8s-3.8,1.7-3.8,3.8C1012.2,694.4,1013.9,696.2,1016,696.2z"
	/>
<path class="st0" d="M981.2,696.9c2.1,0,3.8-1.7,3.8-3.8s-1.7-3.8-3.8-3.8s-3.8,1.7-3.8,3.8S979.1,696.9,981.2,696.9z"/>
<path class="st0" d="M1006.5,688.2H990c-0.7,0-1.4-0.3-1.9-0.8s-0.8-1.2-0.8-1.9s0.3-1.4,0.8-1.9s1.2-0.8,1.9-0.8h16.4
	c0.7,0,1.4,0.3,1.9,0.8s0.8,1.2,0.8,1.9s-0.3,1.4-0.8,1.9C1007.9,687.9,1007.2,688.2,1006.5,688.2z"/>
<path class="st1" d="M1080,930.6c0,0,201.3,29.8,248.2,61c46.9,31.2,294.8,576.3,147.7,576.3H523.1c-147,0,100.8-545.2,147.7-576.3
	s247.3-61,247.3-61s20.5,65.9,81.4,65.9C1060.4,996.6,1080,930.6,1080,930.6z"/>
<path class="st0" d="M1476,1570.6H523.1c-22.2,0-37.1-11.8-44.1-35.1c-21.9-72.5,39.1-239.5,66.3-307.9
	c45.7-114.9,102.5-223.9,124-238.3c46.9-31.1,240.2-60.3,248.4-61.4c0.6-0.1,1.3,0.1,1.8,0.4c0.5,0.3,0.9,0.9,1.1,1.5
	c0.2,0.6,20.7,64,78.8,64s77.7-63.4,77.9-64c0.2-0.6,0.6-1.2,1.1-1.5s1.2-0.5,1.8-0.4c8.2,1.2,202.3,30.3,249.3,61.4
	c21.5,14.3,78.3,123.4,124,238.3c27.2,68.4,88.2,235.4,66.3,307.9C1513.1,1558.8,1498.2,1570.6,1476,1570.6z M916.3,933.5
	c-21.9,3.4-200.7,31.5-244,60.3c-18.1,12-72.7,111.9-122,235.8c-57.1,143.5-81.2,254.5-66.2,304.4c6.5,21,19.1,31.2,38.9,31.2h953
	c19.9,0,32.6-10.2,38.9-31.2c15.1-49.9-9.1-160.8-66.2-304.4c-49.3-124-103.9-223.8-122-235.8c-43.3-28.7-222.8-56.9-244.9-60.3
	c-4.3,11.7-26.6,65.6-82.3,65.6S920.7,945.2,916.3,933.5L916.3,933.5z"/>
<path class="st1" d="M1098.7,736.3c6.4,0,11.6-5.2,11.6-11.6c0-6.4-5.2-11.6-11.6-11.6s-11.6,5.2-11.6,11.6
	S1092.3,736.3,1098.7,736.3z"/>
<path class="st1" d="M899.6,736.3c6.4,0,11.6-5.2,11.6-11.6c0-6.4-5.2-11.6-11.6-11.6c-6.4,0-11.6,5.2-11.6,11.6
	S893.2,736.3,899.6,736.3z"/>
<path class="st0" d="M1098.7,739c-2.8,0-5.6-0.8-7.9-2.4c-2.4-1.6-4.2-3.8-5.3-6.4c-1.1-2.6-1.4-5.5-0.8-8.3s1.9-5.3,3.9-7.3
	s4.5-3.4,7.3-3.9c2.8-0.6,5.7-0.3,8.3,0.8c2.6,1.1,4.8,2.9,6.4,5.3c1.6,2.4,2.4,5.1,2.4,7.9c0,3.8-1.5,7.4-4.2,10.1
	C1106.1,737.5,1102.4,739,1098.7,739z M1098.7,715.8c-1.8,0-3.5,0.5-5,1.5s-2.6,2.4-3.3,4c-0.7,1.6-0.9,3.4-0.5,5.2
	c0.3,1.7,1.2,3.3,2.4,4.6c1.2,1.2,2.8,2.1,4.6,2.4c1.7,0.3,3.5,0.2,5.2-0.5c1.6-0.7,3-1.8,4-3.3s1.5-3.2,1.5-5
	c0-2.4-0.9-4.6-2.6-6.3C1103.3,716.8,1101,715.8,1098.7,715.8z"/>
<path class="st0" d="M899.6,739c-2.8,0-5.6-0.8-7.9-2.4c-2.4-1.6-4.2-3.8-5.3-6.4c-1.1-2.6-1.4-5.5-0.8-8.3s1.9-5.3,3.9-7.3
	s4.5-3.4,7.3-3.9s5.6-0.3,8.3,0.8c2.6,1.1,4.8,2.9,6.4,5.3s2.4,5.1,2.4,7.9c0,1.9-0.4,3.7-1.1,5.5c-0.7,1.7-1.8,3.3-3.1,4.6
	s-2.9,2.4-4.6,3.1S901.5,739,899.6,739z M899.6,715.8c-1.8,0-3.5,0.5-5,1.5s-2.6,2.4-3.3,4s-0.9,3.4-0.5,5.1s1.2,3.3,2.4,4.6
	c1.2,1.2,2.8,2.1,4.6,2.4c1.7,0.3,3.5,0.2,5.1-0.5s3-1.8,4-3.3s1.5-3.2,1.5-5c0-2.4-0.9-4.6-2.6-6.3
	C904.2,716.7,902,715.8,899.6,715.8z"/>
<path class="st1" d="M688.4,490.5H375.2v411.2h313.2V490.5z"/>
<path class="st0" d="M688.4,904.4H375.1c-0.7,0-1.4-0.3-1.9-0.8s-0.8-1.2-0.8-1.9V490.5c0-0.4,0.1-0.7,0.2-1s0.3-0.6,0.6-0.9
	s0.5-0.5,0.9-0.6c0.3-0.1,0.7-0.2,1-0.2h313.2c0.7,0,1.4,0.3,1.9,0.8s0.8,1.2,0.8,1.9v411.3c0,0.7-0.3,1.4-0.8,1.9
	C689.8,904.2,689.1,904.4,688.4,904.4z M377.8,899.1h307.8V493.2H377.8V899.1z"/>
<path class="st0" d="M588.9,565.3H474.6c-0.7,0-1.4-0.3-1.9-0.8s-0.8-1.2-0.8-1.9s0.3-1.4,0.8-1.9s1.2-0.8,1.9-0.8h114.3
	c0.7,0,1.4,0.3,1.9,0.8s0.8,1.2,0.8,1.9s-0.3,1.4-0.8,1.9C590.3,565,589.6,565.3,588.9,565.3z"/>
<path class="st0" d="M648.5,624.8H415c-0.7,0-1.4-0.3-1.9-0.8s-0.8-1.2-0.8-1.9s0.3-1.4,0.8-1.9s1.2-0.8,1.9-0.8h233.5
	c0.7,0,1.4,0.3,1.9,0.8s0.8,1.2,0.8,1.9s-0.3,1.4-0.8,1.9S649.2,624.8,648.5,624.8z"/>
<path class="st0" d="M648.5,684.4H415c-0.7,0-1.4-0.3-1.9-0.8s-0.8-1.2-0.8-1.9s0.3-1.4,0.8-1.9s1.2-0.8,1.9-0.8h233.5
	c0.7,0,1.4,0.3,1.9,0.8s0.8,1.2,0.8,1.9s-0.3,1.4-0.8,1.9C649.9,684.1,649.2,684.4,648.5,684.4z"/>
<path class="st0" d="M648.5,743.9H415c-0.7,0-1.4-0.3-1.9-0.8s-0.8-1.2-0.8-1.9s0.3-1.4,0.8-1.9s1.2-0.8,1.9-0.8h233.5
	c0.7,0,1.4,0.3,1.9,0.8s0.8,1.2,0.8,1.9s-0.3,1.4-0.8,1.9C649.9,743.6,649.2,743.9,648.5,743.9z"/>
<path class="st0" d="M648.5,805.5H415c-0.7,0-1.4-0.3-1.9-0.8s-0.8-1.2-0.8-1.9s0.3-1.4,0.8-1.9s1.2-0.8,1.9-0.8h233.5
	c0.7,0,1.4,0.3,1.9,0.8s0.8,1.2,0.8,1.9s-0.3,1.4-0.8,1.9S649.2,805.5,648.5,805.5z"/>
<path class="st0" d="M648.5,856.4H415c-0.7,0-1.4-0.3-1.9-0.8s-0.8-1.2-0.8-1.9s0.3-1.4,0.8-1.9s1.2-0.8,1.9-0.8h233.5
	c0.7,0,1.4,0.3,1.9,0.8s0.8,1.2,0.8,1.9s-0.3,1.4-0.8,1.9C649.9,856.1,649.2,856.4,648.5,856.4z"/>
<path class="st1" d="M531.8,474c11.7,0,21.1-9.5,21.1-21.1c0-11.7-9.5-21.1-21.1-21.1c-11.7,0-21.1,9.5-21.1,21.1
	C510.6,464.5,520.1,474,531.8,474z"/>
<path class="st0" d="M531.8,476.7c-4.7,0-9.3-1.4-13.2-4s-7-6.3-8.8-10.7c-1.8-4.4-2.3-9.1-1.4-13.8c0.9-4.6,3.2-8.9,6.5-12.2
	c3.3-3.3,7.6-5.6,12.2-6.5c4.6-0.9,9.4-0.4,13.8,1.4c4.4,1.8,8.1,4.9,10.7,8.8c2.6,3.9,4,8.5,4,13.2c0,6.3-2.5,12.4-7,16.8
	C544.1,474.1,538.1,476.6,531.8,476.7z M531.8,434.4c-3.6,0-7.2,1.1-10.2,3.1s-5.4,4.9-6.8,8.3c-1.4,3.4-1.8,7.1-1,10.7
	c0.7,3.6,2.5,6.9,5,9.4c2.6,2.6,5.9,4.3,9.4,5s7.3,0.3,10.7-1c3.4-1.4,6.3-3.8,8.3-6.8s3.1-6.6,3.1-10.2c0-4.9-2-9.6-5.4-13
	C541.3,436.3,536.7,434.4,531.8,434.4z"/>
<path class="st0" d="M531.8,509.5c-0.7,0-1.4-0.3-1.9-0.8s-0.8-1.2-0.8-1.9V474c0-0.7,0.3-1.4,0.8-1.9s1.2-0.8,1.9-0.8
	s1.4,0.3,1.9,0.8s0.8,1.2,0.8,1.9v32.9c0,0.4-0.1,0.7-0.2,1c-0.1,0.3-0.3,0.6-0.6,0.9c-0.2,0.2-0.5,0.4-0.9,0.6
	C532.5,509.5,532.1,509.5,531.8,509.5z"/>
<path class="st1" d="M454.8,645.5H238v297.9h216.9V645.5H454.8z"/>
<path class="st0" d="M454.8,946.1H238c-0.4,0-0.7-0.1-1-0.2c-0.3-0.1-0.6-0.3-0.9-0.6c-0.3-0.2-0.5-0.5-0.6-0.9
	c-0.1-0.3-0.2-0.7-0.2-1V645.5c0-0.4,0.1-0.7,0.2-1c0.1-0.3,0.3-0.6,0.6-0.9c0.3-0.3,0.6-0.5,0.9-0.6s0.7-0.2,1.1-0.2h216.8
	c0.4,0,0.7,0.1,1,0.2c0.3,0.1,0.6,0.3,0.9,0.6c0.2,0.3,0.4,0.5,0.6,0.9s0.2,0.7,0.2,1v298c0,0.7-0.3,1.4-0.8,1.9
	C456.2,945.8,455.5,946.1,454.8,946.1z M240.6,940.7h211.5V648.2H240.6V940.7z"/>
<path class="st0" d="M394.5,698.7h-96.3c-0.7,0-1.4-0.3-1.9-0.8s-0.8-1.2-0.8-1.9s0.3-1.4,0.8-1.9s1.2-0.8,1.9-0.8h96.3
	c0.7,0,1.4,0.3,1.9,0.8s0.8,1.2,0.8,1.9s-0.3,1.4-0.8,1.9S395.2,698.7,394.5,698.7z"/>
<path class="st0" d="M394.5,756.6h-96.3c-0.7,0-1.4-0.3-1.9-0.8s-0.8-1.2-0.8-1.9s0.3-1.4,0.8-1.9s1.2-0.8,1.9-0.8h96.3
	c0.7,0,1.4,0.3,1.9,0.8s0.8,1.2,0.8,1.9s-0.3,1.4-0.8,1.9S395.2,756.6,394.5,756.6z"/>
<path class="st0" d="M394.5,814.3h-96.3c-0.7,0-1.4-0.3-1.9-0.8s-0.8-1.2-0.8-1.9s0.3-1.4,0.8-1.9s1.2-0.8,1.9-0.8h96.3
	c0.7,0,1.4,0.3,1.9,0.8s0.8,1.2,0.8,1.9s-0.3,1.4-0.8,1.9S395.2,814.3,394.5,814.3z"/>
<path class="st0" d="M394.5,872.1h-96.3c-0.7,0-1.4-0.3-1.9-0.8s-0.8-1.2-0.8-1.9s0.3-1.4,0.8-1.9s1.2-0.8,1.9-0.8h96.3
	c0.7,0,1.4,0.3,1.9,0.8s0.8,1.2,0.8,1.9s-0.3,1.4-0.8,1.9S395.2,872.1,394.5,872.1z"/>
<path class="st1" d="M282.7,630.6l-65.1,60.6l20.3,21.8l65.1-60.6L282.7,630.6z"/>
<path class="st1" d="M386.2,652.3l65.1,60.6l20.3-21.8l-65.1-60.6L386.2,652.3z"/>
<path class="st1" d="M303.1,938.3L238,877.6l-20.3,21.8l65.1,60.6L303.1,938.3z"/>
<path class="st1" d="M406.5,960l65.1-60.6l-20.3-21.8l-65.1,60.6L406.5,960z"/>
<path class="st0" d="M238,715.7c-0.7,0-1.4-0.3-1.9-0.9L215.8,693c-0.5-0.5-0.7-1.2-0.7-1.9s0.3-1.4,0.8-1.9l65.1-60.6
	c0.5-0.5,1.2-0.7,1.9-0.7c0.7,0,1.4,0.3,1.9,0.8l20.3,21.8c0.5,0.5,0.7,1.2,0.7,1.9s-0.3,1.4-0.8,1.9l-65.2,60.6
	C239.3,715.4,238.6,715.7,238,715.7z M221.4,691.3l16.6,17.8l61.1-57l-16.6-17.8L221.4,691.3z"/>
<path class="st0" d="M451.3,715.7c-0.7,0-1.3-0.3-1.8-0.7l-65.1-60.6c-0.3-0.2-0.5-0.5-0.6-0.9c-0.1-0.3-0.2-0.7-0.2-1s0-0.7,0.2-1
	c0.1-0.3,0.3-0.6,0.6-0.9l20.3-21.8c0.2-0.3,0.5-0.5,0.9-0.6c0.3-0.1,0.7-0.2,1-0.2c0.7,0,1.4,0.2,1.9,0.7l65,60.6
	c0.3,0.2,0.5,0.5,0.6,0.9c0.1,0.3,0.2,0.7,0.2,1s0,0.7-0.2,1c-0.1,0.3-0.3,0.6-0.6,0.9l-20.3,21.8
	C452.8,715.3,452.1,715.6,451.3,715.7L451.3,715.7z M390,652.2l61.1,57l16.6-17.8l-61.1-57L390,652.2z"/>
<path class="st0" d="M282.7,962.7c-0.7,0-1.3-0.3-1.8-0.7l-65-60.6c-0.5-0.5-0.8-1.2-0.8-1.9s0.2-1.4,0.7-1.9l20.3-21.8
	c0.5-0.5,1.2-0.8,1.9-0.8c0.4,0,0.7,0,1,0.2c0.3,0.1,0.6,0.3,0.9,0.6l65.1,60.6c0.5,0.5,0.8,1.2,0.9,1.9c0,0.4,0,0.7-0.2,1
	c-0.1,0.3-0.3,0.6-0.6,0.9L284.8,962c-0.3,0.3-0.6,0.5-0.9,0.6C283.5,962.7,283.1,962.8,282.7,962.7z M221.4,899.3l61.1,57
	l16.6-17.8l-61.1-57L221.4,899.3z"/>
<path class="st0" d="M406.5,962.7c-0.4,0-0.7-0.1-1.1-0.2s-0.6-0.4-0.9-0.6l-20.3-21.8c-0.2-0.3-0.4-0.6-0.6-0.9
	c-0.1-0.3-0.2-0.7-0.2-1c0-0.7,0.3-1.4,0.9-1.9l65.1-60.6c0.3-0.2,0.6-0.4,0.9-0.6s0.7-0.2,1-0.2c0.4,0,0.7,0.1,1,0.2
	c0.3,0.1,0.6,0.4,0.9,0.6l20.3,21.8c0.2,0.3,0.4,0.6,0.6,0.9c0.1,0.3,0.2,0.7,0.2,1c0,0.4-0.1,0.7-0.2,1s-0.4,0.6-0.6,0.8l-65,60.6
	C407.9,962.5,407.2,962.7,406.5,962.7z M390,938.4l16.6,17.8l61.1-57l-16.6-17.8L390,938.4z"/>
<path class="st1" d="M1503.6,560.7h-214.4v214.4h214.4V560.7z"/>
<path class="st0" d="M1503.6,777.8h-214.4c-0.7,0-1.4-0.3-1.9-0.8s-0.8-1.2-0.8-1.9V560.7c0-0.7,0.3-1.4,0.8-1.9s1.2-0.8,1.9-0.8
	h214.4c0.7,0,1.4,0.3,1.9,0.8s0.8,1.2,0.8,1.9v214.4c0,0.7-0.3,1.4-0.8,1.9S1504.3,777.8,1503.6,777.8z M1291.8,772.4h209.1v-209
	h-209.1V772.4z"/>
<path class="st1" d="M1396.3,547.4c8.7,0,15.8-7.1,15.8-15.8s-7.1-15.8-15.8-15.8c-8.7,0-15.8,7.1-15.8,15.8
	C1380.5,540.3,1387.6,547.4,1396.3,547.4z"/>
<path class="st0" d="M1396.3,550.2c-3.7,0-7.2-1.1-10.3-3.1s-5.4-4.9-6.8-8.3c-1.4-3.4-1.8-7.1-1.1-10.7c0.7-3.6,2.5-6.9,5.1-9.5
	s5.9-4.4,9.5-5.1c3.6-0.7,7.3-0.3,10.7,1.1s6.3,3.8,8.3,6.8s3.1,6.6,3.1,10.3c0,2.4-0.5,4.8-1.4,7.1s-2.3,4.3-4,6s-3.8,3.1-6,4
	S1398.8,550.2,1396.3,550.2z M1396.3,518.6c-2.6,0-5.1,0.8-7.3,2.2c-2.2,1.4-3.8,3.5-4.8,5.9s-1.2,5-0.7,7.6
	c0.5,2.5,1.8,4.9,3.6,6.7c1.8,1.8,4.2,3.1,6.7,3.6s5.2,0.2,7.6-0.8s4.4-2.7,5.9-4.8c1.4-2.2,2.2-4.7,2.2-7.3c0-1.7-0.3-3.4-1-5
	s-1.6-3.1-2.8-4.3c-1.2-1.2-2.7-2.2-4.3-2.9S1398.1,518.5,1396.3,518.6L1396.3,518.6L1396.3,518.6z"/>
<path class="st0" d="M1396.3,574.7c-0.7,0-1.4-0.3-1.9-0.8s-0.8-1.2-0.8-1.9v-24.6c0-0.7,0.3-1.4,0.8-1.9s1.2-0.8,1.9-0.8
	c0.7,0,1.4,0.3,1.9,0.8s0.8,1.2,0.8,1.9V572c0,0.7-0.3,1.4-0.8,1.9C1397.7,574.4,1397.1,574.7,1396.3,574.7z"/>
<path class="st0" d="M1328.2,628.3c-0.4,0-0.8-0.1-1.2-0.3c-0.4-0.2-0.7-0.5-0.9-0.9l-11.4-16.9c-0.2-0.3-0.4-0.6-0.4-1
	c-0.1-0.4-0.1-0.7,0-1.1c0.1-0.4,0.2-0.7,0.4-1c0.2-0.3,0.4-0.6,0.8-0.8c0.3-0.2,0.6-0.3,1-0.4c0.4-0.1,0.7-0.1,1.1,0s0.7,0.2,1,0.4
	s0.6,0.5,0.7,0.8l9.3,13.7l17.9-23.7c0.4-0.6,1.1-0.9,1.8-1c0.3,0,0.7,0,1.1,0.1c0.3,0.1,0.7,0.2,0.9,0.5c0.3,0.2,0.5,0.5,0.7,0.8
	s0.3,0.6,0.3,1c0.1,0.3,0,0.7-0.1,1s-0.2,0.7-0.4,0.9l-20.2,26.7c-0.2,0.3-0.6,0.6-1,0.8C1329.1,628.2,1328.6,628.3,1328.2,628.3z"
	/>
<path class="st0" d="M1465.1,615h-98.4c-0.7,0-1.4-0.3-1.9-0.8s-0.8-1.2-0.8-1.9s0.3-1.4,0.8-1.9s1.2-0.8,1.9-0.8h98.4
	c0.7,0,1.4,0.3,1.9,0.8s0.8,1.2,0.8,1.9s-0.3,1.4-0.8,1.9S1465.8,615,1465.1,615z"/>
<path class="st0" d="M1328.2,689.8c-0.4,0-0.8-0.1-1.2-0.3c-0.4-0.2-0.7-0.5-0.9-0.9l-11.4-16.9c-0.3-0.6-0.4-1.3-0.3-1.9
	c0.2-0.7,0.6-1.2,1.1-1.6c0.6-0.4,1.2-0.5,1.9-0.4c0.7,0.1,1.3,0.5,1.7,1l9.3,13.7l17.9-23.7c0.2-0.3,0.5-0.5,0.8-0.7s0.6-0.3,1-0.3
	c0.3,0,0.7,0,1.1,0.1c0.3,0.1,0.7,0.2,0.9,0.5c0.3,0.2,0.5,0.5,0.7,0.8s0.3,0.6,0.3,1c0.1,0.4,0,0.7-0.1,1.1s-0.2,0.7-0.5,0.9
	l-20.2,26.7c-0.3,0.3-0.6,0.6-1,0.8C1329.1,689.7,1328.6,689.8,1328.2,689.8z"/>
<path class="st0" d="M1465.1,676.5h-98.4c-0.7,0-1.4-0.3-1.9-0.8s-0.8-1.2-0.8-1.9s0.3-1.4,0.8-1.9s1.2-0.8,1.9-0.8h98.4
	c0.7,0,1.4,0.3,1.9,0.8s0.8,1.2,0.8,1.9s-0.3,1.4-0.8,1.9S1465.8,676.5,1465.1,676.5z"/>
<path class="st0" d="M1328.2,750.8c-0.4,0-0.8-0.1-1.2-0.3c-0.4-0.2-0.7-0.5-0.9-0.9l-11.4-16.9c-0.2-0.3-0.4-0.6-0.4-1
	s-0.1-0.7,0-1.1c0.1-0.4,0.2-0.7,0.4-1c0.2-0.3,0.4-0.6,0.8-0.8c0.3-0.2,0.6-0.3,1-0.4c0.4-0.1,0.7-0.1,1.1,0c0.3,0.1,0.7,0.2,1,0.4
	s0.6,0.5,0.7,0.8l9.3,13.7l17.9-23.7c0.2-0.3,0.5-0.5,0.8-0.7s0.7-0.3,1-0.4s0.7,0,1.1,0.1c0.3,0.1,0.7,0.2,0.9,0.5
	c0.6,0.4,0.9,1.1,1,1.8s-0.1,1.4-0.5,2l-20.2,26.7c-0.2,0.3-0.6,0.6-1,0.8C1329.1,750.7,1328.6,750.8,1328.2,750.8z"/>
<path class="st0" d="M1465.1,737.5h-98.4c-0.7,0-1.4-0.3-1.9-0.8s-0.8-1.2-0.8-1.9s0.3-1.4,0.8-1.9s1.2-0.8,1.9-0.8h98.4
	c0.7,0,1.4,0.3,1.9,0.8s0.8,1.2,0.8,1.9s-0.3,1.4-0.8,1.9S1465.8,737.5,1465.1,737.5z"/>
<path class="st0" d="M1993,1570.6H9c-0.8,0-1.6-0.3-2.1-0.8c-0.6-0.5-0.9-1.2-0.9-1.9c0-0.7,0.3-1.4,0.9-1.9s1.3-0.8,2.1-0.8h1984
	c0.8,0,1.6,0.3,2.1,0.8c0.6,0.5,0.9,1.2,0.9,1.9c0,0.7-0.3,1.4-0.9,1.9C1994.6,1570.4,1993.8,1570.6,1993,1570.6z"/>
<path class="st1" d="M1210.8,1537.7H790.3v30.3h420.4v-30.3H1210.8z"/>
<path class="st1" d="M1286,1246.7H715.1l75.2,290.9h420.4L1286,1246.7z"/>
<path class="st0" d="M1210.7,1570.6H790.3c-0.4,0-0.7-0.1-1-0.2s-0.6-0.3-0.9-0.6c-0.2-0.2-0.4-0.5-0.6-0.9c-0.1-0.3-0.2-0.7-0.2-1
	v-30.3c0-0.7,0.3-1.4,0.8-1.9s1.2-0.8,1.9-0.8h420.4c0.7,0,1.4,0.3,1.9,0.8s0.8,1.2,0.8,1.9v30.3c0,0.4-0.1,0.7-0.2,1
	s-0.3,0.6-0.6,0.9s-0.6,0.4-0.9,0.6S1211.1,1570.6,1210.7,1570.6z M793,1565.3h415.1v-24.9H793V1565.3z"/>
<path class="st0" d="M1210.7,1540.3H790.3c-0.6,0-1.2-0.2-1.6-0.6c-0.5-0.4-0.8-0.9-1-1.5l-75.3-290.9c-0.1-0.4-0.1-0.8,0-1.2
	c0.1-0.4,0.3-0.8,0.5-1.1c0.3-0.3,0.6-0.6,1-0.8s0.8-0.3,1.2-0.3H1286c0.4,0,0.8,0.1,1.2,0.3c0.4,0.2,0.7,0.4,0.9,0.8
	c0.2,0.3,0.4,0.7,0.5,1.1s0.1,0.8,0,1.2l-75.3,290.9c-0.2,0.6-0.5,1.1-0.9,1.4C1211.9,1540.1,1211.3,1540.3,1210.7,1540.3z
	 M792.4,1535h416.2l73.8-285.6H718.6L792.4,1535z"/>
<path class="st0" d="M994.2,1443.7c-22.5,0-40.8-20.7-40.8-46.1s18.3-46.1,40.8-46.1s40.7,20.7,40.7,46.1
	S1016.7,1443.7,994.2,1443.7z M994.2,1356.8c-19.5,0-35.4,18.3-35.4,40.7s15.9,40.8,35.4,40.8s35.4-18.3,35.4-40.8
	C1029.6,1375.1,1013.7,1356.8,994.2,1356.8z"/>
<path class="st1" d="M918.5,906.7c0,0-134.4,58.6-71.4,120.3s152.5-30.4,152.5-30.4s-34.4-1.7-52.7-21.1
	C924,951.2,918.5,906.7,918.5,906.7z"/>
<path class="st1" d="M1080.4,906.7c0,0,134.4,58.6,71.4,120.3s-152.4-30.4-152.4-30.4s37.6-0.6,58.6-27.3
	C1079.9,941.6,1080.4,906.7,1080.4,906.7z"/>
<path class="st0" d="M918.5,913.1c0,0-134.4,58.6-71.4,120.3c63,61.7,156.5-33.9,156.5-33.9s-38.5,1.9-56.8-17.5
	C924,957.6,918.5,913.1,918.5,913.1z"/>
<path class="st0" d="M1080.4,913.1c0,0,134.4,58.6,71.4,120.3c-63,61.7-159-36.6-159-36.6s44.1,5.5,65.2-21.1
	C1079.9,948,1080.4,913.1,1080.4,913.1z"/>
<path class="st1" d="M918.5,906.7c0,0-134.4,58.6-71.4,120.3s152.5-30.4,152.5-30.4s-34.4-1.7-52.7-21.1
	C924,951.2,918.5,906.7,918.5,906.7z"/>
<path class="st1" d="M1080.4,906.7c0,0,134.4,58.6,71.4,120.3s-152.4-30.4-152.4-30.4s37.6-0.6,58.6-27.3
	C1079.9,941.6,1080.4,906.7,1080.4,906.7z"/>
<path class="st0" d="M897.7,1050.9c-19.9,0-37.5-7.4-52.5-22c-14.1-13.8-19.7-28.5-16.9-44c8.2-44.9,85.8-79.2,89.1-80.7
	c0.4-0.2,0.8-0.2,1.2-0.2s0.8,0.1,1.2,0.4c0.4,0.2,0.7,0.5,0.9,0.9s0.4,0.8,0.4,1.2c0,0.5,5.7,44,27.7,67.3
	c17.3,18.4,50.6,20.2,50.9,20.2c0.5,0,1,0.2,1.4,0.5s0.7,0.7,0.9,1.2s0.2,1,0.1,1.5c-0.1,0.5-0.3,1-0.7,1.3
	c-2.2,2.2-50.9,51.8-102.8,52.5L897.7,1050.9L897.7,1050.9z M916.3,910.6c-14.8,7-75.9,38.1-82.7,75.3c-2.5,13.6,2.7,26.7,15.4,39.2
	c14.1,13.8,30.8,20.7,49.6,20.5c41.2-0.5,82-34.9,94.9-46.8c-10.9-1.4-34.2-6.1-48.6-21.3C925.2,956.5,918.2,921.9,916.3,910.6z"/>
<path class="st0" d="M1101.2,1050.9h-1c-51.9-0.6-100.7-50.3-102.8-52.5c-0.4-0.4-0.6-0.8-0.7-1.4c-0.1-0.5,0-1,0.1-1.5
	c0.2-0.5,0.5-0.9,1-1.2c0.4-0.3,0.9-0.5,1.5-0.5c0.3,0,36.6-1,56.6-26.2c21.1-26.6,21.9-60.7,21.9-61c0-0.4,0.1-0.9,0.3-1.3
	c0.2-0.4,0.5-0.7,0.9-1c0.4-0.2,0.8-0.4,1.2-0.4c0.4,0,0.9,0,1.3,0.2c3.3,1.4,80.8,35.8,89.1,80.7c2.8,15.5-2.9,30.2-16.9,44
	C1138.7,1043.5,1121.1,1050.9,1101.2,1050.9z M1005.5,998.8c12.9,12,53.6,46.2,94.7,46.7c9.3,0.2,18.4-1.6,27-5.1
	s16.3-8.8,22.8-15.4c12.7-12.4,17.9-25.6,15.4-39.2c-6.8-36.9-67.1-67.8-82.4-75.1c-0.8,10.2-4.7,37.4-22.8,60.3
	C1043.4,992,1017.3,997.4,1005.5,998.8z"/>
<path class="st0" d="M754.1,1400.2h-0.6c-59.5-13.1-160.5-23.1-161.4-23.1c-0.7-0.1-1.4-0.4-1.8-1c-0.5-0.6-0.7-1.3-0.6-2
	c0.1-0.7,0.4-1.4,1-1.8c0.6-0.5,1.3-0.7,2-0.6c1,0,102.4,10.1,162.1,23.2c0.6,0.2,1.2,0.5,1.6,1.1c0.4,0.5,0.6,1.2,0.5,1.8
	s-0.4,1.3-0.9,1.7C755.5,1400,754.9,1400.3,754.1,1400.2L754.1,1400.2z"/>
<path class="st0" d="M1247.5,1400.2c-0.7,0-1.3-0.2-1.8-0.7c-0.5-0.4-0.8-1.1-0.9-1.7c-0.1-0.7,0.1-1.3,0.5-1.8s0.9-0.9,1.6-1.1
	c59.8-13.2,161.1-23.2,162.2-23.2c0.3,0,0.7,0,1,0.1s0.7,0.3,0.9,0.5c0.3,0.2,0.5,0.5,0.7,0.8s0.3,0.7,0.3,1s0,0.7-0.1,1.1
	c-0.1,0.3-0.3,0.7-0.5,0.9c-0.2,0.3-0.5,0.5-0.8,0.7s-0.7,0.3-1,0.3c-1,0-102.1,10-161.4,23.1L1247.5,1400.2z"/>
<path class="st1" d="M1862.7,1522.8c-0.3,0-0.6,0-1,0c-0.9-0.1-1.7-0.4-2.5-0.9s-1.4-1.1-2-1.8c-0.5-0.7-0.9-1.5-1.1-2.4
	s-0.3-1.8-0.1-2.7c0.2-1.2,17.6-124.8,16.8-259.3c-1.1-176.3-32.6-291.3-91.2-332.4c-37.6-26.4-87.9-23.2-149.5,9.6
	c-1.6,0.9-3.5,1-5.2,0.5s-3.2-1.7-4-3.3c-0.9-1.6-1-3.5-0.5-5.2s1.7-3.2,3.3-4c66.5-35.4,121.5-38.3,163.7-8.7
	c35.2,24.7,61.2,72.2,77.3,141.3c12.7,54.4,19.3,122.5,19.8,202.3c0.8,135.5-16.7,259.9-16.9,261.2c-0.3,1.6-1.1,3.1-2.3,4.2
	C1866,1522.3,1864.4,1522.9,1862.7,1522.8z"/>
<path class="st0" d="M1862.7,1525.1c-0.4,0-0.9,0-1.3,0c-2.4-0.3-4.5-1.6-6-3.6c-1.4-1.9-2.1-4.4-1.7-6.7
	c0.2-1.2,17.6-124.5,16.7-259c-1.1-175.5-32.3-289.9-90.3-330.5c-36.9-25.9-86.4-22.6-147.1,9.7c-2.1,1.1-4.6,1.4-6.9,0.7
	c-1.7-0.5-3.2-1.6-4.4-3c-1.1-1.4-1.8-3.1-2-4.9c-0.2-1.8,0.2-3.6,1-5.2c0.8-1.6,2.1-2.9,3.7-3.7c67.3-35.8,123.1-38.7,166-8.6
	c35.7,25,62,73,78.2,142.7c12.8,54.6,19.4,122.8,19.9,202.8c0.8,135.5-16.8,260.3-16.9,261.5c-0.3,2.1-1.4,4.1-3.1,5.5
	C1867,1524.3,1864.9,1525.1,1862.7,1525.1z M1723.7,903.4c21.1-0.3,41.8,6,59,18.1c59.3,41.6,91.2,157.2,92.3,334.2
	c0.8,134.8-16.6,258.4-16.8,259.7c-0.2,1.2,0.2,2.4,0.9,3.3c0.7,0.9,1.8,1.6,3,1.7c1.2,0.2,2.4-0.1,3.3-0.8c1-0.7,1.6-1.8,1.8-2.9
	c0.2-1.2,17.7-125.6,16.9-260.9c-0.5-79.6-7.1-147.5-19.8-201.8c-15.9-68.5-41.6-115.6-76.3-140c-41.4-29.1-95.7-26.1-161.3,8.8
	c-0.5,0.3-1,0.7-1.4,1.1c-0.4,0.5-0.7,1-0.8,1.6c-0.2,0.6-0.2,1.2-0.2,1.8s0.2,1.2,0.5,1.7s0.7,1,1.1,1.4c0.5,0.4,1,0.7,1.6,0.8
	c0.6,0.2,1.2,0.2,1.8,0.2c0.6-0.1,1.2-0.2,1.7-0.5C1665.4,912.6,1696.4,903.4,1723.7,903.4L1723.7,903.4L1723.7,903.4z"/>
<path class="st1" d="M1915.5,1568.4h-195.1v-20.7c0-9.6,3.5-18.9,9.8-26.1s15-12,24.5-13.3l115.5-16.2c5.6-0.8,11.4-0.4,16.8,1.2
	s10.5,4.4,14.8,8.1s7.7,8.3,10.1,13.5s3.6,10.8,3.6,16.5L1915.5,1568.4L1915.5,1568.4z"/>
<path class="st0" d="M1915.5,1570.6h-195.1c-0.3,0-0.6-0.1-0.9-0.2s-0.5-0.3-0.7-0.5s-0.4-0.5-0.5-0.7c-0.1-0.3-0.2-0.6-0.2-0.9
	v-20.7c0-10.1,3.7-19.9,10.4-27.6c6.6-7.6,15.8-12.6,25.9-14.1l115.6-16.2c6-0.8,12-0.4,17.8,1.3c5.8,1.7,11.1,4.6,15.6,8.6
	c4.5,3.9,8.2,8.8,10.7,14.3s3.8,11.4,3.8,17.4v36.9c0,0.3-0.1,0.6-0.2,0.9s-0.3,0.5-0.5,0.7s-0.5,0.4-0.7,0.5
	C1916.1,1570.6,1915.8,1570.6,1915.5,1570.6z M1722.7,1566.1h190.6v-34.7c0-5.4-1.2-10.7-3.4-15.5c-2.2-4.9-5.5-9.2-9.5-12.7
	s-8.8-6.1-13.9-7.7c-5.1-1.5-10.5-1.9-15.9-1.2l-115.5,16.2c-8.9,1.3-17.1,5.7-23.1,12.6c-5.9,6.8-9.2,15.5-9.2,24.6L1722.7,1566.1z
	"/>
<path class="st1" d="M1804.7,1477.5l2,16.1l39.3-5.5l-4.4-18.5L1804.7,1477.5z"/>
<path class="st0" d="M1775.4,1507.6c-0.5,0-1-0.2-1.4-0.5c-0.2-0.2-0.4-0.4-0.6-0.7c-0.1-0.3-0.2-0.6-0.3-0.8l-1.8-13.7
	c-0.1-0.6,0.1-1.2,0.4-1.6c0.3-0.5,0.8-0.8,1.4-0.9l31.3-6.7c0.6-0.1,1.2,0,1.7,0.3s0.9,0.8,1,1.4l3.7,15.7c0.1,0.3,0.1,0.6,0,0.9
	s-0.2,0.6-0.4,0.9c-0.2,0.3-0.4,0.5-0.7,0.7c-0.3,0.2-0.6,0.3-0.9,0.3L1775.4,1507.6L1775.4,1507.6z M1776.2,1493.5l1.2,9.3l28.6-4
	l-2.7-11.1L1776.2,1493.5z"/>
<path class="st1" d="M1617.9,894.2l36.9,51.4l-89.8,178.5l-168.6-130.6L1617.9,894.2z"/>
<path class="st0" d="M1567.7,1124.1c-0.5,0-1-0.2-1.4-0.5l-168.6-128.3c-0.3-0.2-0.6-0.6-0.7-0.9c-0.2-0.4-0.2-0.8-0.2-1.2
	s0.2-0.8,0.4-1.1s0.6-0.6,0.9-0.7l221.4-97.5c0.5-0.2,1-0.3,1.5-0.1s0.9,0.4,1.2,0.9l36.9,50.4c0.3,0.3,0.4,0.7,0.4,1.2
	c0,0.4-0.1,0.8-0.2,1.2l-89.7,175.4c-0.2,0.3-0.4,0.6-0.6,0.8c-0.3,0.2-0.6,0.3-0.9,0.4C1568,1124.1,1567.9,1124.1,1567.7,1124.1z
	 M1403.6,994l163.4,124.3l87.9-171.7l-35-47.9L1403.6,994z"/>
<path class="st0" d="M1437.2,1130.8c-0.4,0-0.9-0.1-1.2-0.4c-0.4-0.2-0.7-0.6-0.8-1c-0.2-0.4-0.2-0.8-0.2-1.3
	c0.1-0.4,0.3-0.8,0.6-1.2l32.7-37.3c0.4-0.5,1-0.7,1.6-0.8c0.6,0,1.2,0.2,1.7,0.6s0.7,1,0.8,1.6c0,0.6-0.2,1.2-0.6,1.7l-32.7,37.4
	c-0.2,0.2-0.5,0.4-0.8,0.6C1437.9,1130.8,1437.5,1130.8,1437.2,1130.8z"/>
<path class="st0" d="M1394.3,1072.9c-0.5,0-1-0.2-1.4-0.5s-0.7-0.8-0.8-1.3c-0.1-0.5,0-1,0.2-1.5s0.6-0.8,1.1-1l45.6-19.3
	c0.6-0.2,1.2-0.3,1.8,0c0.6,0.2,1,0.7,1.3,1.2c0.2,0.6,0.2,1.2,0,1.8c-0.2,0.6-0.7,1-1.2,1.3l-45.6,19.2
	C1394.9,1072.8,1394.6,1072.9,1394.3,1072.9z"/>
<path class="st0" d="M1503.2,1158.9c-0.2,0-0.4,0-0.6,0c-0.6-0.2-1.1-0.6-1.4-1.1s-0.4-1.2-0.2-1.7l11.7-40.3
	c0.1-0.3,0.2-0.6,0.4-0.8c0.2-0.2,0.4-0.4,0.7-0.6c0.3-0.1,0.6-0.2,0.8-0.3c0.3,0,0.6,0,0.9,0.1s0.6,0.2,0.8,0.4s0.4,0.4,0.6,0.7
	c0.1,0.3,0.2,0.6,0.3,0.8c0,0.3,0,0.6-0.1,0.9l-11.7,40.3c-0.2,0.4-0.4,0.8-0.8,1.1C1504.2,1158.8,1503.7,1158.9,1503.2,1158.9z"/>
<path class="st0" d="M1774.9,1502.1l0.4,3.3l33.4-4.7l-1.3-5.5L1774.9,1502.1z"/>
<path class="st0" d="M1636.1,914.6l3.7-1.8l11.3,9.8l-7.5,3.5L1636.1,914.6z"/>
<path class="st1" d="M478.3,1425.9c21.4-16,31.5-38.6,22.7-50.5c-8.9-11.9-33.4-8.6-54.8,7.4s-31.5,38.6-22.7,50.5
	S456.9,1441.9,478.3,1425.9z"/>
<path class="st0" d="M440.8,1443.1c-8.6,0-15.3-2.8-19.4-8.2c-9.9-13.3,0.3-37.1,23.2-54.2c9.7-7.6,21.2-12.6,33.3-14.6
	c11.4-1.5,20.3,1.3,25.2,7.8c4.9,6.6,5,16,0.3,26.4c-5.6,10.9-13.7,20.5-23.5,27.8c-9.9,7.3-21.3,12.4-33.4,14.6
	C444.7,1442.9,442.7,1443.1,440.8,1443.1z M425.7,1431.6c3.7,4.9,10.8,7,20.2,5.7c11.2-2.2,21.7-6.8,30.9-13.6
	c9.1-6.8,16.6-15.6,21.8-25.7c3.9-8.6,4-16.1,0.3-21s-10.8-7-20.2-5.7c-11.3,1.9-21.9,6.6-30.9,13.6
	C428,1399.7,417.9,1421.1,425.7,1431.6z"/>
<path class="st1" d="M354.3,1373.3c7.5-11.2-2.7-31.1-22.8-44.5c-20.1-13.4-42.4-15.3-49.9-4.1c-7.5,11.2,2.7,31.1,22.8,44.5
	C324.5,1382.6,346.9,1384.5,354.3,1373.3z"/>
<path class="st0" d="M337.4,1383.2c-1.1,0-2.3,0-3.5-0.1c-11.1-1.3-21.7-5.3-30.9-11.7c-21.5-14.5-31.9-35.7-23.5-48.3
	c8.4-12.6,32-11.1,53.6,3.4s31.9,35.7,23.5,48.3C352.9,1380.3,346.2,1383.2,337.4,1383.2z M284,1326.1c-6.5,9.7,3.6,28.4,22.1,40.9
	c8.4,5.9,18.2,9.6,28.4,10.8c8.4,0.7,14.7-1.4,17.8-6c6.5-9.8-3.6-28.4-22.1-40.9C311.6,1318.4,290.5,1316.2,284,1326.1L284,1326.1z
	"/>
<path class="st1" d="M388.5,1473.7c35.8,0,64.8-46.7,64.8-104.4s-29-104.4-64.8-104.4s-64.8,46.7-64.8,104.4
	C323.7,1426.9,352.7,1473.7,388.5,1473.7z"/>
<path class="st0" d="M388.5,1476.4c-37.2,0-67.5-48.1-67.5-107.1s30.3-107.1,67.5-107.1s67.5,48,67.5,107.1
	C456,1428.3,425.7,1476.4,388.5,1476.4z M388.5,1267.6c-34.2,0-62.1,45.6-62.1,101.7s27.9,101.7,62.1,101.7s62.1-45.6,62.1-101.7
	S422.7,1267.6,388.5,1267.6L388.5,1267.6z"/>
<path class="st0" d="M360.1,1364.9c-0.4,0-0.7-0.1-1-0.2s-0.6-0.3-0.9-0.6l-13-13.2c-0.4-0.5-0.7-1.2-0.6-1.9c0-0.7,0.3-1.3,0.8-1.8
	s1.1-0.8,1.8-0.8c0.7,0,1.3,0.2,1.9,0.6l13,13.1c0.2,0.2,0.4,0.6,0.6,0.9c0.1,0.3,0.2,0.7,0.2,1c0,0.4-0.1,0.7-0.2,1
	s-0.3,0.6-0.6,0.9C361.5,1364.6,360.8,1364.9,360.1,1364.9z"/>
<path class="st0" d="M443.4,1365.2c-0.6,0-1.2-0.2-1.7-0.6s-0.8-0.9-1-1.5s-0.1-1.2,0.2-1.8c0.3-0.6,0.7-1,1.2-1.3l16.5-8.3
	c0.3-0.2,0.7-0.3,1-0.3c0.4-0.1,0.7,0,1.1,0.1s0.7,0.3,1,0.5s0.5,0.5,0.7,0.8s0.3,0.7,0.3,1.1s0,0.7-0.2,1.1
	c-0.1,0.3-0.3,0.7-0.6,0.9c-0.3,0.3-0.6,0.5-0.9,0.6l-16.5,8.3C444.3,1365.1,443.9,1365.2,443.4,1365.2z"/>
<path class="st0" d="M361.8,1292.4c-0.4,0-0.7-0.1-1-0.2s-0.6-0.3-0.9-0.6l-12.9-13.2c-0.3-0.2-0.5-0.5-0.6-0.9s-0.2-0.7-0.2-1.1
	s0.1-0.7,0.2-1.1c0.1-0.3,0.3-0.7,0.6-0.9c0.3-0.3,0.6-0.5,0.9-0.6s0.7-0.2,1.1-0.2s0.7,0.1,1.1,0.3c0.3,0.2,0.6,0.4,0.9,0.7
	l13,13.2c0.4,0.4,0.6,0.9,0.7,1.4s0,1.1-0.2,1.6s-0.6,0.9-1,1.2C362.9,1292.2,362.4,1292.4,361.8,1292.4L361.8,1292.4L361.8,1292.4z
	"/>
<path class="st0" d="M385.2,1272.7c-0.4,0-0.7-0.1-1-0.2s-0.6-0.3-0.9-0.6c-0.2-0.3-0.4-0.6-0.6-0.9c-0.1-0.3-0.2-0.7-0.2-1
	l0.2-18.5c0-0.7,0.3-1.4,0.8-1.9s1.2-0.8,1.9-0.8c0.7,0,1.4,0.3,1.9,0.8s0.8,1.2,0.8,1.9l-0.2,18.5c0,0.4-0.1,0.7-0.2,1.1
	c-0.1,0.3-0.3,0.6-0.6,0.9c-0.3,0.2-0.6,0.4-0.9,0.6C385.9,1272.6,385.6,1272.7,385.2,1272.7z"/>
<path class="st0" d="M332.8,1407.7c-0.3,0-0.6-0.1-0.9-0.2l-17.2-6.5c-0.3-0.1-0.6-0.3-0.9-0.6c-0.3-0.2-0.5-0.5-0.6-0.9
	c-0.3-0.7-0.3-1.4-0.1-2.1c0.3-0.7,0.8-1.2,1.4-1.5s1.4-0.3,2.1-0.1l17.2,6.5c0.6,0.2,1.1,0.6,1.4,1.2s0.4,1.2,0.3,1.8
	c-0.1,0.6-0.4,1.2-0.9,1.6C334.1,1407.4,333.5,1407.7,332.8,1407.7z"/>
<path class="st0" d="M304.1,1329.4c-0.5,0-1-0.2-1.5-0.4c-0.4-0.3-0.8-0.7-1-1.2l-7.3-17c-0.1-0.3-0.2-0.7-0.2-1
	c0-0.4,0.1-0.7,0.2-1s0.3-0.6,0.6-0.9s0.5-0.4,0.9-0.6c0.7-0.3,1.4-0.3,2.1,0s1.2,0.8,1.5,1.4l7.3,17c0.1,0.3,0.2,0.7,0.2,1
	c0,0.4-0.1,0.7-0.2,1s-0.3,0.6-0.6,0.9c-0.2,0.3-0.5,0.5-0.9,0.6C304.8,1329.3,304.5,1329.4,304.1,1329.4z"/>
<path class="st0" d="M295.2,1377.3c-0.6,0-1.3-0.2-1.8-0.7c-0.5-0.4-0.8-1-0.9-1.7c-0.1-0.6,0-1.3,0.4-1.8c0.4-0.6,0.9-0.9,1.5-1.1
	l17.7-5.3c0.3-0.1,0.7-0.2,1.1-0.2s0.7,0.1,1,0.3c0.3,0.2,0.6,0.4,0.9,0.7c0.2,0.3,0.4,0.6,0.5,0.9s0.1,0.7,0.1,1.1s-0.2,0.7-0.3,1
	c-0.2,0.3-0.4,0.6-0.7,0.8c-0.3,0.2-0.6,0.4-1,0.5l-17.7,5.4C295.7,1377.3,295.4,1377.3,295.2,1377.3z"/>
<path class="st0" d="M509.5,1409.6h-0.3l-18.4-2c-0.4,0-0.7-0.1-1.1-0.3s-0.6-0.4-0.9-0.7s-0.4-0.6-0.5-0.9
	c-0.1-0.4-0.1-0.7-0.1-1.1s0.2-0.7,0.3-1c0.2-0.3,0.4-0.6,0.7-0.8c0.3-0.2,0.6-0.4,1-0.5s0.7-0.1,1.1,0l18.4,1.9
	c0.7,0,1.4,0.3,1.9,0.9c0.5,0.5,0.7,1.2,0.7,1.9c0,0.7-0.4,1.4-0.9,1.9S510.2,1409.7,509.5,1409.6L509.5,1409.6L509.5,1409.6z"/>
<path class="st0" d="M470.4,1378.8c-0.4,0-0.8-0.1-1.2-0.3c-0.4-0.2-0.7-0.5-0.9-0.8c-0.2-0.3-0.4-0.7-0.5-1.1s-0.1-0.8,0.1-1.2
	l5.4-17.7c0.1-0.3,0.3-0.7,0.5-0.9c0.2-0.3,0.5-0.5,0.8-0.7s0.7-0.3,1-0.3s0.7,0,1,0.1s0.7,0.3,0.9,0.5c0.3,0.2,0.5,0.5,0.7,0.8
	s0.3,0.7,0.3,1c0,0.4,0,0.7-0.1,1.1L473,1377c-0.2,0.6-0.5,1-1,1.4C471.5,1378.6,470.9,1378.8,470.4,1378.8z"/>
<path class="st0" d="M494.1,1382.2c-0.6,0-1.2-0.2-1.6-0.5c-0.5-0.3-0.8-0.8-1-1.4s-0.1-1.2,0.1-1.7s0.6-1,1.1-1.3l15.8-9.7
	c0.3-0.2,0.6-0.3,1-0.4c0.3-0.1,0.7,0,1,0c0.3,0.1,0.7,0.2,1,0.4c0.3,0.2,0.5,0.5,0.7,0.8s0.3,0.6,0.4,1c0.1,0.3,0,0.7,0,1.1
	c-0.1,0.3-0.2,0.7-0.4,1s-0.5,0.5-0.8,0.7l-15.8,9.7C495.1,1382,494.6,1382.2,494.1,1382.2z"/>
<path class="st0" d="M393.1,1401.1c-0.6,0-1.2-0.2-1.6-0.6c-0.5-0.3-0.8-0.8-1-1.4s-0.1-1.2,0.1-1.7c0.2-0.6,0.6-1,1.1-1.3l15.8-9.7
	c0.6-0.3,1.3-0.4,2-0.2c0.7,0.2,1.2,0.6,1.6,1.2s0.5,1.3,0.3,2c-0.1,0.7-0.5,1.3-1.1,1.7l-15.8,9.7
	C394.1,1401,393.6,1401.1,393.1,1401.1z"/>
<path class="st0" d="M334,1451.5c-0.5,0-0.9-0.1-1.3-0.3c-0.4-0.2-0.7-0.6-1-0.9c-0.4-0.6-0.5-1.3-0.3-2s0.6-1.3,1.2-1.7l15.8-9.7
	c0.3-0.2,0.6-0.4,1-0.4c0.4-0.1,0.7-0.1,1.1,0s0.7,0.2,1,0.4s0.6,0.5,0.7,0.8c0.2,0.3,0.3,0.7,0.4,1c0.1,0.4,0,0.7-0.1,1.1
	c-0.1,0.3-0.3,0.7-0.5,1s-0.5,0.5-0.8,0.7l-15.8,9.7C335,1451.4,334.5,1451.5,334,1451.5z"/>
<path class="st0" d="M407.1,1441.9c-0.5,0-0.9-0.1-1.3-0.3c-0.4-0.2-0.7-0.6-1-0.9c-0.2-0.3-0.3-0.6-0.4-1c-0.1-0.3,0-0.7,0-1.1
	c0.1-0.3,0.2-0.7,0.4-1c0.2-0.3,0.5-0.5,0.8-0.7l15.8-9.7c0.3-0.2,0.6-0.3,1-0.4s0.7-0.1,1.1,0s0.7,0.2,1,0.4
	c0.3,0.2,0.6,0.5,0.7,0.8s0.3,0.7,0.4,1c0.1,0.4,0,0.7-0.1,1.1s-0.3,0.7-0.5,1s-0.5,0.5-0.8,0.7l-15.8,9.7
	C408.1,1441.7,407.6,1441.9,407.1,1441.9z"/>
<path class="st0" d="M377.3,1435.2c-0.7,0-1.4-0.3-1.9-0.8l-12.9-13.3c-0.5-0.5-0.7-1.2-0.7-1.9c0-0.7,0.3-1.3,0.8-1.8
	s1.2-0.8,1.8-0.8c0.7,0,1.4,0.2,1.9,0.7l12.9,13.3c0.4,0.4,0.6,0.9,0.7,1.4s0,1.1-0.2,1.5c-0.2,0.5-0.6,0.9-1,1.2
	C378.3,1435,377.8,1435.2,377.3,1435.2z"/>
<path class="st0" d="M377.3,1327.6c-0.4,0-0.8-0.1-1.2-0.3c-0.4-0.2-0.7-0.5-0.9-0.8l-11-14.9c-0.3-0.3-0.4-0.6-0.6-1
	c-0.1-0.3-0.2-0.7-0.1-1.1c0-0.4,0.2-0.7,0.3-1.1c0.2-0.3,0.4-0.6,0.7-0.8s0.6-0.4,1-0.5s0.7-0.1,1.1,0s0.7,0.2,1,0.4
	c0.3,0.2,0.6,0.5,0.8,0.8l11,14.9c0.3,0.4,0.5,0.9,0.5,1.4s0,1-0.3,1.4c-0.2,0.4-0.6,0.8-1,1.1
	C378.3,1327.5,377.8,1327.6,377.3,1327.6L377.3,1327.6L377.3,1327.6z"/>
<path class="st1" d="M432.8,1568.6h-86l-5-104.1h95.9L432.8,1568.6z"/>
<path class="st0" d="M432.8,1571.3h-86.1c-0.7,0-1.4-0.3-1.9-0.7s-0.8-1.1-0.8-1.8l-4.9-104.1c0-0.4,0-0.7,0.2-1.1
	c0.1-0.3,0.3-0.7,0.6-0.9c0.3-0.3,0.6-0.5,0.9-0.6s0.7-0.2,1.1-0.2h95.9c0.4,0,0.7,0.1,1.1,0.2c0.3,0.1,0.6,0.3,0.9,0.6
	c0.3,0.3,0.5,0.6,0.6,0.9s0.2,0.7,0.2,1.1l-5,104.1c0,0.7-0.3,1.3-0.8,1.8C434.2,1571,433.5,1571.3,432.8,1571.3z M349.3,1565.9
	h80.9l4.8-98.8h-90.3L349.3,1565.9z"/>
<path class="st1" d="M434.3,1464.5h-91.5c-7.3,0-13.3,5.9-13.3,13.3l0,0c0,7.3,5.9,13.3,13.3,13.3h91.5c7.3,0,13.3-5.9,13.3-13.3
	l0,0C447.5,1470.4,441.6,1464.5,434.3,1464.5z"/>
<path class="st0" d="M434.3,1493.8h-91.4c-4.2,0-8.3-1.7-11.3-4.7s-4.7-7.1-4.7-11.3c0-4.2,1.7-8.3,4.7-11.3s7.1-4.7,11.3-4.7h91.5
	c4.2,0,8.3,1.7,11.3,4.7s4.7,7.1,4.7,11.3c0,4.2-1.7,8.3-4.7,11.3s-7.1,4.7-11.3,4.7H434.3z M342.8,1467.2c-2.8,0-5.5,1.1-7.5,3.1
	s-3.1,4.7-3.1,7.5s1.1,5.5,3.1,7.5s4.7,3.1,7.5,3.1h91.5c2.8,0,5.5-1.1,7.5-3.1s3.1-4.7,3.1-7.5s-1.1-5.5-3.1-7.5s-4.7-3.1-7.5-3.1
	H342.8z"/>
<path class="st0" d="M421,1296c-0.5,0-1-0.1-1.4-0.4c-0.4-0.2-0.8-0.6-1-1s-0.3-0.9-0.3-1.4s0.2-0.9,0.4-1.4l9.7-14.7
	c0.2-0.3,0.4-0.6,0.7-0.8c0.3-0.2,0.6-0.4,1-0.4c0.4-0.1,0.7-0.1,1.1,0s0.7,0.2,1,0.4c0.3,0.2,0.6,0.5,0.8,0.8
	c0.2,0.3,0.3,0.7,0.4,1c0.1,0.4,0.1,0.7,0,1.1s-0.2,0.7-0.5,1l-9.7,14.7c-0.2,0.4-0.6,0.7-1,0.9C421.9,1295.8,421.4,1296,421,1296z"
	/>
<path class="st0" d="M415,1345.4c-0.6,0-1.3-0.2-1.8-0.7s-0.9-1.1-0.9-1.8c0-0.7,0.2-1.4,0.7-2l10.8-12.3c0.2-0.3,0.5-0.5,0.8-0.6
	c0.3-0.2,0.7-0.2,1-0.3c0.4,0,0.7,0,1,0.1s0.6,0.3,0.9,0.5s0.5,0.5,0.6,0.8c0.2,0.3,0.2,0.7,0.3,1s0,0.7-0.1,1s-0.3,0.7-0.5,0.9
	l-10.8,12.4c-0.2,0.3-0.6,0.5-0.9,0.7C415.8,1345.4,415.4,1345.4,415,1345.4z"/>
<path class="st0" d="M436.6,1317.4c-0.6,0-1.3-0.2-1.8-0.7s-0.9-1.1-0.9-1.8c-0.1-0.7,0.2-1.4,0.6-1.9l11-12.7
	c0.5-0.5,1.1-0.9,1.8-0.9c0.7-0.1,1.4,0.2,2,0.7s0.9,1.1,0.9,1.8c0.1,0.7-0.2,1.4-0.7,2l-11,12.6c-0.2,0.3-0.6,0.6-0.9,0.7
	C437.4,1317.4,437,1317.4,436.6,1317.4z"/>
<path class="st0" d="M342.7,1491.1h93.8l-0.5,8.5h-92.4L342.7,1491.1z"/>
</svg>
