<?xml version="1.0" encoding="utf-8"?>
<!-- Generator: Adobe Illustrator 26.3.1, SVG Export Plug-In . SVG Version: 6.00 Build 0)  -->
<svg version="1.1" id="Layer_1" xmlns="http://www.w3.org/2000/svg" xmlns:xlink="http://www.w3.org/1999/xlink" x="0px" y="0px"
	 viewBox="0 0 215 64.6" style="enable-background:new 0 0 215 64.6;" xml:space="preserve">
<style type="text/css">
	.st0{fill:#1031A3;}
</style>
<g>
	<path class="st0" d="M49.6,57.1c0.1-0.6-0.2-1.1-0.9-1.4l-1.5-0.6c-1.7-0.8-2.5-1.8-2.4-3.1c0-0.6,0.2-1.2,0.6-1.6
		c0.4-0.5,1-0.9,1.6-1.1c0.7-0.3,1.4-0.4,2.2-0.4c1,0,1.9,0.3,2.6,1c0.7,0.6,1,1.5,1,2.5h-2.2c0.1-0.4-0.1-0.8-0.3-1.2
		c-0.3-0.3-0.7-0.4-1.1-0.4c-0.5,0-0.9,0.1-1.3,0.3c-0.4,0.2-0.6,0.6-0.7,1c-0.1,0.6,0.3,1,1.1,1.3l1,0.4l0.6,0.3
		c1.6,0.5,2.5,2.3,1.9,3.9c-0.1,0.3-0.3,0.6-0.5,0.9c-0.4,0.5-0.9,0.9-1.5,1.1c-0.7,0.3-1.4,0.4-2.1,0.4c-0.7,0-1.4-0.2-2.1-0.5
		c-0.6-0.3-1.1-0.7-1.4-1.3c-0.3-0.6-0.4-1.2-0.4-1.8h2.2c-0.1,1.2,0.5,1.8,1.8,1.8c0.4,0,0.9-0.1,1.2-0.4
		C49.3,57.8,49.5,57.5,49.6,57.1z"/>
	<path class="st0" d="M57.4,51.7c0.7,0,1.3,0.2,1.9,0.6c0.5,0.4,0.9,0.9,1.1,1.5c0.3,0.7,0.4,1.4,0.3,2.1c0,1.2-0.5,2.3-1.3,3.2
		c-0.8,0.8-1.8,1.2-2.9,1.2c-1.3,0-2.5-0.8-3-2c-0.2-0.7-0.3-1.4-0.3-2.1c0.1-1.2,0.6-2.4,1.4-3.2C55.2,52.1,56.3,51.6,57.4,51.7z
		 M55.2,56.8c0,0.4,0.1,0.8,0.3,1.1c0.2,0.3,0.6,0.5,0.9,0.4c0.7,0,1.3-0.3,1.6-0.9c0.4-0.8,0.6-1.6,0.5-2.5c0-0.4-0.1-0.8-0.4-1.2
		c-0.2-0.3-0.6-0.5-0.9-0.5c-0.6,0-1.2,0.3-1.5,0.9C55.3,55.1,55.1,56,55.2,56.8L55.2,56.8z"/>
	<path class="st0" d="M61.9,60l1.1-6.6h-1.1l0.3-1.6h1.2l0.1-0.8c0.2-1.7,1.6-2.9,3.3-2.8c0.4,0,0.8,0.1,1.2,0.2l-0.2,1.7
		C67.5,50,67.3,50,67,50c-0.3,0-0.7,0.1-1,0.3c-0.3,0.2-0.5,0.5-0.5,0.9l-0.1,0.7H67l-0.3,1.6h-1.6L64.1,60H61.9z"/>
	<path class="st0" d="M71.1,49.8l-0.4,2h1.4l-0.3,1.6h-1.4l-0.7,4.1c-0.1,0.2-0.1,0.4,0,0.6c0.1,0.1,0.2,0.2,0.5,0.2
		c0.2,0,0.4,0,0.6,0L70.9,60c-0.4,0.1-0.8,0.2-1.2,0.2c-0.6,0-1.2-0.2-1.6-0.7c-0.4-0.5-0.6-1.1-0.5-1.8l0.7-4.3h-1.1l0.3-1.6h1.2
		l0.4-2H71.1z"/>
	<path class="st0" d="M79.4,57.1l2-5.2h2.1L80,60h-1.8l-0.6-5.1L75.2,60h-1.8l-0.6-8.2h2l0.1,5.2l2.4-5.2h1.5L79.4,57.1z"/>
	<path class="st0" d="M87.9,60c-0.1-0.2-0.1-0.5-0.1-0.7c-0.5,0.6-1.3,0.9-2.1,0.9c-0.7,0-1.3-0.2-1.8-0.7c-0.5-0.4-0.7-1.1-0.7-1.7
		c0-0.8,0.4-1.6,1.1-2.1c0.9-0.5,1.9-0.8,2.9-0.7h1l0.1-0.5c0-0.2,0-0.3,0-0.5c0-0.2-0.1-0.4-0.3-0.6c-0.2-0.1-0.4-0.2-0.6-0.2
		c-0.3,0-0.6,0.1-0.9,0.3c-0.2,0.2-0.4,0.5-0.4,0.7H84c0-0.8,0.4-1.5,1.1-1.9c0.7-0.5,1.6-0.8,2.5-0.7c0.8,0,1.6,0.3,2.2,0.8
		c0.5,0.5,0.8,1.3,0.7,2.1l-0.6,3.9V59c0,0.3,0,0.6,0.1,0.9V60L87.9,60z M86.2,58.5c0.6,0,1.2-0.3,1.6-0.8l0.3-1.4h-0.7
		c-0.6,0-1.3,0.2-1.7,0.7c-0.1,0.2-0.2,0.4-0.2,0.6c-0.1,0.2,0,0.5,0.2,0.6C85.8,58.5,86,58.5,86.2,58.5z"/>
	<path class="st0" d="M96.9,53.9c-0.2,0-0.5-0.1-0.7-0.1c-0.7,0-1.4,0.3-1.8,0.9L93.4,60h-2.2l1.4-8.2h2l-0.2,1
		c0.4-0.7,1.1-1.1,1.9-1.2c0.2,0,0.5,0,0.7,0.1L96.9,53.9z"/>
	<path class="st0" d="M100.6,60.2c-0.7,0-1.3-0.2-1.9-0.5c-0.5-0.3-1-0.8-1.2-1.4c-0.3-0.6-0.4-1.3-0.3-2v-0.3
		c0.1-0.8,0.3-1.5,0.7-2.2c0.4-0.6,0.9-1.2,1.5-1.5c0.6-0.4,1.3-0.5,2-0.5c0.9,0,1.8,0.4,2.4,1.2c0.6,0.8,0.8,1.9,0.6,2.9l-0.1,0.9
		h-5c0,0.5,0.1,0.9,0.4,1.3c0.3,0.3,0.7,0.5,1.1,0.5c0.8,0,1.5-0.3,2-0.9l1,1.2c-0.3,0.5-0.8,0.9-1.3,1.1
		C101.9,60.1,101.3,60.2,100.6,60.2z M101.3,53.4c-0.4,0-0.8,0.1-1.1,0.4c-0.4,0.4-0.7,0.8-0.8,1.3h2.9V55c0-0.2,0-0.4,0-0.6
		c0-0.3-0.2-0.5-0.4-0.7C101.8,53.5,101.6,53.5,101.3,53.4L101.3,53.4z"/>
	<path class="st0" d="M116.7,56c-0.1,0.8-0.3,1.6-0.7,2.3c-0.3,0.6-0.7,1.1-1.3,1.5c-0.5,0.3-1.1,0.5-1.7,0.5
		c-0.7,0-1.4-0.3-1.9-0.9l-0.7,3.9h-2.2l2-11.4h2l-0.1,0.8c0.5-0.6,1.3-1,2.1-1c0.7,0,1.4,0.3,1.9,0.9c0.5,0.7,0.7,1.5,0.7,2.3
		C116.7,55.2,116.7,55.6,116.7,56z M114.6,55.8v-0.7c0-0.4-0.1-0.8-0.3-1.2c-0.2-0.3-0.5-0.5-0.8-0.5c-0.6,0-1.2,0.3-1.5,0.8
		l-0.6,3.4c0.2,0.5,0.7,0.8,1.2,0.8c0.5,0,1-0.2,1.3-0.6C114.2,57.2,114.5,56.5,114.6,55.8z"/>
	<path class="st0" d="M122.1,60c-0.1-0.2-0.1-0.5-0.1-0.7c-0.5,0.6-1.3,0.9-2.1,0.9c-0.7,0-1.3-0.2-1.8-0.7
		c-0.5-0.4-0.7-1.1-0.7-1.7c0-0.8,0.4-1.6,1.1-2.1c0.9-0.5,1.9-0.8,2.9-0.7h1l0.1-0.5c0-0.2,0-0.3,0-0.5c0-0.2-0.1-0.4-0.3-0.6
		c-0.2-0.1-0.4-0.2-0.6-0.2c-0.3,0-0.6,0.1-0.8,0.3c-0.2,0.2-0.4,0.5-0.5,0.7h-2.1c0.1-0.8,0.5-1.4,1.1-1.8c0.7-0.5,1.6-0.8,2.5-0.7
		c0.8,0,1.6,0.3,2.2,0.8c0.5,0.5,0.8,1.3,0.7,2.1l-0.6,3.9V59c0,0.3,0,0.6,0.1,0.9v0.1L122.1,60z M120.5,58.5c0.6,0,1.2-0.3,1.6-0.8
		l0.3-1.4h-0.7c-0.7-0.1-1.3,0.2-1.7,0.7c-0.1,0.2-0.2,0.4-0.2,0.6c0,0.2,0,0.5,0.2,0.6C120,58.5,120.2,58.5,120.5,58.5z"/>
	<path class="st0" d="M131.2,53.9c-0.2,0-0.5-0.1-0.7-0.1c-0.7,0-1.4,0.3-1.8,0.9l-0.9,5.4h-2.2l1.4-8.2h2l-0.2,1
		c0.4-0.7,1.1-1.1,1.9-1.2c0.3,0,0.5,0,0.7,0.1L131.2,53.9z"/>
	<path class="st0" d="M135.6,60c-0.1-0.2-0.1-0.5-0.1-0.7c-0.5,0.6-1.3,0.9-2.1,0.9c-0.7,0-1.3-0.2-1.8-0.7
		c-0.5-0.4-0.7-1.1-0.7-1.7c0-0.8,0.4-1.6,1.1-2.1C133,55.2,134,55,135,55h1l0.1-0.5c0-0.2,0-0.3,0-0.5c0-0.2-0.1-0.4-0.2-0.5
		c-0.2-0.1-0.4-0.2-0.6-0.2c-0.3,0-0.6,0.1-0.9,0.3c-0.2,0.2-0.4,0.5-0.4,0.7h-2.2c0-0.8,0.4-1.5,1.1-1.9c0.7-0.5,1.6-0.8,2.5-0.7
		c0.8,0,1.6,0.3,2.2,0.8c0.5,0.5,0.8,1.3,0.7,2.1l-0.6,3.9V59c0,0.3,0,0.6,0.1,0.9v0.1L135.6,60z M134,58.5c0.6,0,1.2-0.3,1.6-0.8
		l0.3-1.4h-0.7c-0.7,0-1.3,0.2-1.7,0.7c-0.1,0.2-0.2,0.4-0.2,0.6c0,0.2,0,0.5,0.2,0.6C133.5,58.5,133.8,58.5,134,58.5L134,58.5z"/>
	<path class="st0" d="M146.8,60.2c-0.7,0-1.3-0.2-1.9-0.5c-0.5-0.3-1-0.8-1.2-1.4c-0.3-0.6-0.4-1.3-0.3-2v-0.3
		c0.1-0.8,0.3-1.5,0.7-2.2c0.4-0.6,0.9-1.2,1.5-1.5c0.6-0.4,1.3-0.5,2-0.5c0.9,0,1.8,0.4,2.4,1.2c0.6,0.8,0.8,1.9,0.6,2.9l-0.1,0.9
		h-5c0,0.5,0.1,0.9,0.4,1.3c0.3,0.3,0.7,0.5,1.1,0.5c0.8,0,1.5-0.3,2-0.9l1,1.2c-0.3,0.5-0.8,0.9-1.3,1.1
		C148,60.1,147.4,60.2,146.8,60.2z M147.5,53.4c-0.4,0-0.8,0.1-1,0.4c-0.4,0.4-0.7,0.8-0.8,1.3h3V55c0-0.2,0-0.4,0-0.6
		c0-0.3-0.2-0.5-0.4-0.7C148,53.5,147.7,53.5,147.5,53.4z"/>
	<path class="st0" d="M154.6,51.8l-0.2,0.9c0.6-0.7,1.5-1.1,2.4-1.1c0.4,0,0.9,0.1,1.3,0.4c0.3,0.2,0.6,0.5,0.7,0.9
		c0.6-0.8,1.6-1.3,2.6-1.3c0.7,0,1.3,0.3,1.7,0.8c0.4,0.7,0.6,1.4,0.5,2.2v0.2l-0.9,5.2h-2.2l0.9-5.3c0-0.2,0-0.3,0-0.5
		c0-0.4-0.3-0.8-0.8-0.8c0,0-0.1,0-0.1,0c-0.6,0-1.2,0.4-1.5,0.9v0.2l-1,5.5h-2.2l0.9-5.2c0-0.2,0-0.4,0-0.5c0-0.5-0.4-0.8-0.8-0.8
		c0,0-0.1,0-0.1,0c-0.6,0-1.1,0.3-1.5,0.8l-1,5.8H151l1.4-8.2L154.6,51.8z"/>
	<path class="st0" d="M172.2,56c-0.1,0.8-0.3,1.6-0.7,2.3c-0.3,0.6-0.7,1.1-1.3,1.5c-0.5,0.3-1.1,0.5-1.7,0.5
		c-0.7,0-1.4-0.3-1.9-0.9l-0.8,3.9h-2.2l2-11.4h2l-0.1,0.8c0.5-0.6,1.3-1,2.1-1c0.7,0,1.4,0.3,1.9,0.9c0.5,0.7,0.7,1.5,0.7,2.3
		C172.2,55.2,172.2,55.6,172.2,56z M170,55.8v-0.7c0-0.4-0.1-0.8-0.3-1.2c-0.2-0.3-0.5-0.5-0.8-0.5c-0.6,0-1.2,0.3-1.5,0.8l-0.6,3.4
		c0.2,0.5,0.7,0.8,1.2,0.8c0.5,0,1-0.2,1.3-0.6C169.7,57.2,169.9,56.5,170,55.8z"/>
	<path class="st0" d="M178.5,53.9c-0.2,0-0.5-0.1-0.7-0.1c-0.7,0-1.4,0.3-1.8,0.9l-1,5.4h-2.1l1.4-8.2h2l-0.2,1
		c0.4-0.7,1.1-1.1,1.9-1.2c0.3,0,0.5,0,0.7,0.1L178.5,53.9z"/>
	<path class="st0" d="M182.2,60.2c-0.7,0-1.3-0.2-1.9-0.5c-0.5-0.3-1-0.8-1.2-1.4c-0.3-0.6-0.4-1.3-0.3-2v-0.3
		c0.1-0.8,0.3-1.5,0.7-2.2c0.4-0.6,0.9-1.2,1.5-1.5c0.6-0.4,1.3-0.5,2-0.5c1,0,1.9,0.4,2.5,1.2c0.6,0.8,0.8,1.9,0.6,2.9l-0.1,0.9h-5
		c0,0.5,0.1,0.9,0.4,1.3c0.3,0.3,0.7,0.5,1.1,0.5c0.8,0,1.5-0.3,2-0.9l1,1.2c-0.3,0.5-0.8,0.9-1.3,1.1
		C183.5,60.1,182.8,60.2,182.2,60.2z M182.9,53.4c-0.4,0-0.8,0.1-1.1,0.4c-0.4,0.4-0.7,0.8-0.8,1.3h3V55c0-0.2,0-0.4,0-0.6
		c0-0.3-0.2-0.5-0.4-0.7C183.3,53.6,183.1,53.5,182.9,53.4z"/>
	<path class="st0" d="M191.3,57.7c0.1-0.4-0.2-0.7-0.8-0.9l-0.7-0.2c-1.6-0.5-2.4-1.2-2.4-2.4c0-0.7,0.4-1.4,1-1.9
		c0.7-0.5,1.5-0.8,2.4-0.7c0.8,0,1.6,0.2,2.2,0.7c0.6,0.5,0.9,1.2,0.9,1.9h-2.1c0.1-0.5-0.2-1-0.7-1.1c-0.1,0-0.2,0-0.4,0
		c-0.3,0-0.6,0.1-0.8,0.3c-0.2,0.2-0.4,0.4-0.5,0.7c-0.1,0.4,0.2,0.7,0.9,0.9l0.3,0.1c0.6,0.1,1.1,0.3,1.6,0.6
		c0.3,0.2,0.6,0.5,0.8,0.8c0.2,0.3,0.3,0.7,0.3,1.1c0,0.5-0.2,1-0.5,1.4c-0.4,0.4-0.8,0.7-1.3,0.9c-0.6,0.2-1.2,0.3-1.8,0.3
		c-0.8,0-1.6-0.3-2.3-0.8c-0.6-0.5-0.9-1.2-0.9-2h2c-0.1,0.6,0.3,1.2,0.9,1.2c0.1,0,0.2,0,0.3,0c0.3,0,0.7-0.1,1-0.2
		C191,58.2,191.2,58,191.3,57.7z"/>
	<path class="st0" d="M199.1,60c-0.1-0.2-0.1-0.5-0.1-0.7c-0.5,0.6-1.3,0.9-2.1,0.9c-0.7,0-1.3-0.2-1.8-0.7
		c-0.5-0.4-0.7-1.1-0.7-1.7c0-0.8,0.4-1.6,1.1-2.1c0.9-0.5,1.9-0.8,2.9-0.7h1l0.1-0.5c0-0.2,0-0.3,0-0.5c0-0.2-0.1-0.4-0.3-0.6
		c-0.2-0.1-0.4-0.2-0.6-0.2c-0.3,0-0.6,0.1-0.8,0.3c-0.2,0.2-0.4,0.5-0.5,0.7h-2c0-0.8,0.4-1.5,1.1-1.9c0.7-0.5,1.6-0.8,2.5-0.7
		c0.8,0,1.6,0.3,2.2,0.8c0.5,0.5,0.8,1.3,0.7,2.1l-0.6,3.9V59c0,0.3,0,0.6,0.1,0.9V60L199.1,60z M197.4,58.5c0.6,0,1.2-0.3,1.6-0.8
		l0.3-1.4h-0.7c-0.7-0.1-1.3,0.2-1.7,0.7c-0.1,0.2-0.2,0.4-0.2,0.6c0,0.2,0,0.5,0.2,0.6C197,58.4,197.2,58.5,197.4,58.5z"/>
	<path class="st0" d="M207.3,57.7c0.1-0.4-0.2-0.7-0.8-0.9l-0.7-0.2c-1.6-0.5-2.4-1.2-2.4-2.4c0-0.8,0.4-1.5,1-1.9
		c0.7-0.5,1.5-0.8,2.4-0.7c0.8,0,1.6,0.2,2.2,0.7c0.6,0.5,0.9,1.2,0.9,1.9h-2.1c0.1-0.5-0.2-1-0.7-1.1c-0.1,0-0.3,0-0.4,0
		c-0.3,0-0.6,0.1-0.9,0.3c-0.2,0.2-0.4,0.4-0.5,0.7c-0.1,0.4,0.2,0.7,0.9,0.9l0.3,0.1c0.6,0.1,1.1,0.3,1.6,0.6
		c0.3,0.2,0.6,0.5,0.8,0.8c0.2,0.3,0.3,0.7,0.3,1.1c0,0.5-0.2,1-0.5,1.4c-0.4,0.4-0.8,0.7-1.3,0.9c-0.6,0.2-1.2,0.3-1.8,0.3
		c-0.8,0-1.6-0.3-2.3-0.8c-0.6-0.5-0.9-1.2-0.9-2h2c-0.1,0.6,0.4,1.1,1,1.2c0.1,0,0.2,0,0.3,0c0.3,0,0.7-0.1,1-0.2
		C207,58.2,207.2,58,207.3,57.7z"/>
	<path class="st0" d="M94,9.1c0,0.1,0,0.2-0.1,0.3c-1.3,3.6-4.3,6.1-7.3,6.4l-0.9,3.5H90l-6.3,22.8h11l8.9-33L94,9.1z"/>
	<path class="st0" d="M121.2,35.2c-4.2,0-7.4-1-8.8-2.6c-0.9-1.2-1.3-2.7-1-4.2h29.4l0.3-0.8l0.1-0.2c0.4-0.8,0.7-1.6,0.9-2.5
		c0.5-2,1.4-7.3-2.3-11.5c-2.8-3.3-7.4-5-13.7-5c-12.3,0-22.7,7-25.3,17c-1.5,5.7,0.4,9.5,2.3,11.7c3.3,3.8,9,5.9,16.7,5.9
		c5.1,0.1,10.1-0.6,15-2l1-0.3l-0.1-1.1l-0.3-3.9l-0.2-2.6l-2.4,0.7C129.2,34.8,125.2,35.3,121.2,35.2 M125.5,15.7
		c2.8,0,4.8,0.6,5.7,1.7c0.7,1.1,1,2.4,0.7,3.6h-17.6C117,17.6,121.1,15.7,125.5,15.7 M74,8.4c-9.2,0-16.7,4-18.2,9.7
		c-0.5,1.8-0.1,3.8,0.9,5.3c1.6,2.4,4.8,4.2,9.7,5.5c3.8,1.1,4.6,1.8,4.8,2.1c0.1,0.3,0.1,0.6,0,0.9c-0.4,1.6-2.8,3.5-8,3.5
		c-3,0-5.9-0.7-8.6-1.9l-1.4-0.7l-0.7,1l-3,4.1l-1.2,1.7l2.3,1.1c3.8,1.6,8,2.4,12.1,2.3c10.4,0,17.9-3.8,19.5-9.9
		c0.6-2,0.3-4.2-0.8-5.9c-1.6-2.3-4.6-4.1-9.5-5.5c-4.1-1.2-5-1.8-5.1-2.1c0-0.2,0-0.4,0-0.5c0.4-1.5,2.9-3.1,6.8-3.1
		c2.5-0.1,5,0.4,7.4,1.5l1.3,0.7l0.7-1l3-3.9l1.2-1.7l-2.3-1.1C81.3,9,77.7,8.3,74,8.4 M211.8,12.8c-2.6-3-6.9-4.4-13.3-4.4
		c-5.2,0-10.3,0.9-15.1,2.8l-1,0.4l0.3,1.2l0.8,3.6l0.6,2.5l2.2-0.9c3.5-1.4,7.2-2.1,11-2.1c3.9,0,5.1,0.9,5.4,1.3
		c0.5,0.8,0.6,1.8,0.3,2.7c-16.4,0.1-26.5,4.4-28.5,12c-0.7,2.5-0.1,5.1,1.6,7c1.6,1.8,4.8,4,11.2,4c4.1,0,8.1-0.9,11.7-2.7
		c0,0,0,1.9,3.2,1.9c0.2,0,0.5,0,0.7,0.1h6.6v-1.3c0.1-2.3,0.5-4.6,1.1-6.8l2.9-11.1C214.6,18.9,214,15.4,211.8,12.8 M200.4,29.7
		c-0.1,0.5-0.4,0.9-0.7,1.3c-1.5,2.1-5.2,4.5-10.4,4.5c-2.1,0-3.2-0.5-3.6-1c-0.4-0.4-0.2-1.3-0.1-1.7c0.9-3.6,6.3-5.5,15.5-5.7
		L200.4,29.7z M162.1,21.6c-4.1-1.2-5-1.8-5.1-2.1c0-0.2,0-0.4,0.1-0.5c0.4-1.5,2.9-3.1,6.8-3.1c2.5-0.1,5,0.4,7.3,1.5l1.3,0.7
		l0.7-0.9l3-3.9l1.2-1.7l-2.3-1.1c-3.4-1.4-7.1-2.1-10.7-2c-9.2,0-16.7,4-18.2,9.7c-0.5,1.8-0.1,3.8,0.9,5.3
		c1.6,2.4,4.8,4.2,9.6,5.5c3.8,1.1,4.6,1.8,4.8,2.1c0.2,0.3,0,0.7,0,0.9c-0.4,1.6-2.8,3.5-8,3.5c-3,0-5.9-0.7-8.6-1.9l-1.4-0.7
		l-0.7,1l-3,4.1l-1.2,1.7l2.3,1.1c3.8,1.6,8,2.4,12.1,2.3c10.4,0,17.9-3.8,19.5-9.9c0.6-2,0.3-4.2-0.9-5.9
		C169.9,24.8,166.9,23.1,162.1,21.6"/>
	<path class="st0" d="M43.6,13.5c-1.3-1.2-3.6-2.6-7.7-2.5c-8.1,0.2-13.6,5.2-16.6,9.7c0,0-2.3,2.9-4.8,1.1
		c-2.4-1.8-2.1-5.1,0.1-7.9c2.1-2.7,11.3-11,24.2-6.6c-9.3-8.4-23.6-7.7-32,1.6c-6.8,7.5-7.8,18.5-2.5,27.1c2,1.6,4.5,2.3,7.1,2.2
		c8.1,0,13.7-4.7,16.9-9.2c0,0,2.4-2.9,4.8-0.9c2.4,2,2,5.1-0.3,7.9c-2,2.5-10.7,9.9-22.3,6.5c10.2,7.2,24.3,4.9,31.5-5.3
		C47,30.2,47.6,21,43.6,13.5"/>
</g>
</svg>
