<?xml version="1.0" encoding="utf-8"?>
<!-- Generator: Adobe Illustrator 27.4.0, SVG Export Plug-In . SVG Version: 6.00 Build 0)  -->
<svg version="1.1" id="Capa_1" xmlns="http://www.w3.org/2000/svg" xmlns:xlink="http://www.w3.org/1999/xlink" x="0px" y="0px"
	 viewBox="0 0 228.6 41.5" style="enable-background:new 0 0 228.6 41.5;" xml:space="preserve">
<style type="text/css">
	.st0{fill:#4C3EB9;}
	.st1{fill:#1AAFD6;}
	.st2{fill:url(#SVGID_1_);}
</style>
<g>
	<g>
		<path class="st0" d="M8.2,7.8c1.4-0.3,3.7-0.5,6.1-0.5c3.3,0,5.4,0.6,7,1.9c1.3,1,2.1,2.5,2.1,4.5c0,2.5-1.6,4.6-4.3,5.6v0.1
			c2.4,0.6,5.3,2.6,5.3,6.4c0,2.2-0.9,3.9-2.2,5.1c-1.8,1.6-4.7,2.4-8.9,2.4c-2.3,0-4-0.2-5.1-0.3V7.8z M11.5,18.3h3
			c3.5,0,5.6-1.8,5.6-4.3c0-3-2.3-4.2-5.6-4.2c-1.5,0-2.4,0.1-2.9,0.2V18.3z M11.5,30.6c0.6,0.1,1.6,0.2,2.8,0.2
			c3.4,0,6.6-1.3,6.6-5c0-3.5-3-4.9-6.6-4.9h-2.7V30.6z"/>
		<path class="st0" d="M44.1,28.1c0,1.9,0,3.6,0.2,5h-3l-0.2-3H41c-0.9,1.5-2.8,3.4-6.1,3.4c-2.9,0-6.4-1.6-6.4-8.1V14.7h3.3v10.2
			c0,3.5,1.1,5.9,4.1,5.9c2.2,0,3.8-1.6,4.4-3c0.2-0.5,0.3-1.1,0.3-1.7V14.7h3.3V28.1z"/>
		<path class="st0" d="M49.2,29.7c1,0.6,2.7,1.3,4.4,1.3c2.4,0,3.6-1.2,3.6-2.7c0-1.6-1-2.5-3.4-3.4c-3.3-1.2-4.9-3-4.9-5.2
			c0-3,2.4-5.4,6.4-5.4c1.9,0,3.5,0.5,4.5,1.1l-0.8,2.4c-0.7-0.5-2.1-1.1-3.8-1.1c-2,0-3.1,1.1-3.1,2.5c0,1.5,1.1,2.2,3.5,3.1
			c3.2,1.2,4.8,2.8,4.8,5.6c0,3.2-2.5,5.5-6.9,5.5c-2,0-3.9-0.5-5.2-1.3L49.2,29.7z"/>
		<path class="st0" d="M68.5,9.6c0,1.1-0.8,2.1-2.1,2.1c-1.2,0-2-0.9-2-2.1c0-1.2,0.9-2.1,2.1-2.1C67.7,7.5,68.5,8.4,68.5,9.6z
			 M64.7,33.2V14.7h3.3v18.4H64.7z"/>
		<path class="st0" d="M73.6,19.7c0-1.9,0-3.5-0.2-5h3l0.2,3h0.1c0.9-1.8,3-3.5,6.1-3.5c2.5,0,6.5,1.5,6.5,7.8v11H86V22.5
			c0-3-1.1-5.4-4.3-5.4c-2.2,0-3.9,1.6-4.5,3.4c-0.2,0.4-0.2,1-0.2,1.6v11.1h-3.3V19.7z"/>
		<path class="st0" d="M96.6,24.6c0.1,4.5,3,6.4,6.3,6.4c2.4,0,3.8-0.4,5.1-1l0.6,2.4c-1.2,0.5-3.2,1.1-6.1,1.1
			c-5.7,0-9.1-3.7-9.1-9.3c0-5.6,3.3-9.9,8.6-9.9c6,0,7.6,5.3,7.6,8.7c0,0.7-0.1,1.2-0.1,1.6H96.6z M106.4,22.2
			c0-2.1-0.9-5.4-4.6-5.4c-3.4,0-4.9,3.1-5.1,5.4H106.4z"/>
		<path class="st0" d="M113.4,29.7c1,0.6,2.7,1.3,4.4,1.3c2.4,0,3.6-1.2,3.6-2.7c0-1.6-1-2.5-3.4-3.4c-3.3-1.2-4.9-3-4.9-5.2
			c0-3,2.4-5.4,6.4-5.4c1.9,0,3.5,0.5,4.5,1.1l-0.8,2.4c-0.7-0.5-2.1-1.1-3.8-1.1c-2,0-3.1,1.1-3.1,2.5c0,1.5,1.1,2.2,3.5,3.1
			c3.2,1.2,4.8,2.8,4.8,5.6c0,3.2-2.5,5.5-6.9,5.5c-2,0-3.9-0.5-5.2-1.3L113.4,29.7z"/>
		<path class="st0" d="M128.4,29.7c1,0.6,2.7,1.3,4.4,1.3c2.4,0,3.6-1.2,3.6-2.7c0-1.6-1-2.5-3.4-3.4c-3.3-1.2-4.9-3-4.9-5.2
			c0-3,2.4-5.4,6.4-5.4c1.9,0,3.5,0.5,4.5,1.1l-0.8,2.4c-0.7-0.5-2.1-1.1-3.8-1.1c-2,0-3.1,1.1-3.1,2.5c0,1.5,1.1,2.2,3.5,3.1
			c3.2,1.2,4.8,2.8,4.8,5.6c0,3.2-2.5,5.5-6.9,5.5c-2,0-3.9-0.5-5.2-1.3L128.4,29.7z"/>
		<path class="st1" d="M152,6.1h3.3v27H152V6.1z"/>
		<path class="st1" d="M177.7,23.8c0,6.8-4.7,9.8-9.2,9.8c-5,0-8.8-3.7-8.8-9.5c0-6.2,4-9.8,9.1-9.8
			C174.1,14.3,177.7,18.2,177.7,23.8z M163.1,24c0,4,2.3,7.1,5.6,7.1c3.2,0,5.6-3,5.6-7.2c0-3.1-1.6-7.1-5.5-7.1
			C164.8,16.8,163.1,20.5,163.1,24z"/>
		<path class="st1" d="M197.8,14.7c-0.1,1.3-0.2,2.8-0.2,5.1v10.7c0,4.2-0.8,6.8-2.6,8.4c-1.8,1.7-4.4,2.2-6.7,2.2
			c-2.2,0-4.6-0.5-6.1-1.5L183,37c1.2,0.8,3.1,1.4,5.4,1.4c3.4,0,5.9-1.8,5.9-6.4V30h-0.1c-1,1.7-3,3.1-5.9,3.1
			c-4.6,0-7.8-3.9-7.8-9c0-6.2,4.1-9.8,8.3-9.8c3.2,0,4.9,1.7,5.7,3.2h0.1l0.2-2.8H197.8z M194.3,22c0-0.6,0-1.1-0.2-1.5
			c-0.6-1.9-2.2-3.5-4.7-3.5c-3.2,0-5.5,2.7-5.5,7c0,3.6,1.8,6.6,5.4,6.6c2.1,0,3.9-1.3,4.6-3.4c0.2-0.6,0.3-1.2,0.3-1.8V22z"/>
		<path class="st1" d="M219.8,23.8c0,6.8-4.7,9.8-9.2,9.8c-5,0-8.8-3.7-8.8-9.5c0-6.2,4-9.8,9.1-9.8
			C216.3,14.3,219.8,18.2,219.8,23.8z M205.2,24c0,4,2.3,7.1,5.6,7.1c3.2,0,5.6-3,5.6-7.2c0-3.1-1.6-7.1-5.5-7.1
			C206.9,16.8,205.2,20.5,205.2,24z"/>
	</g>
	<linearGradient id="SVGID_1_" gradientUnits="userSpaceOnUse" x1="0.2922" y1="20.3459" x2="228.2922" y2="20.3459">
		<stop  offset="0" style="stop-color:#1AAFD6"/>
		<stop  offset="1" style="stop-color:#4C3EB9"/>
	</linearGradient>
	<path class="st2" d="M221.4,0.3H7.2c-3.8,0-6.9,3.1-6.9,6.9v26.2c0,3.8,3.1,6.9,6.9,6.9h169.1l2-2H7.2c-2.7,0-4.9-2.2-4.9-4.9V7.2
		c0-2.7,2.2-4.9,4.9-4.9h214.2c2.7,0,4.9,2.2,4.9,4.9v26.2c0,2.7-2.2,4.9-4.9,4.9h-21.2c-0.4,0.6-0.9,1.3-1.5,2h22.6
		c3.8,0,6.9-3.1,6.9-6.9V7.2C228.3,3.4,225.2,0.3,221.4,0.3z"/>
</g>
</svg>
