<?xml version="1.0" encoding="utf-8"?>
<!-- Generator: Adobe Illustrator 27.4.0, SVG Export Plug-In . SVG Version: 6.00 Build 0)  -->
<svg version="1.1" id="Layer_1" xmlns="http://www.w3.org/2000/svg" xmlns:xlink="http://www.w3.org/1999/xlink" x="0px" y="0px"
	 viewBox="0 0 318 80" style="enable-background:new 0 0 318 80;" xml:space="preserve">
<style type="text/css">
	.st0{fill:#FFFFFF;}
</style>
<g>
	<g>
		<path class="st0" d="M129.2,64.4c-26.3,0-27.2-17.4-27.2-18.3c2.7,0,8.3,0,8.3,0s-0.1,11.8,18.9,11.8h0.1
			c10.2,0,16.6-3.3,16.6-8.9v-0.3c0-4.4-3.8-6.1-15.2-7.5l-7.8-1c-12-1.5-19.4-5.2-19.4-14.2v-0.3c0-10.3,9.5-15.7,23.9-15.7h0.1
			c25.6,0,25.6,17.1,25.6,17.1H145c0,0,0.1-10.6-17.6-10.6h-0.1c-9.8,0-15.5,3.3-15.5,8.7v0.3c0,4.3,3.5,6.9,14.6,8.3l7.5,0.9
			c14.2,1.8,20.7,5.9,20.7,13.9v0.3C154.6,59.2,144.3,64.4,129.2,64.4L129.2,64.4z"/>
		<path class="st0" d="M247.7,64.4c-22.6,0-22.6-13.9-22.6-13.9s6.5,0,7.8,0c0,0.6,2.1,8.1,15.5,8.1h0.1c8.6,0,12.7-1.9,12.7-5.8
			v-0.1c0-3.5-3.7-4.7-10.9-5.5l-8.7-0.7c-9.5-0.9-15.8-3.5-15.8-10.8v-0.3c0-7.5,7.7-11.8,20.8-11.8h0.1
			c20.1,0,21.4,11.4,21.4,13.7c-3.1,0-8,0-8,0s0.4-7.8-13.4-7.8h-0.1c-7.8,0-12.9,2.2-12.9,6.2v0.1c0,3.7,4.4,4.9,11.7,5.6l9,0.9
			c10.3,1,14.9,4.3,14.9,10.2v0.3C269.3,60.4,262.1,64.4,247.7,64.4L247.7,64.4z"/>
		<g>
			<rect x="161.3" y="27.1" class="st0" width="7.4" height="36.6"/>
			<rect x="160.8" y="10.7" class="st0" width="8.1" height="8.1"/>
		</g>
		<path class="st0" d="M315,30.5c-1.6-2.4-4-4.1-7.2-5.3c-3.3-1.2-7.4-1.8-12.4-1.8c-14.9,0-20.5,6.5-21.1,13.7h8
			c0.3-5.6,6.6-7.8,13-7.8c5,0,8.7,0.6,10.9,2.1c2.4,1.5,3.5,3.8,3.5,6.8c0,0.3,0,1.5,0,1.8l0,0l0,0l0,0v0.4
			c-17.1,0-36.1-0.1-36.1,12.6c0,10.9,12.9,11.4,15.8,11.4c12.7,0,20.2-7.7,20.2-7.7v6.9h7.8V40.9c0-0.1,0-0.4,0-0.7
			c0-0.3,0-0.7,0-1C317.3,35.7,316.6,32.9,315,30.5z M307.1,52c-1.6,1.9-3.8,3.4-6.8,4.6c-2.8,1-6.1,1.6-9.5,1.6
			c-2.1,0-9.3-0.7-9.3-5.3c0-3.4,1.9-6.6,28.1-6.8C309.5,48.3,308.6,50.2,307.1,52z"/>
		<path class="st0" d="M220.7,43.4c-0.3-12.7-8.6-20.1-22.3-20.1h-0.1c-14.3,0-22.9,7.5-22.9,19.9v0.3c0,12.9,8.9,20.7,23.6,20.7
			h0.1c10.2,0,18.6-5.9,20.7-13.9h-7.7c-1.3,4.3-5.6,7.7-13,7.7H199c-9.5,0-15.1-4-15.8-12c0,0,37.1,0,37.5,0
			C220.7,45.5,220.7,43.4,220.7,43.4z M198.1,29.2L198.1,29.2c8.6,0,13.6,4.1,14.6,11.5h-29.6C184.3,33.4,189.5,29.2,198.1,29.2z"/>
	</g>
	<polygon class="st0" points="0.5,47.8 0.5,0.4 48,0.4 	"/>
	<polygon class="st0" points="0.5,79.6 0.5,47.8 32.1,47.8 	"/>
	<polygon class="st0" points="79.7,0.4 79.7,47.8 32.1,47.8 	"/>
	<polygon class="st0" points="79.7,47.8 79.7,79.6 48,79.6 	"/>
</g>
</svg>
