<?xml version="1.0" encoding="utf-8"?>
<!-- Generator: Adobe Illustrator 26.3.1, SVG Export Plug-In . SVG Version: 6.00 Build 0)  -->
<svg version="1.1" id="Layer_1" xmlns="http://www.w3.org/2000/svg" xmlns:xlink="http://www.w3.org/1999/xlink" x="0px" y="0px"
	 viewBox="0 0 364.2 80" style="enable-background:new 0 0 364.2 80;" xml:space="preserve">
<style type="text/css">
	.st0{fill:#1031A3;}
</style>
<g>
	<path class="st0" d="M159.3,11.9c0,0.2,0,0.4-0.2,0.6c-2.2,6-7.3,10.3-12.3,11l-1.7,6h7.3l-10.6,38.5h18.7l15.1-56H159.3z"/>
	<path class="st0" d="M205.4,56.2c-7.1,0-12.5-1.7-14.9-4.5c-1.5-2.1-2.2-4.7-1.7-7.1h49.8l0.6-1.3l0.2-0.4c0.6-1.3,1.1-2.8,1.5-4.1
		c0.9-3.5,2.4-12.3-3.9-19.6c-4.9-5.6-12.5-8.4-23.1-8.4c-20.9,0-38.5,11.9-42.9,28.7c-2.6,9.7,0.7,16.1,3.9,19.8
		c5.6,6.5,15.3,9.9,28.4,9.9c8.6,0.2,17.2-1.1,25.4-3.4l1.7-0.6l-0.2-1.9l-0.6-6.5l-0.4-4.5l-4.1,1.1
		C218.8,55.4,212.1,56.3,205.4,56.2 M212.7,23.1c4.7,0,8,0.9,9.7,2.8c1.3,1.9,1.7,3.9,1.1,6.2h-29.9
		C198.3,26.3,205.2,22.9,212.7,23.1 M125.3,10.6c-15.7,0-28.4,6.7-30.8,16.4c-0.7,3.2-0.2,6.3,1.5,9c2.8,4.1,8.2,7.3,16.4,9.3
		c6.3,1.9,7.8,3,8,3.5c0.2,0.6,0.2,1.1,0,1.7c-0.7,2.8-4.7,5.8-13.6,5.8c-5,0-10.1-1.1-14.6-3.2L90,52.1l-1.3,1.7l-5,6.9l-2.1,2.8
		l3.9,1.9c6.5,2.6,13.4,3.9,20.5,3.9c17.5,0,30.2-6.5,33-16.8c1.1-3.4,0.6-7.1-1.5-10.1c-2.6-3.9-7.7-6.9-16.1-9.3
		c-6.9-2.1-8.4-3.2-8.8-3.5c0-0.4,0-0.6,0-0.9c0.7-2.6,4.9-5.2,11.6-5.2c4.3-0.2,8.6,0.7,12.5,2.4l2.2,1.1l1.3-1.7l5-6.7l2.1-2.8
		l-3.9-1.9C137.8,11.7,131.5,10.4,125.3,10.6 M359,18.1c-4.3-5-11.8-7.5-22.6-7.5c-8.8,0-17.5,1.5-25.8,4.7L309,16l0.4,2.1l1.3,6
		l0.9,4.3l3.7-1.5c6-2.2,12.3-3.5,18.7-3.5c6.5,0,8.6,1.7,9.1,2.2c0.7,1.3,0.9,3,0.6,4.5c-27.8,0.2-45,7.5-48.4,20.3
		c-1.1,4.1-0.2,8.6,2.8,11.9c2.6,3.2,8.2,6.9,18.9,6.9c6.9,0,13.6-1.5,20-4.5c0,0,0,3.4,5.4,3.4c0.4,0,0.7,0,1.3,0.2h11.2v-2.2
		c0.2-3.9,0.7-7.7,1.9-11.4l4.9-18.9C363.7,28.3,362.8,22.6,359,18.1 M339.6,46.8c-0.2,0.7-0.6,1.5-1.1,2.2
		c-2.6,3.5-8.8,7.5-17.5,7.5c-3.5,0-5.4-0.9-6.2-1.7c-0.7-0.7-0.4-2.2-0.2-2.8c1.7-6,10.6-9.3,26.3-9.7L339.6,46.8z M274.6,33
		c-6.9-2.1-8.4-3.2-8.8-3.5c0-0.4,0-0.6,0.2-0.9c0.7-2.6,4.9-5.2,11.6-5.2c4.3-0.2,8.4,0.7,12.3,2.6l2.2,1.1l1.1-1.7l5-6.7l2.1-2.8
		l-3.9-1.9c-5.8-2.4-11.9-3.5-18.3-3.4c-15.7,0-28.4,6.7-30.8,16.4c-0.7,3.2-0.2,6.3,1.7,9c2.8,4.1,8.2,7.3,16.4,9.3
		c6.3,1.9,7.8,3,8.2,3.5c0.4,0.6,0,1.3,0,1.7c-0.7,2.8-4.7,5.8-13.6,5.8c-5,0-10.1-1.1-14.6-3.2l-2.2-1.1l-1.3,1.7l-5,6.9l-2.1,2.8
		l3.9,1.9c6.5,2.6,13.4,4.1,20.5,3.9c17.5,0,30.2-6.5,33-16.8c0.9-3.4,0.6-7.1-1.5-10.1C288.1,38.4,282.9,35.4,274.6,33"/>
	<path class="st0" d="M73.8,22c-2.2-2.1-6.2-4.3-13.1-4.1c-13.8,0.4-23,8.8-28.2,16.4c0,0-3.9,5-8,1.9c-4.1-3.2-3.5-8.6,0.2-13.4
		c3.5-4.5,19.2-18.7,41.1-11.2C50.1-2.6,25.8-1.5,11.6,14.2C0,26.8-1.8,45.5,7.1,60.1c3.4,2.6,7.7,3.9,12.1,3.7
		c13.8,0,23.1-8,28.7-15.5c0,0,4.1-4.9,8.2-1.5c4.1,3.4,3.4,8.8-0.6,13.4c-3.4,4.1-18.1,16.8-37.9,11c17.2,12.3,41.3,8.2,53.4-9
		C79.4,50.4,80.5,34.9,73.8,22"/>
</g>
</svg>
