<svg xmlns="http://www.w3.org/2000/svg" xmlns:xlink="http://www.w3.org/1999/xlink" width="500" height="142" viewBox="0 0 500 142">
  <defs>
    <clipPath id="clip-Mesa_de_trabajo_2">
      <rect width="500" height="142"/>
    </clipPath>
  </defs>
  <g id="Mesa_de_trabajo_2" data-name="Mesa de trabajo – 2" clip-path="url(#clip-Mesa_de_trabajo_2)">
    <g id="Grupo_1408" data-name="Grupo 1408" transform="translate(-1254.02 -13.7)">
      <g id="LogoSiesa" transform="translate(1258.021 14)">
        <path id="Trazado_44" data-name="Trazado 44" d="M109.58,22.615a.841.841,0,0,1-.229.687c-2.95,8.213-9.892,14.087-16.808,14.876l-2.187,8.035h9.815L85.55,98.875h25.428L131.6,22.59Z" transform="translate(105.37 -4.884)" fill="#fff"/>
        <path id="Trazado_45" data-name="Trazado 45" d="M222.057,84.01c-9.637,0-17.088-2.212-20.343-6.077a11.748,11.748,0,0,1-2.212-9.765h68l.763-1.805.229-.559a38.915,38.915,0,0,0,2.034-5.671c1.246-4.73,3.2-16.783-5.213-26.674C258.8,25.83,248.2,21.99,233.779,21.99c-28.378,0-52.434,16.147-58.485,39.261-3.458,13.2.941,21.97,5.238,27.005,7.629,8.874,20.9,13.553,38.524,13.553a123.124,123.124,0,0,0,34.608-4.552L256,96.6l-.178-2.543-.687-8.951-.458-6.027L249.113,80.6a93.2,93.2,0,0,1-26.954,3.433m9.764-45.059c6.433,0,10.985,1.373,13.147,3.941a10.654,10.654,0,0,1,1.653,8.341H206.037a32.091,32.091,0,0,1,25.784-12.282M112.816,22.015c-21.284,0-38.549,9.205-42.008,22.377A14.85,14.85,0,0,0,72.97,56.649c3.789,5.62,11.087,9.815,22.3,12.714,8.7,2.543,10.629,4.17,11.061,4.806a3.383,3.383,0,0,1,0,2.187c-.966,3.687-6.408,7.985-18.537,7.985a47.17,47.17,0,0,1-19.86-4.4l-3.128-1.627L63.129,80.6l-6.917,9.51L53.39,93.978l5.34,2.543A69.979,69.979,0,0,0,86.7,101.784c24.03,0,41.27-8.8,44.983-22.886a16.274,16.274,0,0,0-1.933-13.655c-3.585-5.391-10.527-9.434-21.869-12.714-9.459-2.721-11.494-4.2-11.875-4.806a2.543,2.543,0,0,1,0-1.221c.915-3.535,6.611-7.12,15.689-7.12a37.965,37.965,0,0,1,16.986,3.433l3.051,1.551,1.653-2.212,6.815-9.078,2.873-3.84-5.34-2.543a61.206,61.206,0,0,0-24.92-4.679M431.282,32.187c-5.9-6.891-15.969-10.171-30.794-10.171a96.094,96.094,0,0,0-34.99,6.357l-2.339.966.61,2.772,1.882,8.213,1.322,5.823,5.086-2.034a71.2,71.2,0,0,1,25.429-4.857c8.925,0,11.748,2.161,12.536,3.1a7.4,7.4,0,0,1,.687,6.2c-37.888.28-61.257,10.171-65.885,27.768A17.418,17.418,0,0,0,348.589,92.5c3.636,4.247,11.061,9.332,25.81,9.332a61.257,61.257,0,0,0,27.132-6.2s0,4.45,7.323,4.45a4.222,4.222,0,0,1,1.678.2H425.79v-3.1a66.113,66.113,0,0,1,2.543-15.613l6.738-25.683c2.543-9.714,1.271-17.673-3.84-23.648M404.964,71.321a9.51,9.51,0,0,1-1.551,2.95c-3.56,4.755-11.951,10.3-24,10.3-4.806,0-7.5-1.2-8.366-2.212s-.509-3.077-.28-3.916c2.161-8.213,14.52-12.714,35.8-13.223ZM316.371,52.53c-9.459-2.721-11.494-4.2-11.875-4.806a2.542,2.542,0,0,1,.127-1.2c.915-3.56,6.611-7.145,15.689-7.145A37.965,37.965,0,0,1,337.1,42.816l3.051,1.526,1.653-2.187,6.815-9.078,2.873-3.84-5.365-2.543A61.028,61.028,0,0,0,321.3,22.015c-21.284,0-38.549,9.205-42.008,22.377a14.748,14.748,0,0,0,2.187,12.257c3.763,5.62,11.061,9.815,22.275,12.714,8.7,2.543,10.629,4.17,11.061,4.806s0,1.7,0,2.187c-.992,3.687-6.408,7.985-18.563,7.985a47.058,47.058,0,0,1-19.851-4.4l-3.136-1.631L271.592,80.6l-6.917,9.51-2.823,3.865,5.34,2.543a69.522,69.522,0,0,0,27.971,5.289c24.03,0,41.27-8.8,44.983-22.886a16.275,16.275,0,0,0-2.009-13.63c-3.585-5.391-10.527-9.434-21.868-12.714" transform="translate(55.752 -5.809)" fill="#fff"/>
        <path id="Trazado_46" data-name="Trazado 46" d="M108.906,43.581c-2.95-2.848-8.341-5.95-17.8-5.7-18.715.509-31.3,11.9-38.422,22.326,0,0-5.416,6.789-11.011,2.543s-4.933-11.7.2-18.334c4.755-6.154,26.166-25.428,55.943-15.257A52.255,52.255,0,0,0,18.228,95.277a24.742,24.742,0,0,0,16.4,5.086c18.715,0,31.633-10.96,39.058-21.182,0,0,5.62-6.637,11.087-2.085s4.552,11.85-.763,18.334c-4.679,5.671-24.615,22.886-51.62,15.028a52.23,52.23,0,0,0,76.514-66.877" transform="translate(-10.469 -15.627)" fill="#fff"/>
      </g>
      <text id="Enterprise_2.0" data-name="Enterprise 2.0" transform="translate(1362.637 149.223)" fill="#fff" font-size="37" font-family="Helvetica-BoldOblique, Helvetica" font-weight="700" font-style="oblique"><tspan x="0" y="0">Enterprise 2.0</tspan></text>
    </g>
  </g>
</svg>
