<svg xmlns="http://www.w3.org/2000/svg" xmlns:xlink="http://www.w3.org/1999/xlink" width="500" height="142" viewBox="0 0 500 142">
  <defs>
    <clipPath id="clip-Mesa_de_trabajo_1">
      <rect width="500" height="142"/>
    </clipPath>
  </defs>
  <g id="Mesa_de_trabajo_1" data-name="Mesa de trabajo – 1" clip-path="url(#clip-Mesa_de_trabajo_1)">
    <g id="Grupo_335" data-name="Grupo 335" transform="translate(0.487 0.5)">
      <g id="LogoSiesa">
        <path id="Trazado_44" data-name="Trazado 44" d="M109.918,22.616a.852.852,0,0,1-.232.7C106.7,31.641,99.655,37.6,92.641,38.4l-2.218,8.149h9.954L85.55,99.95h25.787L132.25,22.59Z" transform="translate(108.06 -4.634)" fill="#fff"/>
        <path id="Trazado_45" data-name="Trazado 45" d="M224.433,84.884c-9.773,0-17.329-2.243-20.629-6.163a11.914,11.914,0,0,1-2.243-9.9h68.954l.773-1.831.232-.567a39.428,39.428,0,0,0,2.063-5.75c1.264-4.8,3.249-17.019-5.286-27.05-6.6-7.736-17.354-11.63-31.975-11.63-28.778,0-53.172,16.375-59.309,39.815-3.507,13.383.954,22.28,5.312,27.385,7.736,9,21.2,13.744,39.067,13.744a124.86,124.86,0,0,0,35.1-4.616l2.372-.67-.18-2.579-.7-9.077-.464-6.111-5.647,1.547a94.508,94.508,0,0,1-27.334,3.481m9.9-45.694c6.524,0,11.14,1.392,13.332,4a10.8,10.8,0,0,1,1.676,8.458H208.187a32.543,32.543,0,0,1,26.148-12.455m-120.682-17.2c-21.583,0-39.093,9.335-42.6,22.692a15.059,15.059,0,0,0,2.192,12.429c3.842,5.7,11.243,9.954,22.615,12.893,8.819,2.579,10.779,4.229,11.217,4.874a3.43,3.43,0,0,1,0,2.218c-.98,3.739-6.5,8.1-18.8,8.1A47.834,47.834,0,0,1,68.14,80.758l-3.172-1.65-1.7,2.321-7.014,9.644-2.862,3.92,5.415,2.579a70.966,70.966,0,0,0,28.365,5.338c24.368,0,41.852-8.922,45.617-23.208a16.5,16.5,0,0,0-1.96-13.847c-3.636-5.467-10.676-9.567-22.177-12.893C99.058,50.2,97,48.705,96.609,48.086a2.578,2.578,0,0,1,0-1.238c.928-3.584,6.7-7.22,15.91-7.22a38.5,38.5,0,0,1,17.226,3.481l3.094,1.573,1.676-2.243,6.911-9.206,2.914-3.894-5.415-2.579a62.069,62.069,0,0,0-25.271-4.745M436.606,32.33c-5.983-6.988-16.194-10.315-31.228-10.315A97.449,97.449,0,0,0,369.9,28.462l-2.372.98.619,2.811,1.908,8.329,1.341,5.905,5.157-2.063A72.2,72.2,0,0,1,402.336,39.5c9.051,0,11.913,2.192,12.713,3.146a7.5,7.5,0,0,1,.7,6.292c-38.422.284-62.12,10.315-66.813,28.159a17.664,17.664,0,0,0,3.816,16.4c3.687,4.306,11.217,9.464,26.173,9.464a62.119,62.119,0,0,0,27.514-6.292s0,4.513,7.427,4.513a4.28,4.28,0,0,1,1.7.206h15.472V98.241a67.04,67.04,0,0,1,2.579-15.833l6.833-26.045c2.579-9.85,1.289-17.922-3.894-23.982M409.917,72.016a9.647,9.647,0,0,1-1.573,2.991c-3.61,4.822-12.12,10.444-24.343,10.444-4.874,0-7.607-1.212-8.484-2.243s-.516-3.12-.284-3.971c2.192-8.329,14.724-12.893,36.308-13.409ZM320.076,52.96c-9.593-2.759-11.656-4.255-12.042-4.874a2.578,2.578,0,0,1,.129-1.212c.928-3.61,6.7-7.246,15.91-7.246a38.5,38.5,0,0,1,17.019,3.481l3.094,1.547,1.676-2.218,6.911-9.206,2.914-3.894-5.441-2.579a61.888,61.888,0,0,0-25.168-4.745c-21.583,0-39.093,9.335-42.6,22.692A14.956,14.956,0,0,0,284.7,57.137c3.816,5.7,11.217,9.954,22.589,12.893C316.1,72.609,318.064,74.26,318.5,74.9s0,1.728,0,2.218c-1.006,3.739-6.5,8.1-18.824,8.1a47.721,47.721,0,0,1-20.131-4.457l-3.18-1.654-1.7,2.321-7.014,9.644-2.862,3.92,5.415,2.579a70.5,70.5,0,0,0,28.365,5.364c24.368,0,41.852-8.922,45.617-23.208A16.5,16.5,0,0,0,342.149,65.9c-3.636-5.467-10.676-9.567-22.177-12.893" transform="translate(57.29 -5.581)" fill="#fff"/>
        <path id="Trazado_46" data-name="Trazado 46" d="M110.292,43.975c-2.991-2.888-8.458-6.034-18.051-5.776C73.263,38.714,60.5,50.267,53.278,60.839c0,0-5.493,6.885-11.166,2.579s-5-11.862.206-18.592c4.822-6.24,26.534-25.787,56.731-15.472A52.992,52.992,0,0,0,18.337,96.4a25.09,25.09,0,0,0,16.632,5.157c18.979,0,32.079-11.114,39.608-21.48,0,0,5.7-6.73,11.243-2.115s4.616,12.017-.774,18.592C80.3,102.3,60.086,119.762,32.7,111.794a52.966,52.966,0,0,0,77.592-67.819" transform="translate(-10.469 -15.627)" fill="#fff"/>
      </g>
      <text id="HCM" transform="translate(107.513 140.5)" fill="#fff" font-size="36" font-family="Helvetica-BoldOblique, Helvetica" font-weight="700" font-style="oblique"><tspan x="0" y="0">HCM</tspan></text>
    </g>
  </g>
</svg>
