<?xml version="1.0" encoding="utf-8"?>
<!-- Generator: Adobe Illustrator 27.4.0, SVG Export Plug-In . SVG Version: 6.00 Build 0)  -->
<svg version="1.1" id="Capa_1" xmlns="http://www.w3.org/2000/svg" xmlns:xlink="http://www.w3.org/1999/xlink" x="0px" y="0px"
	 viewBox="0 0 500 126" style="enable-background:new 0 0 500 126;" xml:space="preserve">
<style type="text/css">
	.st0{fill:#FFFFFF;}
</style>
<g>
	<g>
		<path class="st0" d="M203.2,101.3c-41.4,0-42.8-27.4-42.8-28.8c4.2,0,13,0,13,0s-0.2,18.6,29.7,18.6h0.2c16,0,26-5.1,26-13.9v-0.5
			c0-7-6-9.5-23.9-11.9l-12.3-1.6c-18.8-2.3-30.4-8.1-30.4-22.3v-0.5c0-16.3,14.9-24.6,37.7-24.6h0.2c40.2,0,40.2,27,40.2,27H228
			c0,0,0.2-16.7-27.7-16.7h-0.2c-15.3,0-24.4,5.1-24.4,13.7v0.5c0,6.7,5.6,10.9,23,13l11.9,1.4c22.3,2.8,32.5,9.3,32.5,21.8v0.5
			C243.1,93.2,226.9,101.3,203.2,101.3L203.2,101.3z"/>
		<path class="st0" d="M389.6,101.3c-35.6,0-35.6-21.8-35.6-21.8s10.2,0,12.3,0c0,0.9,3.3,12.8,24.4,12.8h0.2c13.5,0,20-3,20-9.1V83
			c0-5.6-5.8-7.4-17.2-8.6L380,73.2c-14.9-1.4-24.9-5.6-24.9-17v-0.5c0-11.9,12.1-18.6,32.8-18.6h0.2c31.6,0,33.7,17.9,33.7,21.6
			c-4.9,0-12.6,0-12.6,0s0.7-12.3-21.1-12.3h-0.2c-12.3,0-20.2,3.5-20.2,9.8v0.2c0,5.8,7,7.7,18.4,8.8l14.2,1.4
			c16.3,1.6,23.5,6.7,23.5,16v0.5C423.5,95.1,412.1,101.3,389.6,101.3L389.6,101.3z"/>
		<g>
			<rect x="253.6" y="42.8" class="st0" width="11.6" height="57.6"/>
			<rect x="252.9" y="17" class="st0" width="12.8" height="12.8"/>
		</g>
		<path class="st0" d="M495.3,48.1c-2.6-3.7-6.3-6.5-11.4-8.4S472.3,37,464.4,37c-23.5,0-32.3,10.2-33.2,21.6h12.6
			c0.5-8.8,10.5-12.3,20.5-12.3c7.9,0,13.7,0.9,17.2,3.3c3.7,2.3,5.6,6,5.6,10.7c0,0.5,0,2.3,0,2.8l0,0l0,0l0,0v0.7
			c-27,0-56.7-0.2-56.7,19.8c0,17.2,20.2,17.9,24.9,17.9c20,0,31.8-12.1,31.8-12.1v10.9h12.3V64.4c0-0.2,0-0.7,0-1.2
			c0-0.5,0-1.2,0-1.6C499,56.3,497.9,51.8,495.3,48.1z M483,81.8c-2.6,3-6,5.3-10.7,7.2c-4.4,1.6-9.5,2.6-14.9,2.6
			c-3.3,0-14.6-1.2-14.6-8.4c0-5.3,3-10.5,44.2-10.7C486.7,76,485.3,79,483,81.8z"/>
		<path class="st0" d="M347,68.3c-0.5-20-13.5-31.6-35.1-31.6h-0.2c-22.5,0-36,11.9-36,31.4v0.5c0,20.2,13.9,32.5,37.2,32.5h0.2
			c16,0,29.3-9.3,32.5-21.8h-12.1c-2.1,6.7-8.8,12.1-20.5,12.1h-0.2c-14.9,0-23.7-6.3-24.9-18.8c0,0,58.3,0,59,0
			C347,71.6,347,68.3,347,68.3z M311.5,46L311.5,46c13.5,0,21.4,6.5,23,18.1H288C289.9,52.5,298,46,311.5,46z"/>
	</g>
	<polygon class="st0" points="0.7,75.3 0.7,0.7 75.3,0.7 	"/>
	<polygon class="st0" points="0.7,125.3 0.7,75.3 50.5,75.3 	"/>
	<polygon class="st0" points="125.3,0.7 125.3,75.3 50.5,75.3 	"/>
	<polygon class="st0" points="125.3,75.3 125.3,125.3 75.3,125.3 	"/>
</g>
</svg>
