<?xml version="1.0" encoding="utf-8"?>
<!-- Generator: Adobe Illustrator 27.4.0, SVG Export Plug-In . SVG Version: 6.00 Build 0)  -->
<svg version="1.1" id="Layer_1" xmlns="http://www.w3.org/2000/svg" xmlns:xlink="http://www.w3.org/1999/xlink" x="0px" y="0px"
	 viewBox="0 0 215 55" style="enable-background:new 0 0 215 55;" xml:space="preserve">
<style type="text/css">
	.st0{fill:#FFFFFF;}
</style>
<g>
	<g>
		<path class="st0" d="M87.3,44c-17.8,0-18.4-11.8-18.4-12.4c1.8,0,5.6,0,5.6,0s-0.1,8,12.8,8h0.1c6.9,0,11.2-2.2,11.2-6v-0.2
			c0-3-2.6-4.1-10.3-5.1L83,27.6c-8.1-1-13.1-3.5-13.1-9.6v-0.2c0-7,6.4-10.6,16.2-10.6h0.1c17.3,0,17.3,11.6,17.3,11.6H98
			c0,0,0.1-7.2-11.9-7.2H86c-6.6,0-10.5,2.2-10.5,5.9v0.2c0,2.9,2.4,4.7,9.9,5.6l5.1,0.6c9.6,1.2,14,4,14,9.4v0.2
			C104.5,40.5,97.5,44,87.3,44L87.3,44z"/>
		<path class="st0" d="M167.6,44c-15.3,0-15.3-9.4-15.3-9.4s4.4,0,5.3,0c0,0.4,1.4,5.5,10.5,5.5h0.1c5.8,0,8.6-1.3,8.6-3.9v-0.1
			c0-2.4-2.5-3.2-7.4-3.7l-5.9-0.5c-6.4-0.6-10.7-2.4-10.7-7.3v-0.2c0-5.1,5.2-8,14.1-8h0.1c13.6,0,14.5,7.7,14.5,9.3
			c-2.1,0-5.4,0-5.4,0s0.3-5.3-9.1-5.3h-0.1c-5.3,0-8.7,1.5-8.7,4.2v0.1c0,2.5,3,3.3,7.9,3.8l6.1,0.6c7,0.7,10.1,2.9,10.1,6.9v0.2
			C182.1,41.3,177.2,44,167.6,44L167.6,44z"/>
		<g>
			<rect x="109" y="18.8" class="st0" width="5" height="24.8"/>
			<rect x="108.8" y="7.7" class="st0" width="5.5" height="5.5"/>
		</g>
		<path class="st0" d="M213.1,21.1c-1.1-1.6-2.7-2.8-4.9-3.6c-2.2-0.8-5-1.2-8.4-1.2c-10.1,0-13.9,4.4-14.3,9.3h5.4
			c0.2-3.8,4.5-5.3,8.8-5.3c3.4,0,5.9,0.4,7.4,1.4c1.6,1,2.4,2.6,2.4,4.6c0,0.2,0,1,0,1.2l0,0l0,0l0,0v0.3
			c-11.6,0-24.4-0.1-24.4,8.5c0,7.4,8.7,7.7,10.7,7.7c8.6,0,13.7-5.2,13.7-5.2v4.7h5.3V28.1c0-0.1,0-0.3,0-0.5s0-0.5,0-0.7
			C214.6,24.6,214.1,22.7,213.1,21.1z M207.8,35.6c-1.1,1.3-2.6,2.3-4.6,3.1c-1.9,0.7-4.1,1.1-6.4,1.1c-1.4,0-6.3-0.5-6.3-3.6
			c0-2.3,1.3-4.5,19-4.6C209.3,33.1,208.8,34.4,207.8,35.6z"/>
		<path class="st0" d="M149.2,29.8c-0.2-8.6-5.8-13.6-15.1-13.6H134c-9.7,0-15.5,5.1-15.5,13.5v0.2c0,8.7,6,14,16,14h0.1
			c6.9,0,12.6-4,14-9.4h-5.2c-0.9,2.9-3.8,5.2-8.8,5.2h-0.1c-6.4,0-10.2-2.7-10.7-8.1c0,0,25.1,0,25.4,0
			C149.2,31.2,149.2,29.8,149.2,29.8z M133.9,20.2L133.9,20.2c5.8,0,9.2,2.8,9.9,7.8h-20C124.6,23,128.1,20.2,133.9,20.2z"/>
	</g>
	<polygon class="st0" points="0.2,32.8 0.2,0.7 32.3,0.7 	"/>
	<polygon class="st0" points="0.2,54.3 0.2,32.8 21.6,32.8 	"/>
	<polygon class="st0" points="53.8,0.7 53.8,32.8 21.6,32.8 	"/>
	<polygon class="st0" points="53.8,32.8 53.8,54.3 32.3,54.3 	"/>
</g>
</svg>
