<?xml version="1.0" encoding="iso-8859-1"?>
<!-- Generator: Adobe Illustrator 27.1.1, SVG Export Plug-In . SVG Version: 6.00 Build 0)  -->
<svg version="1.1" id="Layer_1" xmlns="http://www.w3.org/2000/svg" xmlns:xlink="http://www.w3.org/1999/xlink" x="0px" y="0px"
	 viewBox="0 0 2000 2000" style="enable-background:new 0 0 2000 2000;" xml:space="preserve">
<path style="fill:#FFFFFF;" d="M984.848,1127.01l-42.685,201.28L618.21,1429.97v92.43h549.09v-374.86L984.848,1127.01z"/>
<path style="fill:#313131;" d="M1167.3,1525.13H618.21c-0.722,0-1.415-0.29-1.926-0.8c-0.512-0.51-0.799-1.21-0.799-1.93v-92.43
	c0.001-0.58,0.185-1.14,0.526-1.61c0.34-0.46,0.821-0.81,1.371-0.99l322.449-101.19l42.358-199.74c0.137-0.66,0.516-1.25,1.063-1.66
	c0.548-0.4,1.225-0.59,1.902-0.52l182.446,20.56c0.67,0.08,1.28,0.39,1.73,0.89c0.44,0.5,0.69,1.14,0.69,1.81v374.97
	c-0.02,0.71-0.32,1.38-0.83,1.87C1168.68,1524.85,1168,1525.13,1167.3,1525.13z M620.935,1519.68h543.635v-369.69L987.007,1130
	l-42.162,198.86c-0.105,0.47-0.33,0.91-0.655,1.27s-0.738,0.63-1.198,0.78l-322.057,101.06V1519.68z"/>
<path style="fill:#313131;" d="M942.163,1331.02c-0.643,0-1.265-0.23-1.756-0.65c-0.491-0.41-0.819-0.99-0.926-1.62
	c-0.107-0.64,0.014-1.29,0.341-1.84c0.328-0.56,0.84-0.98,1.447-1.19l26.161-9.07c0.337-0.12,0.695-0.17,1.053-0.15
	c0.358,0.02,0.709,0.11,1.031,0.26c0.323,0.16,0.611,0.38,0.848,0.65s0.419,0.58,0.534,0.92c0.231,0.68,0.184,1.43-0.13,2.08
	c-0.314,0.64-0.87,1.14-1.549,1.39l-26.16,9.06C942.77,1330.97,942.468,1331.02,942.163,1331.02z"/>
<path style="fill:#313131;" d="M1087.38,1161.23l-53.72,360.8l20.01,0.37l38.59-359.25L1087.38,1161.23z"/>
<path style="fill:#313131;" d="M1463.23,807.786c0-32.134,4.36-205.119-64.22-288.767c-46.65-56.877-130.8-59.144-165.12,1.984
	c-4.05,7.01-7.32,14.445-9.74,22.171c-0.19,0.654-0.16,1.355,0.1,1.987c0.25,0.633,0.71,1.161,1.31,1.499
	c0.59,0.338,1.28,0.466,1.95,0.364c0.68-0.103,1.3-0.43,1.76-0.929c20.3-18.988,45.78-24.438,70.42,0
	c79.24,78.481,62.91,259.424,63.52,261.735L1463.23,807.786z"/>
<path style="fill:#313131;" d="M1463.24,810.511h-100.07c-0.61-0.001-1.2-0.206-1.67-0.581c-0.48-0.376-0.82-0.9-0.97-1.49
	c-0.21-1.686-0.21-3.393,0-5.079c2.64-55.417,1.81-191.254-62.87-255.369c-28.12-27.861-53.82-11.903-66.64,0
	c-0.87,0.921-2.04,1.515-3.3,1.682c-1.25,0.166-2.53-0.104-3.61-0.767c-1.13-0.622-2.01-1.609-2.49-2.798
	c-0.49-1.189-0.56-2.509-0.19-3.742c2.47-7.925,5.82-15.551,9.98-22.737c7.09-13.079,17.35-24.166,29.84-32.246
	c12.49-8.079,26.81-12.89,41.64-13.993c36.3-3.183,72.97,13.211,98.1,43.862c43.8,53.367,65.62,149.245,64.88,284.974
	c0,2.18,0,3.99,0,5.538c0.01,0.711-0.26,1.397-0.76,1.91C1464.62,810.189,1463.95,810.489,1463.24,810.511z M1366.01,805.061h94.5
	c0-0.894,0-1.831,0-2.834c0.72-134.421-20.69-229.121-63.64-281.486c-23.98-29.256-58.86-44.93-93.41-41.9
	c-13.95,1.039-27.41,5.566-39.16,13.166c-11.74,7.599-21.39,18.027-28.05,30.326c-3.96,6.832-7.15,14.086-9.51,21.626
	c0,0.109,0,0.196,0.16,0.327c0.15,0.13,0.28,0,0.35,0c24.39-22.847,51.42-22.847,74.34-0.131
	c63.85,63.221,67.79,189.663,64.48,259.424C1366.05,804.124,1366.03,804.603,1366.01,805.061z"/>
<path style="fill:#FFFFFF;" d="M1230.15,573.891c12.07,0,21.86-9.79,21.86-21.866c0-12.076-9.79-21.866-21.86-21.866
	c-12.08,0-21.87,9.79-21.87,21.866C1208.28,564.101,1218.07,573.891,1230.15,573.891z"/>
<path style="fill:#313131;" d="M1230.19,576.616c-3.58,0-7.12-0.782-10.37-2.29c-3.24-1.509-6.12-3.707-8.43-6.443
	c-2.31-2.736-4-5.943-4.94-9.397c-0.95-3.454-1.12-7.073-0.52-10.603c0.78-4.626,2.87-8.93,6.02-12.407
	c3.15-3.477,7.23-5.98,11.76-7.216c4.52-1.236,9.31-1.152,13.79,0.241s8.47,4.038,11.5,7.622c3.02,3.585,4.96,7.96,5.59,12.611
	c0.62,4.65-0.1,9.381-2.08,13.637c-1.97,4.255-5.12,7.857-9.08,10.38C1239.48,575.275,1234.88,576.616,1230.19,576.616z
	 M1230.19,532.863c-4.51,0.012-8.88,1.618-12.32,4.533c-3.45,2.915-5.76,6.953-6.52,11.403c-0.42,2.478-0.36,5.017,0.2,7.47
	c0.55,2.453,1.59,4.772,3.04,6.824c1.46,2.052,3.3,3.796,5.43,5.133c2.13,1.337,4.51,2.239,6.99,2.656
	c5,0.868,10.14-0.289,14.3-3.214c4.15-2.925,6.97-7.38,7.83-12.384c0.87-5.004-0.28-10.148-3.21-14.299
	c-2.92-4.152-7.38-6.972-12.38-7.839C1232.44,532.96,1231.31,532.865,1230.19,532.863z"/>
<path style="fill:#FFFFFF;" d="M1233.37,831.94l-75.95,102.658l99.76,53.585l141.83-55.939l-41.29-105.47l-56.16-148.33
	l-108.95,34.554L1233.37,831.94z"/>
<path style="fill:#313131;" d="M1257.18,990.908c-0.46,0.001-0.91-0.111-1.31-0.327l-99.8-53.563c-0.34-0.19-0.64-0.448-0.88-0.76
	c-0.24-0.311-0.4-0.669-0.5-1.049c-0.07-0.377-0.07-0.766,0.02-1.141c0.08-0.375,0.24-0.729,0.46-1.039l75.08-101.503
	l-40.28-117.591c-0.23-0.671-0.19-1.405,0.11-2.046c0.3-0.642,0.84-1.143,1.5-1.398l106.82-40.462c0.35-0.146,0.72-0.221,1.09-0.221
	c0.38,0,0.75,0.075,1.09,0.221c0.66,0.304,1.18,0.851,1.44,1.526l58.25,154.26l41.27,105.426c0.26,0.671,0.25,1.419-0.03,2.081
	c-0.29,0.662-0.83,1.184-1.5,1.451l-141.83,55.961C1257.86,990.845,1257.52,990.904,1257.18,990.908z M1161.5,933.704l95.92,51.493
	l138.12-54.501l-40.35-102.919l-57.31-151.731l-101.83,38.565l39.89,116.457c0.15,0.415,0.19,0.859,0.12,1.292
	c-0.07,0.433-0.24,0.843-0.51,1.194L1161.5,933.704z"/>
<path style="fill:#313131;" d="M1299.19,675.895l20.99,56.31c0,0-15.26-6.758-76.08,15.805L1299.19,675.895z"/>
<path style="fill:#313131;" d="M1244.1,750.735c-0.59,0.003-1.16-0.182-1.63-0.53c-0.47-0.347-0.82-0.838-0.99-1.398
	c-0.17-0.561-0.16-1.161,0.04-1.713c0.2-0.552,0.57-1.026,1.05-1.351l65.4-44.08c0.35-0.229,0.74-0.377,1.14-0.434
	c0.41-0.057,0.83-0.02,1.22,0.107c0.39,0.129,0.74,0.342,1.04,0.625s0.53,0.627,0.68,1.01l11.1,29.583
	c0.2,0.537,0.23,1.124,0.08,1.678s-0.48,1.047-0.92,1.407c-0.45,0.36-1,0.57-1.57,0.599c-0.58,0.029-1.14-0.123-1.63-0.436
	c0,0-13.21-5.973-74.23,14.781C1244.63,750.668,1244.37,750.719,1244.1,750.735z M1308.24,708.116l-46.66,31.392
	c31.83-9.57,47.46-10.464,54.79-9.745L1308.24,708.116z"/>
<path style="fill:#FFFFFF;" d="M1141.92,676.157c10.9,49.814,34.88,85.654,94.59,73.881c41.57-8.196,66.21-56.68,55.37-106.494
	c-10.83-49.814-53.19-82.841-94.61-73.882C1155.85,578.622,1131.08,626.343,1141.92,676.157z"/>
<path style="fill:#313131;" d="M1214.93,755.095c-39.39,0-64.22-25.811-75.65-78.35c-11.14-51.209,14.63-100.434,57.45-109.743
	c42.81-9.309,86.7,24.765,97.84,75.952c6.08,27.97,1.46,56.463-12.69,78.154c-4.99,7.989-11.52,14.9-19.21,20.329
	c-7.69,5.428-16.39,9.264-25.59,11.282C1229.79,754.249,1222.37,755.045,1214.93,755.095z M1144.6,675.589
	c12.84,59.036,41.88,81.861,91.39,71.789c8.5-1.864,16.55-5.411,23.66-10.431c7.12-5.021,13.15-11.414,17.76-18.803
	c13.36-20.493,17.7-47.46,11.92-74.122c-10.48-48.265-51.47-80.465-91.34-71.788s-63.92,55.089-53.41,103.355H1144.6z"/>
<path style="fill:#313131;" d="M1139.39,651.674c0,0-5.45-33.922,5.65-57.531c13.08-27.883,39.24-45.127,71.37-43.601
	c38.13,1.766,80.27,23.61,88.45,86.504c4.36,33.093-15.44,63.417-15.44,63.417l1.07-26.749c0,0-8.96,3.946-10.55-1.94
	c0,0,18.16-37.301-1.31-45.323c-17.85-7.347-18.31,17.44-18.31,17.44c-16.36-2.804-32.55-6.538-48.49-11.184
	c-17.17-5.511-33.89-12.355-50.01-20.47L1139.39,651.674z"/>
<path style="fill:#313131;" d="M1289.49,701.552c-0.36,0-0.72-0.066-1.05-0.196c-0.58-0.247-1.06-0.684-1.35-1.239
	c-0.3-0.555-0.4-1.194-0.29-1.813l3.89-19.381c-4.67,0-11.86-0.806-13.39-6.54c-0.17-0.632-0.11-1.306,0.17-1.896
	c0-0.218,10.9-22.847,6.28-35.252c-0.51-1.436-1.32-2.745-2.38-3.84c-1.06-1.094-2.35-1.948-3.76-2.503
	c-3.69-1.526-6.54-1.548-8.72-0.109c-4.58,2.986-5.76,11.946-5.83,15.151c0,0.388-0.1,0.771-0.26,1.121
	c-0.17,0.349-0.42,0.659-0.72,0.906c-0.29,0.254-0.64,0.438-1.02,0.54c-0.38,0.101-0.77,0.118-1.16,0.049
	c-16.48-2.817-32.78-6.573-48.83-11.249c-16.51-5.278-32.6-11.793-48.13-19.49l-21.17,37.061c-0.29,0.504-0.74,0.903-1.27,1.137
	c-0.53,0.235-1.12,0.293-1.69,0.166c-0.57-0.126-1.08-0.431-1.46-0.87c-0.38-0.438-0.61-0.987-0.66-1.567
	c-0.13-1.504-2.99-37.344,5.86-58.861c12.17-29.517,40.55-46.87,74.12-45.322c50.14,2.332,84.09,35.556,91.02,88.88
	c4.36,33.725-15,62.523-15.83,63.722c-0.23,0.423-0.58,0.775-1,1.02C1290.45,701.422,1289.97,701.552,1289.49,701.552z
	 M1294.06,673.212c0.38,0,0.74,0.076,1.08,0.222s0.65,0.36,0.91,0.628c0.3,0.316,0.51,0.699,0.63,1.116
	c0.12,0.418,0.13,0.857,0.04,1.282l-0.61,3.096c5.47-13.354,7.54-27.856,6.02-42.206c-9.48-72.769-63.22-83.081-85.87-84.127
	c-31.11-1.439-57.47,14.628-68.74,41.943c-5.71,13.865-6.19,34.881-5.91,46.98l17.82-31.24c0.34-0.61,0.92-1.062,1.59-1.261
	c0.67-0.2,1.4-0.13,2.02,0.193c15.97,8.035,32.53,14.821,49.53,20.296c14.87,4.34,29.97,7.87,45.22,10.573
	c0.57-4.512,2.33-12.709,8.02-16.437c3.77-2.464,8.42-2.594,13.82-0.392c2.12,0.838,4.03,2.118,5.6,3.753
	c1.58,1.635,2.79,3.589,3.56,5.73c4.93,12.905-3.51,33.136-5.89,38.325c1.57,1.722,7.04,2.18,10.77,1.591L1294.06,673.212z"/>
<path style="fill:#313131;" d="M1174.9,693.532c-5.05,0-5.99-0.96-6.54-1.505c-0.54-0.545-2.18-2.18-2.31-32.962
	c0-0.358,0.07-0.713,0.2-1.044c0.14-0.332,0.33-0.634,0.59-0.889c0.25-0.255,0.55-0.458,0.87-0.598
	c0.33-0.139,0.69-0.213,1.05-0.216c0.72,0,1.4,0.284,1.92,0.791c0.51,0.506,0.8,1.194,0.8,1.913c0,11.837,0.5,25.026,1.05,28.972
	c3.19,0.135,6.39,0.011,9.57-0.37c0.37-0.065,0.74-0.053,1.1,0.034c0.37,0.086,0.71,0.247,1.01,0.471
	c0.29,0.224,0.54,0.506,0.73,0.831c0.18,0.324,0.3,0.682,0.34,1.053c0.04,0.37,0,0.745-0.11,1.101
	c-0.11,0.357-0.29,0.686-0.53,0.969c-0.25,0.283-0.54,0.513-0.88,0.676c-0.34,0.163-0.7,0.255-1.07,0.271
	C1180.1,693.338,1177.51,693.505,1174.9,693.532z"/>
<path style="fill:#313131;" d="M1210.85,662.75c-0.42-0.006-0.84-0.109-1.22-0.302c-0.38-0.192-0.7-0.469-0.96-0.809
	c-0.39-0.545-10-13.299-25.96-8.721c-0.7,0.203-1.45,0.12-2.08-0.23c-0.64-0.349-1.11-0.937-1.31-1.634
	c-0.2-0.696-0.12-1.445,0.23-2.081c0.35-0.635,0.93-1.106,1.63-1.308c19.62-5.69,31.79,10.551,31.9,10.703
	c0.3,0.405,0.48,0.887,0.53,1.391c0.04,0.504-0.05,1.011-0.28,1.463c-0.22,0.453-0.57,0.833-1,1.1
	c-0.43,0.266-0.93,0.407-1.43,0.407L1210.85,662.75z"/>
<path style="fill:#313131;" d="M1140.33,659.456c-0.53-0.003-1.06-0.154-1.51-0.436c-0.6-0.396-1.02-1.016-1.17-1.723
	c-0.15-0.707-0.01-1.444,0.39-2.048c6.54-10.159,18.27-9.898,23.52-8.35c0.69,0.205,1.28,0.678,1.62,1.314
	c0.35,0.635,0.43,1.382,0.22,2.076c-0.2,0.694-0.67,1.278-1.31,1.623c-0.64,0.346-1.38,0.424-2.08,0.219
	c-0.45-0.152-11.38-3.161-17.44,6.083c-0.24,0.376-0.57,0.687-0.96,0.904C1141.21,659.335,1140.78,659.451,1140.33,659.456z"/>
<path style="fill:#313131;" d="M1272.83,654.049c-0.41,0.01-0.82-0.073-1.2-0.243c-0.38-0.169-0.71-0.422-0.98-0.738
	c-0.29-0.338-0.49-0.742-0.58-1.175c-0.1-0.433-0.08-0.882,0.03-1.31l3.01-10.66c0.2-0.697,0.66-1.287,1.3-1.641
	c0.63-0.353,1.37-0.441,2.07-0.245c0.7,0.197,1.29,0.662,1.64,1.294c0.36,0.631,0.44,1.378,0.25,2.074l-1.92,6.802h0.7
	c0.37-0.066,0.75-0.056,1.11,0.032c0.37,0.087,0.71,0.249,1.01,0.475c0.3,0.226,0.55,0.512,0.73,0.839
	c0.19,0.327,0.3,0.689,0.34,1.063c0.04,0.374,0,0.751-0.12,1.108c-0.11,0.358-0.3,0.688-0.55,0.969
	c-0.25,0.282-0.55,0.509-0.89,0.667c-0.34,0.158-0.71,0.245-1.09,0.253l-4.69,0.48L1272.83,654.049z"/>
<path style="fill:#313131;" d="M1189.82,674.302c1.78,0,3.22-1.444,3.22-3.226s-1.44-3.226-3.22-3.226
	c-1.79,0-3.23,1.444-3.23,3.226S1188.03,674.302,1189.82,674.302z"/>
<path style="fill:#313131;" d="M1154.19,674.434c1.79,0,3.23-1.444,3.23-3.226s-1.44-3.227-3.23-3.227
	c-1.78,0-3.22,1.445-3.22,3.227S1152.41,674.434,1154.19,674.434z"/>
<path style="fill:#FFFFFF;" d="M1273.54,681.697l8.36,5.121c3.05,1.867,7.04,0.908,8.9-2.142l5.13-8.367
	c1.86-3.05,0.9-7.036-2.15-8.903l-8.36-5.121c-3.05-1.867-7.04-0.908-8.91,2.142l-5.12,8.367
	C1269.53,675.844,1270.49,679.83,1273.54,681.697z"/>
<path style="fill:#313131;" d="M1285.08,690.085c-1.85-0.002-3.67-0.515-5.25-1.482l-6.83-4.186c-1.13-0.69-2.12-1.598-2.9-2.67
	c-0.78-1.073-1.34-2.289-1.65-3.58c-0.31-1.29-0.36-2.629-0.15-3.94c0.21-1.311,0.67-2.567,1.37-3.697l4.16-6.823
	c0.69-1.132,1.6-2.115,2.68-2.895c1.07-0.78,2.28-1.341,3.57-1.651c1.29-0.31,2.63-0.362,3.94-0.155
	c1.31,0.208,2.57,0.672,3.7,1.365l6.84,4.186c2.28,1.398,3.91,3.643,4.54,6.243c0.63,2.599,0.19,5.34-1.2,7.622l-4.19,6.845
	c-0.69,1.132-1.6,2.115-2.67,2.893c-1.07,0.778-2.29,1.336-3.58,1.642C1286.68,689.994,1285.88,690.089,1285.08,690.085z
	 M1275.84,679.774l6.84,4.185c1.06,0.635,2.32,0.831,3.51,0.545c0.61-0.15,1.17-0.421,1.67-0.796c0.49-0.374,0.9-0.845,1.21-1.384
	l4.19-6.823c0.63-1.054,0.83-2.316,0.54-3.513c-0.29-1.196-1.04-2.23-2.09-2.875l-6.82-4.185c-0.52-0.32-1.1-0.533-1.7-0.629
	c-0.61-0.097-1.22-0.073-1.81,0.069c-0.6,0.141-1.16,0.399-1.65,0.756c-0.49,0.358-0.91,0.81-1.23,1.33l-4.19,6.845
	c-0.32,0.519-0.53,1.096-0.63,1.698c-0.1,0.603-0.08,1.218,0.07,1.812c0.32,1.208,1.1,2.242,2.18,2.878L1275.84,679.774z"/>
<path style="fill:#313131;" d="M1191.36,708.877h-0.41c-0.73,0-1.42-0.287-1.93-0.798c-0.51-0.511-0.8-1.204-0.8-1.927
	c0-0.722,0.29-1.416,0.8-1.927c0.51-0.511,1.2-0.798,1.93-0.798h0.17c1.48,0,10.62-0.479,10.9-11.99
	c0.03-0.723,0.33-1.407,0.86-1.901c0.53-0.495,1.23-0.76,1.95-0.737c0.73,0.023,1.41,0.333,1.91,0.86
	c0.49,0.527,0.76,1.23,0.73,1.953C1207.23,705.324,1197.01,708.877,1191.36,708.877z"/>
<path style="fill:#FFFFFF;" d="M1233.37,831.941c0,0-16.48,86.22,26.99,93.087c46.09,7.26,97.36-98.254,97.36-98.254
	s237.63,41.072,281.23,111.967c43.6,70.899-5.71,337.119-5.71,337.119c-37.74-42.07-90.52-77.28-211.08-81.4l153.76,200.26v127.68
	h-522.31l38.58-359.25c0,0-77.69-34.88-131.473-5.6c0,0,51.423-221.076,100.613-253.101
	C1110.51,872.424,1233.37,831.941,1233.37,831.941z"/>
<path style="fill:#313131;" d="M1575.85,1525.13h-522.24c-0.39,0-0.76-0.08-1.11-0.24c-0.35-0.15-0.66-0.38-0.92-0.66
	c-0.27-0.29-0.46-0.64-0.58-1.01c-0.12-0.38-0.15-0.78-0.1-1.17l38.37-357.24c-11.9-4.93-79.77-30.85-127.248-4.93
	c-0.466,0.25-0.992,0.36-1.517,0.32c-0.526-0.05-1.028-0.24-1.448-0.56c-0.419-0.31-0.736-0.75-0.914-1.24
	c-0.178-0.5-0.209-1.03-0.089-1.55c2.18-9.07,52.326-222.491,101.786-254.755c48.9-31.85,171.37-72.399,172.62-72.813
	c0.45-0.144,0.93-0.168,1.39-0.07c0.47,0.098,0.9,0.315,1.25,0.629c0.36,0.314,0.63,0.714,0.78,1.163
	c0.16,0.448,0.19,0.929,0.11,1.395c-0.11,0.523-10.12,54.283,7.02,78.634c1.99,3.014,4.6,5.573,7.66,7.508
	c3.05,1.935,6.48,3.202,10.06,3.719c1.44,0.224,2.9,0.333,4.36,0.327c42.53,0,89.75-96.052,90.23-97.055
	c0.26-0.532,0.69-0.966,1.21-1.237c0.53-0.271,1.13-0.365,1.71-0.267c9.75,1.7,239.41,42.096,283.02,113.231
	c43.6,71.131-3.41,328.181-5.41,339.081c-0.09,0.51-0.32,0.98-0.66,1.37c-0.34,0.38-0.79,0.66-1.28,0.81c-0.49,0.14-1.01,0.14-1.5,0
	s-0.93-0.42-1.27-0.81c-34.71-38.67-83.41-75.08-203.35-80.26l150.22,195.65c0.37,0.48,0.57,1.06,0.57,1.66v127.69
	c-0.01,0.71-0.3,1.39-0.81,1.89C1577.26,1524.85,1576.57,1525.13,1575.85,1525.13z M1056.7,1519.68h516.43v-124.03l-153.28-199.45
	c-0.32-0.4-0.52-0.89-0.56-1.41c-0.05-0.51,0.06-1.03,0.3-1.49c0.23-0.46,0.59-0.84,1.04-1.1c0.44-0.27,0.95-0.4,1.47-0.38
	c122.08,4.19,174.86,41.25,209.28,78.2c6.54-38.2,44.12-266.12,5.1-329.775c-40.22-65.619-254.21-106.145-277.28-110.331
	c-6.93,14.018-51.14,98.145-94.13,98.145c-1.68-0.001-3.36-0.132-5.02-0.392c-4.29-0.642-8.41-2.171-12.08-4.491
	c-3.68-2.319-6.83-5.378-9.26-8.982c-15.56-22.171-10.9-64.311-8.72-78.263c-22.15,7.477-123.91,42.663-167.05,70.764
	c-43.15,28.1-89.625,210.985-98.106,245.735c53.866-24.83,125.466,6.78,128.626,8.19c0.53,0.25,0.97,0.67,1.26,1.18
	c0.28,0.52,0.39,1.12,0.31,1.7L1056.7,1519.68z"/>
<path style="fill:#313131;" d="M146.321,939.832c-0.379,0.001-0.753-0.078-1.099-0.232c-0.346-0.154-0.655-0.379-0.907-0.662
	c-0.243-0.264-0.431-0.574-0.553-0.911c-0.123-0.337-0.178-0.696-0.162-1.054c0.017-0.359,0.104-0.71,0.256-1.035
	c0.153-0.325,0.368-0.617,0.633-0.858c0.436-0.393,43.361-38.412,105.209-25.572c5.973,1.243,12.404,3.117,19.206,5.101
	c27.861,8.088,62.523,18.182,96.837-7.15c38.303-28.341,37.061-59.929,35.971-87.834c-0.482-7.491-0.482-15.006,0-22.498
	c5.864-62.894,54.827-92.76,55.329-93.065c0.621-0.37,1.364-0.478,2.066-0.301c0.701,0.178,1.303,0.627,1.673,1.249
	c0.37,0.621,0.478,1.365,0.3,2.066c-0.178,0.701-0.627,1.303-1.249,1.673c-0.479,0.283-47.088,28.82-52.691,88.88
	c-0.472,7.259-0.472,14.541,0,21.8c1.09,27.795,2.441,62.393-38.194,92.433c-36.451,26.946-72.574,16.438-101.59,8.001
	c-6.693-1.962-13.08-3.793-18.792-4.992c-59.057-12.274-100.02,23.98-100.434,24.285C147.627,939.59,146.985,939.83,146.321,939.832
	z"/>
<path style="fill:#313131;" d="M212.113,1024.5c-0.474,0-0.939-0.12-1.351-0.36c-0.412-0.23-0.758-0.56-1.004-0.97
	c-0.184-0.3-0.305-0.65-0.357-1c-0.051-0.35-0.032-0.72,0.057-1.06c0.09-0.35,0.247-0.67,0.463-0.96
	c0.216-0.29,0.487-0.53,0.797-0.71c0.457-0.28,47.088-28.816,52.713-88.876c0.46-7.259,0.46-14.54,0-21.8
	c-1.09-27.795-2.42-62.392,38.216-92.412c36.472-26.945,72.573-16.415,101.589-7.978c6.693,1.94,13.08,3.793,18.792,4.992
	c59.057,12.273,100.042-23.981,100.434-24.264c0.538-0.486,1.247-0.738,1.97-0.701c0.724,0.037,1.403,0.36,1.889,0.897
	c0.486,0.538,0.738,1.247,0.701,1.97c-0.037,0.724-0.359,1.403-0.897,1.889c-0.436,0.371-43.361,38.412-105.209,25.55
	c-5.973-1.243-12.404-3.118-19.206-5.101c-27.861-8.11-62.523-18.204-96.837,7.128c-38.303,28.341-37.06,59.929-35.992,87.834
	c0.492,7.484,0.492,14.992,0,22.476c-5.864,62.916-54.85,92.756-55.329,93.066C213.119,1024.37,212.62,1024.51,212.113,1024.5z"/>
<path style="fill:#313131;" d="M368.27,909.202c-0.424-0.003-0.843-0.104-1.221-0.297c-0.379-0.194-0.707-0.472-0.959-0.815
	l-64.943-87.899c-0.314-0.58-0.409-1.255-0.267-1.9c0.142-0.645,0.512-1.217,1.041-1.611c0.53-0.395,1.184-0.585,1.842-0.537
	c0.659,0.048,1.278,0.332,1.744,0.8l64.922,87.899c0.295,0.407,0.473,0.887,0.514,1.388c0.042,0.501-0.056,1.004-0.28,1.454
	c-0.225,0.45-0.569,0.829-0.995,1.097c-0.426,0.267-0.917,0.413-1.419,0.421H368.27z"/>
<path style="fill:#313131;" d="M330.575,927.622c-0.425-0.001-0.844-0.102-1.223-0.295c-0.378-0.194-0.706-0.473-0.957-0.817
	l-55.394-74.753c-0.373-0.581-0.512-1.282-0.389-1.96c0.124-0.679,0.5-1.286,1.053-1.699c0.554-0.412,1.243-0.599,1.929-0.523
	s1.317,0.41,1.767,0.933l55.373,74.841c0.216,0.286,0.373,0.613,0.462,0.961c0.089,0.348,0.107,0.71,0.054,1.065
	c-0.052,0.355-0.175,0.697-0.361,1.004c-0.186,0.307-0.432,0.574-0.722,0.785C331.7,927.485,331.142,927.645,330.575,927.622z"/>
<path style="fill:#313131;" d="M396.414,875.737c-0.423,0-0.841-0.098-1.219-0.287c-0.378-0.189-0.707-0.464-0.961-0.803
	l-52.822-70.589c-0.244-0.284-0.427-0.614-0.537-0.971s-0.146-0.733-0.104-1.105c0.041-0.371,0.158-0.73,0.344-1.055
	c0.186-0.324,0.436-0.606,0.736-0.83c0.3-0.223,0.642-0.382,1.006-0.467c0.364-0.086,0.741-0.095,1.109-0.028
	c0.368,0.066,0.718,0.208,1.028,0.416c0.311,0.208,0.576,0.477,0.778,0.792l52.822,70.567c0.433,0.579,0.62,1.305,0.517,2.021
	c-0.102,0.715-0.484,1.361-1.062,1.794C397.579,875.549,397.004,875.741,396.414,875.737z"/>
<path style="fill:#313131;" d="M247.32,988.446c-0.412,0.014-0.822-0.065-1.2-0.231c-0.377-0.166-0.712-0.415-0.98-0.728
	l-59.188-70.721c-0.231-0.274-0.405-0.592-0.512-0.934c-0.108-0.342-0.147-0.702-0.116-1.059c0.031-0.358,0.133-0.705,0.298-1.023
	c0.166-0.319,0.393-0.601,0.668-0.831c0.275-0.231,0.592-0.405,0.934-0.513c0.342-0.107,0.702-0.147,1.06-0.115
	c0.357,0.031,0.705,0.133,1.023,0.298c0.318,0.166,0.6,0.393,0.831,0.668l59.362,70.72c0.462,0.555,0.685,1.271,0.62,1.99
	c-0.066,0.72-0.414,1.384-0.969,1.847C248.642,988.247,247.988,988.473,247.32,988.446z"/>
<path style="fill:#313131;" d="M476.095,816.878c-0.424,0-0.841-0.099-1.219-0.288c-0.379-0.189-0.708-0.464-0.962-0.802
	l-53.476-70.415c-0.216-0.287-0.374-0.613-0.464-0.96c-0.09-0.347-0.111-0.709-0.061-1.064c0.05-0.355,0.169-0.697,0.35-1.007
	c0.182-0.309,0.423-0.579,0.709-0.795c0.287-0.216,0.613-0.374,0.96-0.464c0.347-0.09,0.709-0.111,1.064-0.062
	c0.355,0.05,0.697,0.169,1.007,0.351c0.309,0.182,0.579,0.422,0.795,0.709l53.477,70.415c0.295,0.407,0.473,0.887,0.514,1.388
	c0.041,0.501-0.056,1.004-0.281,1.454c-0.224,0.45-0.568,0.829-0.994,1.097c-0.426,0.267-0.917,0.413-1.419,0.421V816.878z"/>
<path style="fill:#313131;" d="M695.253,1140.07l-33.202-42.01l14.737-43.08l50.86-13.21l34.336,42.4l-14.738,43.04L695.253,1140.07
	z"/>
<path style="fill:#313131;" d="M695.252,1142.79c-0.419,0.01-0.833-0.09-1.211-0.27c-0.378-0.18-0.709-0.45-0.969-0.77
	l-33.202-41.99c-0.284-0.36-0.474-0.78-0.554-1.23c-0.08-0.45-0.047-0.91,0.096-1.34l14.868-43.1c0.151-0.43,0.403-0.81,0.733-1.11
	c0.331-0.3,0.73-0.52,1.164-0.64l50.795-13.1c0.504-0.14,1.036-0.12,1.531,0.04c0.496,0.16,0.934,0.47,1.259,0.88l34.336,42.4
	c0.291,0.36,0.486,0.78,0.566,1.24c0.08,0.45,0.043,0.92-0.108,1.35l-14.738,43.06c-0.148,0.43-0.401,0.81-0.736,1.12
	c-0.335,0.31-0.741,0.53-1.182,0.64l-51.994,12.84C695.688,1142.83,695.469,1142.82,695.252,1142.79z M665.102,1097.53l31.197,39.46
	l48.832-12.07l13.778-40.23l-32.308-39.85l-47.721,12.41L665.102,1097.53z"/>
<path style="fill:#FFFFFF;" d="M675.872,1054.57l-33.202-41.99l14.737-43.079l50.86-13.211l34.314,42.38l-14.737,43.06
	L675.872,1054.57z"/>
<path style="fill:#FFFFFF;" d="M609.664,1110.74l-33.202-41.98l14.737-43.08l50.86-13.21l34.336,42.38l-14.737,43.05
	L609.664,1110.74z"/>
<path style="fill:#313131;" d="M675.873,1057.29c-0.418,0.01-0.832-0.08-1.21-0.26c-0.378-0.17-0.71-0.44-0.97-0.76l-33.224-41.99
	c-0.282-0.36-0.47-0.79-0.546-1.24c-0.076-0.46-0.038-0.92,0.11-1.36l14.759-43.073c0.144-0.426,0.393-0.81,0.725-1.114
	c0.331-0.305,0.734-0.522,1.171-0.63l50.839-13.211c0.507-0.137,1.043-0.123,1.542,0.039c0.499,0.163,0.941,0.468,1.27,0.877
	l34.335,42.402c0.292,0.357,0.487,0.783,0.567,1.237c0.08,0.454,0.043,0.921-0.109,1.357l-14.737,43.056
	c-0.152,0.43-0.409,0.82-0.747,1.13c-0.339,0.3-0.749,0.52-1.193,0.64l-51.994,12.84L675.873,1057.29z M645.723,1012.06
	l31.196,39.45l48.833-12.07l13.778-40.225l-32.287-39.851l-47.721,12.404L645.723,1012.06z"/>
<path style="fill:#313131;" d="M609.665,1113.47c-0.417,0.01-0.831-0.08-1.209-0.26c-0.378-0.18-0.71-0.44-0.971-0.76l-33.202-41.99
	c-0.284-0.36-0.474-0.78-0.554-1.23c-0.08-0.45-0.047-0.91,0.097-1.34l14.758-43.1c0.148-0.43,0.399-0.81,0.73-1.11
	c0.33-0.31,0.732-0.53,1.167-0.64l50.86-13.21c0.504-0.13,1.036-0.12,1.532,0.04c0.496,0.17,0.933,0.47,1.259,0.88l34.335,42.4
	c0.291,0.36,0.486,0.78,0.567,1.24c0.08,0.45,0.042,0.92-0.109,1.35l-14.737,43.06c-0.152,0.43-0.406,0.81-0.74,1.12
	c-0.335,0.31-0.739,0.53-1.178,0.65l-51.951,12.79L609.665,1113.47z M579.515,1068.24l31.197,39.45l48.832-12.07l13.778-40.23
	l-32.264-39.85l-47.743,12.41L579.515,1068.24z"/>
<path style="fill:#313131;" d="M708.266,959.016c-0.296-0.008-0.59-0.06-0.872-0.153c-0.341-0.113-0.657-0.293-0.929-0.528
	c-0.271-0.236-0.494-0.524-0.654-0.846c-0.16-0.322-0.255-0.673-0.279-1.032c-0.023-0.359,0.024-0.719,0.14-1.06l15.042-44.233
	c0.111-0.341,0.289-0.656,0.523-0.927c0.233-0.272,0.519-0.494,0.839-0.655c0.321-0.16,0.67-0.255,1.027-0.279
	c0.358-0.024,0.717,0.023,1.056,0.139c0.682,0.238,1.244,0.735,1.562,1.384s0.368,1.397,0.138,2.082l-15.02,44.255
	c-0.182,0.539-0.528,1.007-0.989,1.339C709.389,958.834,708.835,959.014,708.266,959.016z"/>
<path style="fill:#313131;" d="M728.999,910.661c8.609,0,15.588-6.979,15.588-15.587c0-8.609-6.979-15.588-15.588-15.588
	c-8.608,0-15.587,6.979-15.587,15.588C713.412,903.682,720.391,910.661,728.999,910.661z"/>
<path style="fill:#313131;" d="M729,913.365c-3.623,0-7.164-1.075-10.176-3.088c-3.012-2.013-5.359-4.874-6.745-8.222
	c-1.385-3.347-1.746-7.03-1.038-10.583c0.708-3.553,2.455-6.816,5.018-9.376c2.563-2.56,5.828-4.302,9.382-5.007
	c3.553-0.704,7.236-0.338,10.582,1.051c3.345,1.39,6.204,3.74,8.213,6.755c2.01,3.014,3.08,6.557,3.076,10.179
	c-0.006,4.853-1.938,9.505-5.371,12.935C738.507,911.438,733.853,913.365,729,913.365z M729,882.212
	c-2.544,0-5.031,0.754-7.146,2.168c-2.115,1.413-3.764,3.422-4.737,5.772c-0.974,2.35-1.229,4.937-0.732,7.432
	c0.496,2.495,1.721,4.786,3.52,6.585c1.799,1.799,4.09,3.024,6.585,3.52c2.496,0.497,5.082,0.242,7.432-0.732
	c2.35-0.973,4.359-2.622,5.772-4.737c1.414-2.115,2.168-4.602,2.168-7.146c-0.023-3.398-1.388-6.649-3.797-9.046
	c-2.409-2.397-5.667-3.745-9.065-3.75V882.212z"/>
<path style="fill:#FFFFFF;" d="M792.796,655.899l22.968-22.968l100.662,100.661c3.045,3.046,4.757,7.177,4.757,11.484
	c0,4.308-1.712,8.439-4.757,11.484c-3.046,3.046-7.177,4.757-11.485,4.757c-4.307,0-8.438-1.711-11.484-4.757L792.796,655.899z"/>
<path style="fill:#313131;" d="M904.928,764.033c-2.489,0.004-4.954-0.483-7.255-1.433c-2.3-0.95-4.391-2.345-6.152-4.104
	L790.847,657.735c-0.5-0.513-0.781-1.202-0.781-1.919c0-0.717,0.281-1.405,0.781-1.918l22.956-22.89
	c0.253-0.254,0.554-0.455,0.885-0.593c0.331-0.137,0.686-0.208,1.044-0.208c0.359,0,0.714,0.071,1.045,0.208
	c0.331,0.138,0.632,0.339,0.885,0.593L918.445,731.66c3.55,3.563,5.544,8.388,5.544,13.418c0,5.03-1.994,9.855-5.544,13.418
	c-1.774,1.772-3.882,3.175-6.203,4.125C909.922,763.572,907.436,764.052,904.928,764.033z M796.646,655.904l98.712,98.733
	c2.535,2.536,5.974,3.96,9.56,3.96c3.585,0,7.024-1.424,9.559-3.96c2.535-2.535,3.96-5.974,3.96-9.559
	c0-3.586-1.425-7.024-3.96-9.56l-98.712-98.733L796.646,655.904z"/>
<path style="fill:#FFFFFF;" d="M767.891,685.813c43.464,0,78.699-35.235,78.699-78.7c0-43.464-35.235-78.699-78.699-78.699
	c-43.465,0-78.7,35.235-78.7,78.699C689.191,650.578,724.426,685.813,767.891,685.813z"/>
<path style="fill:#313131;" d="M767.89,688.537c-18.838,0-37.093-6.531-51.655-18.481c-14.563-11.951-24.531-28.581-28.206-47.056
	c-3.676-18.476-0.831-37.655,8.049-54.269c8.879-16.614,23.245-29.634,40.649-36.844c17.404-7.209,36.769-8.161,54.796-2.693
	c18.027,5.468,33.6,17.018,44.066,32.681s15.178,34.47,13.332,53.217c-1.847,18.748-10.136,36.275-23.456,49.595
	c-7.543,7.586-16.515,13.599-26.398,17.693S778.587,688.567,767.89,688.537z M767.89,531.16
	c-17.572,0.005-34.598,6.102-48.179,17.253c-13.58,11.15-22.874,26.665-26.298,43.9c-3.424,17.235-0.766,35.123,7.52,50.619
	c8.287,15.495,21.69,27.637,37.926,34.358c16.235,6.721,34.299,7.604,51.113,2.5c16.814-5.104,31.338-15.88,41.098-30.493
	c9.759-14.612,14.15-32.156,12.425-49.643c-1.726-17.487-9.462-33.834-21.889-46.257c-7.038-7.075-15.41-12.683-24.63-16.5
	C787.755,533.08,777.869,531.13,767.89,531.16z"/>
<path style="fill:#313131;" d="M826.688,692.616c-0.538,0.001-1.065-0.157-1.513-0.455c-0.449-0.298-0.799-0.722-1.006-1.219
	c-0.208-0.497-0.264-1.044-0.161-1.572c0.103-0.529,0.361-1.015,0.74-1.397l22.977-22.978c0.512-0.511,1.206-0.799,1.93-0.799
	c0.723,0,1.417,0.288,1.929,0.799c0.512,0.512,0.799,1.206,0.799,1.93c0,0.723-0.287,1.417-0.799,1.929l-22.978,22.956
	c-0.248,0.257-0.546,0.462-0.876,0.6C827.4,692.549,827.046,692.619,826.688,692.616z"/>
<path style="fill:#313131;" d="M714.415,621.939c-0.65,0.001-1.279-0.231-1.771-0.656c-0.493-0.424-0.816-1.012-0.91-1.655
	l-3.924-25.572c-0.114-0.699,0.05-1.414,0.457-1.993c0.408-0.579,1.027-0.975,1.723-1.102c0.701-0.11,1.416,0.056,1.997,0.463
	c0.581,0.406,0.983,1.021,1.12,1.717l3.924,25.571c0.11,0.701-0.056,1.416-0.463,1.998c-0.406,0.581-1.021,0.982-1.717,1.12
	L714.415,621.939z"/>
<path style="fill:#313131;" d="M729.283,632.446c-0.651-0.002-1.281-0.236-1.776-0.659c-0.495-0.423-0.824-1.009-0.927-1.652
	l-3.924-25.572c-0.101-0.715,0.082-1.442,0.51-2.024c0.428-0.583,1.066-0.975,1.779-1.093c0.714-0.107,1.441,0.075,2.021,0.504
	c0.581,0.429,0.967,1.071,1.075,1.785l3.946,25.659c0.106,0.714-0.076,1.441-0.505,2.021c-0.429,0.58-1.071,0.967-1.785,1.074
	L729.283,632.446z"/>
<path style="fill:#FFFFFF;" d="M1616.97,1259.29c-7.56,27.3-21.3,75.37-37.06,123.5c-21.8,65.82-44.47,132.05-109.92,139.52
	c-129.45,14.96-292.12-80.11-416.84-85.02c-58.862-2.18-106.365,21.96-131.566,33.25c-25.201,11.29-24.133-2.73-24.133-2.73
	s-12.644,12.65-21.016,9.14c-4.491-1.88-2.529-9.73-2.529-9.73s-13.886,10.69-19.86,6.04c-5.973-4.64,6.192-22.04,6.78-22.93
	c-0.588,0.22-10.137,4.16-13.581,1.33c-12.666-10.4,55.547-104.1,202.265-130.52c83.21-14.98,332.8,22.65,332.8,22.65l39.72-149.33
	C1526.41,1198.03,1579.98,1224.85,1616.97,1259.29z"/>
<path style="fill:#313131;" d="M1441.19,1526.74c-65.72,0-138.08-22.8-208.34-44.93c-64.49-20.32-125.4-39.5-179.9-41.64
	c-53.409-2.07-97.467,18.03-123.802,30.04l-6.54,2.99c-11.489,5.12-19.381,6.01-24.133,2.66c-1.07-0.76-1.956-1.74-2.594-2.88
	c-4.775,3.9-13.473,9.64-20.58,6.67c-1.318-0.62-2.441-1.59-3.245-2.8c-0.804-1.22-1.257-2.63-1.311-4.09
	c-5.254,3.21-13.364,6.8-18.443,2.81c-5.08-3.99-1.875-12.97,2.311-20.38c-3.532,0.68-6.955,0.59-9.178-1.24
	c-1.722-1.42-3.445-4.36-1.875-10.31c7.063-27.17,76.301-101.75,205.38-125.01c79.29-14.28,303.88,18.21,331.37,22.28l39.24-147.15
	c0.14-0.6,0.5-1.13,0.99-1.5c0.5-0.38,1.11-0.56,1.73-0.53c90.63,3.1,151.27,23.33,196.64,65.56c0.36,0.34,0.63,0.77,0.76,1.25
	s0.14,0.99,0,1.47c-8.5,30.74-21.8,77.15-37.06,123.63c-20.64,62.61-44.01,133.59-112.18,141.49
	C1460.72,1526.22,1450.96,1526.76,1441.19,1526.74z M1045.26,1434.59c2.61,0,5.25,0,7.91,0.15c55.22,2.18,116.48,21.43,181.31,41.86
	c80.25,25.29,163.22,51.43,235.12,43.12c64.7-7.5,86.53-73.73,107.63-137.8c15.02-45.56,28.14-91.08,36.67-121.76
	c-29.78-27.35-78.48-58.73-189.67-62.89l-39.24,147.39c-0.16,0.65-0.57,1.22-1.13,1.58c-0.56,0.37-1.24,0.51-1.9,0.41
	c-2.48-0.37-250.09-37.39-331.91-22.65c-125.066,22.62-194.631,95.7-201.214,121.01c-0.698,2.66-0.48,4.36,0,4.73
	c0.479,0.37,4.36,0.76,10.747-1.72c0.548-0.22,1.151-0.26,1.723-0.12c0.572,0.15,1.083,0.47,1.46,0.92
	c0.377,0.44,0.601,1,0.636,1.57c0.036,0.58-0.119,1.16-0.44,1.64c-6.649,9.79-9.178,17.83-7.368,19.25
	c2.921,2.29,11.597-2.18,16.503-6.04c0.446-0.37,0.996-0.58,1.572-0.61c0.576-0.04,1.148,0.11,1.632,0.43
	c0.485,0.31,0.858,0.77,1.066,1.31c0.207,0.53,0.239,1.13,0.09,1.68c-0.48,1.94-0.698,5.89,0.937,6.54
	c5.428,2.18,15.086-5.62,18.051-8.56c0.396-0.4,0.905-0.67,1.458-0.77c0.553-0.09,1.122-0.02,1.63,0.22
	c0.509,0.24,0.931,0.63,1.209,1.12c0.278,0.48,0.399,1.05,0.346,1.61c-0.015,0.62,0.119,1.24,0.392,1.81
	c0.273,0.56,0.677,1.06,1.178,1.43c1.373,0.94,5.951,2.51,18.705-3.22c2.049-0.9,4.207-1.9,6.54-2.95
	C952.365,1453.64,994.157,1434.59,1045.26,1434.59z"/>
<path style="fill:#313131;" d="M1454.49,1361.89h-0.58c-0.48-0.11-49.34-10.9-72.19-15.13c-0.35-0.07-0.68-0.2-0.98-0.4
	c-0.3-0.19-0.56-0.45-0.76-0.74c-0.21-0.3-0.35-0.63-0.42-0.98c-0.08-0.35-0.08-0.71-0.02-1.07c0.07-0.35,0.2-0.68,0.4-0.98
	c0.2-0.3,0.45-0.56,0.74-0.77c0.3-0.2,0.63-0.34,0.98-0.41c0.35-0.08,0.72-0.08,1.07-0.02c22.93,4.36,71.94,15.05,72.35,15.26
	c0.64,0.17,1.2,0.56,1.58,1.1s0.54,1.21,0.47,1.86c-0.07,0.66-0.38,1.27-0.86,1.72c-0.48,0.45-1.12,0.71-1.78,0.73V1361.89z"/>
<path style="fill:#313131;" d="M897.362,1470.71c-0.429,0-0.851-0.1-1.234-0.3c-0.382-0.19-0.714-0.47-0.968-0.82
	c-0.255-0.34-0.424-0.74-0.496-1.16c-0.072-0.43-0.044-0.86,0.082-1.27c4.774-15.26,60.583-53,84.193-61.76
	c0.336-0.13,0.694-0.18,1.052-0.17c0.359,0.01,0.711,0.1,1.037,0.25s0.619,0.36,0.863,0.62c0.244,0.27,0.433,0.58,0.558,0.91
	c0.124,0.34,0.181,0.7,0.168,1.05c-0.014,0.36-0.098,0.71-0.248,1.04c-0.15,0.33-0.362,0.62-0.625,0.86
	c-0.263,0.25-0.572,0.44-0.908,0.56c-25.812,9.57-77.217,46.61-80.88,58.27c-0.171,0.56-0.516,1.04-0.982,1.39
	C898.507,1470.52,897.942,1470.71,897.362,1470.71z"/>
<path style="fill:#313131;" d="M873.819,1470.12c-0.407,0-0.809-0.09-1.178-0.26c-0.65-0.31-1.15-0.87-1.39-1.55
	c-0.241-0.69-0.204-1.43,0.104-2.09c8.72-18.4,49.574-59.06,77.653-73.9c0.639-0.34,1.386-0.41,2.077-0.2
	c0.691,0.22,1.269,0.69,1.607,1.33c0.338,0.64,0.409,1.39,0.196,2.08c-0.212,0.69-0.691,1.27-1.329,1.61
	c-28.341,15-67.582,55.5-75.299,71.44c-0.219,0.46-0.564,0.85-0.996,1.12C874.831,1469.98,874.33,1470.12,873.819,1470.12z"/>
<path style="fill:#313131;" d="M860.781,1453.19c-0.516,0-1.022-0.15-1.46-0.42c-0.304-0.19-0.567-0.43-0.774-0.73
	c-0.208-0.29-0.355-0.62-0.434-0.97c-0.079-0.34-0.088-0.71-0.027-1.06s0.192-0.69,0.385-0.99
	c7.477-11.94,43.949-51.88,69.761-68.04c0.303-0.21,0.646-0.35,1.007-0.42c0.361-0.08,0.733-0.07,1.094,0
	c0.361,0.08,0.702,0.22,1.004,0.43s0.558,0.48,0.753,0.8c0.195,0.31,0.324,0.66,0.38,1.02c0.056,0.37,0.038,0.74-0.054,1.1
	c-0.091,0.35-0.255,0.69-0.479,0.98c-0.225,0.29-0.506,0.53-0.828,0.72c-24.699,15.47-60.91,55-67.995,66.31
	c-0.249,0.39-0.594,0.72-1.002,0.94S861.246,1453.19,860.781,1453.19z"/>
<path style="fill:#313131;" d="M1402.8,1198.86c-0.43,0-0.85-0.1-1.23-0.29c-0.38-0.2-0.71-0.48-0.97-0.83
	c-0.25-0.34-0.42-0.74-0.48-1.17c-0.07-0.42-0.04-0.85,0.09-1.26l29.17-91.56c0.1-0.35,0.28-0.66,0.51-0.94
	c0.23-0.27,0.51-0.5,0.83-0.67c0.32-0.16,0.66-0.27,1.02-0.3c0.36-0.03,0.72,0.01,1.06,0.12c0.69,0.22,1.26,0.71,1.6,1.36
	c0.33,0.64,0.4,1.39,0.19,2.08l-27.82,87.21c5.06-0.66,10.16-0.97,15.26-0.94c0.72,0,1.42,0.29,1.93,0.8s0.8,1.2,0.8,1.92
	c0,0.73-0.29,1.42-0.8,1.93c-0.51,0.51-1.21,0.8-1.93,0.8c-6.24-0.16-12.47,0.37-18.59,1.59
	C1403.23,1198.79,1403.02,1198.84,1402.8,1198.86z"/>
<path style="fill:#313131;" d="M1092.26,1165.88h-0.33c-0.71-0.09-1.36-0.46-1.81-1.03c-0.44-0.57-0.65-1.29-0.56-2l9.39-78.24
	c0.11-0.7,0.49-1.32,1.05-1.75c0.57-0.42,1.27-0.61,1.97-0.53c0.7,0.09,1.34,0.44,1.78,0.99c0.45,0.54,0.66,1.24,0.61,1.94
	l-9.33,78.24c-0.08,0.67-0.41,1.29-0.93,1.73C1093.59,1165.67,1092.93,1165.9,1092.26,1165.88z"/>
<path style="fill:#313131;" d="M976.063,1168.43l3.946-18.57c0,0-18.029,5.51-19.228,7.69
	C959.582,1159.73,964.443,1167.34,976.063,1168.43z"/>
<path style="fill:#313131;" d="M1417.39,1209.92l4.64-15.46l-19.29,1.68C1402.74,1196.14,1403.68,1205.6,1417.39,1209.92z"/>
<path style="fill:#313131;" d="M1616.97,1259.29l16.2,16.57c0,0-7.65,4.95-20.97,0.42L1616.97,1259.29z"/>
<path style="fill:#313131;" d="M976.063,1171.15h-0.239c-9.309-0.85-14.956-5.6-16.983-9.41c-0.526-0.81-0.844-1.73-0.924-2.68
	c-0.079-0.96,0.081-1.92,0.466-2.8c0.48-0.87,1.744-3.16,20.82-8.98c0.452-0.14,0.933-0.15,1.395-0.05
	c0.462,0.1,0.889,0.33,1.239,0.64c0.35,0.32,0.611,0.73,0.757,1.18c0.145,0.45,0.171,0.93,0.075,1.39l-3.924,18.58
	c-0.139,0.61-0.479,1.15-0.967,1.54C977.291,1170.94,976.686,1171.15,976.063,1171.15z M963.485,1158.84
	c0.697,1.54,3.793,5.23,10.442,6.54l2.442-11.51C971.959,1155.21,967.653,1156.87,963.485,1158.84z"/>
<path style="fill:#313131;" d="M1417.39,1212.64c-0.28,0-0.55-0.05-0.81-0.13c-15.26-4.8-16.44-15.65-16.5-16.13
	c-0.06-0.72,0.17-1.44,0.64-1.99c0.46-0.56,1.13-0.91,1.84-0.98l19.3-1.68c0.44-0.03,0.89,0.04,1.3,0.22
	c0.41,0.17,0.77,0.44,1.05,0.79c0.28,0.34,0.47,0.75,0.55,1.19c0.09,0.44,0.06,0.89-0.07,1.31l-4.69,15.46
	c-0.21,0.69-0.69,1.27-1.32,1.61C1418.28,1212.53,1417.84,1212.64,1417.39,1212.64z M1406.49,1198.56c2.02,3.62,5.29,6.39,9.2,7.8
	l2.68-8.85L1406.49,1198.56z"/>
<path style="fill:#313131;" d="M1622.99,1280.9c-3.98-0.04-7.92-0.73-11.67-2.05c-0.66-0.22-1.21-0.69-1.53-1.31
	c-0.33-0.61-0.4-1.33-0.21-2l4.75-16.99c0.14-0.45,0.39-0.87,0.73-1.2c0.34-0.33,0.76-0.57,1.23-0.69c0.46-0.12,0.94-0.12,1.4,0.01
	c0.46,0.13,0.88,0.37,1.22,0.71l16.2,16.56c0.28,0.29,0.49,0.64,0.63,1.02c0.13,0.39,0.17,0.79,0.13,1.2
	c-0.04,0.4-0.18,0.78-0.39,1.13c-0.21,0.34-0.49,0.64-0.83,0.86C1631.08,1280.09,1627.05,1281.04,1622.99,1280.9z M1615.55,1274.36
	c4.16,1.23,8.57,1.36,12.8,0.39l-10.11-10.18L1615.55,1274.36z"/>
<path style="fill:#FFFFFF;" d="M1030.91,1494.04H613.064v28.36h417.846V1494.04z"/>
<path style="fill:#313131;" d="M1030.91,1525.13H613.065c-0.723,0-1.416-0.29-1.927-0.8s-0.798-1.21-0.798-1.93v-28.34
	c0-0.72,0.287-1.42,0.798-1.93s1.204-0.8,1.927-0.8h417.845c0.72,0,1.42,0.29,1.93,0.8s0.8,1.21,0.8,1.93v28.34
	c0,0.72-0.29,1.42-0.8,1.93S1031.63,1525.13,1030.91,1525.13z M615.79,1519.68h412.4v-22.92h-412.4V1519.68z"/>
<path style="fill:#FFFFFF;" d="M311.088,1237.23h372.807l98.778,284.8h-372.83L311.088,1237.23z"/>
<path style="opacity:0.15;fill:#FFFFFF;enable-background:new    ;" d="M662.618,1237.23h21.277l98.778,284.8H760.85
	L662.618,1237.23z"/>
<path style="fill:#313131;" d="M782.674,1524.76H409.888c-0.566,0-1.118-0.18-1.579-0.51s-0.808-0.79-0.994-1.33l-98.755-284.8
	c-0.14-0.41-0.181-0.85-0.121-1.28c0.061-0.43,0.222-0.84,0.47-1.2c0.246-0.35,0.573-0.63,0.952-0.83c0.379-0.2,0.8-0.3,1.228-0.3
	h372.785c0.568-0.01,1.123,0.16,1.585,0.49c0.462,0.33,0.808,0.8,0.988,1.34l98.799,284.8c0.143,0.41,0.185,0.85,0.123,1.28
	c-0.061,0.43-0.224,0.84-0.476,1.19s-0.585,0.64-0.971,0.84C783.536,1524.65,783.108,1524.76,782.674,1524.76z M411.785,1519.31
	h367.139l-96.968-279.35h-367.03L411.785,1519.31z"/>
<path style="fill:#313131;" d="M782.672,1524.76h-21.8c-0.567,0-1.12-0.18-1.582-0.51c-0.461-0.32-0.808-0.79-0.991-1.33
	l-98.254-284.82c-0.14-0.41-0.181-0.84-0.12-1.27c0.06-0.43,0.221-0.84,0.469-1.19c0.249-0.35,0.576-0.63,0.955-0.83
	c0.379-0.19,0.798-0.3,1.225-0.3h21.277c0.567-0.01,1.122,0.16,1.584,0.49c0.463,0.33,0.809,0.8,0.988,1.34l98.821,284.8
	c0.143,0.41,0.185,0.85,0.124,1.28c-0.062,0.43-0.225,0.84-0.477,1.19s-0.584,0.64-0.97,0.84
	C783.535,1524.65,783.106,1524.76,782.672,1524.76z M762.79,1519.31h16.132l-96.968-279.35h-15.521L762.79,1519.31z"/>
<path style="fill:#FFFFFF;" d="M550.862,1416.21c16.584-7.48,22.085-31.15,12.287-52.87c-9.798-21.72-31.184-33.26-47.767-25.78
	c-16.583,7.48-22.084,31.15-12.286,52.87C512.893,1412.15,534.279,1423.69,550.862,1416.21z"/>
<path style="fill:#313131;" d="M541.976,1420.01c-4.272-0.02-8.511-0.75-12.536-2.18c-10.804-4.07-19.988-11.55-26.16-21.3
	c-13.865-21.17-11.75-47.14,4.687-57.93c8.088-5.29,18.312-6.17,28.798-2.48c10.709,4.23,19.846,11.68,26.157,21.31
	s9.488,20.98,9.094,32.49c-0.784,11.1-5.69,20.12-13.777,25.42C553.392,1418.46,547.737,1420.08,541.976,1420.01z M524.252,1339.34
	c-4.711-0.06-9.337,1.27-13.298,3.82c-13.931,9.13-15.261,31.74-3.118,50.38c5.518,8.75,13.737,15.47,23.414,19.14
	c8.851,3.12,17.44,2.44,23.98-1.9c6.54-4.33,10.66-11.88,11.336-21.25c0.501-10.34-2.384-20.56-8.218-29.1
	c-5.51-8.77-13.731-15.5-23.414-19.17c-3.423-1.26-7.035-1.93-10.682-1.98V1339.34z"/>
<path style="fill:#313131;" d="M1271.33,968.368c0,0,24.46,31.962,59.03,11.772c34.58-20.187,19.62-57.16,19.62-57.16
	s50.14-3.837,59.17-40.658c9.63-39.088-45.52-54.762-45.52-54.762L1271.33,968.368z"/>
<path style="fill:#FFFFFF;" d="M1357.72,826.774c0,0,54.72,16.46,45.09,55.548c-9.1,36.82-59.15,40.657-59.15,40.657
	s14.96,36.952-19.62,57.161c-34.57,20.21-59.01-11.772-59.01-11.772s-33.16,32.332-60.06,11.772c-29.32-22.455,0-54.697,0-54.697
	s-29.32-4.36-29.32-34.881c0-31.741,57.74-58.621,57.74-58.621s-15.89,89.534,26.99,93.087
	C1308.8,929.018,1357.72,826.774,1357.72,826.774z"/>
<path style="fill:#313131;" d="M1224.78,989.644c-7.79,0.042-15.36-2.547-21.49-7.347c-8.46-6.54-13.08-14.366-13.98-23.457
	c-1.22-13.495,6.54-25.964,10.9-31.807c-8.72-2.703-27.27-11.423-27.27-36.472c0-33.093,56.9-59.973,59.32-61.041
	c0.45-0.216,0.95-0.302,1.45-0.248c0.5,0.054,0.97,0.246,1.36,0.553c0.4,0.304,0.7,0.711,0.88,1.176
	c0.18,0.465,0.23,0.971,0.15,1.462c-0.11,0.567-9.97,57.662,7.8,80.662c1.94,2.664,4.45,4.868,7.34,6.454
	c2.89,1.587,6.09,2.516,9.38,2.723c0.87,0,1.75,0.109,2.6,0.109c45.21,0,91.56-95.921,92.1-96.815c0.28-0.583,0.76-1.046,1.35-1.306
	c0.6-0.26,1.26-0.299,1.88-0.111c0.59,0.175,57.09,17.658,46.94,58.861c-8.14,32.984-46.37,40.723-58.19,42.336
	c2.81,9.963,8.11,39.677-21.8,57.183c-30.52,17.871-54-3.118-60.65-10.268C1259.03,977.109,1242.59,989.644,1224.78,989.644z
	 M1229.88,836.758c-13.47,7.085-51.53,29.278-51.53,53.803c0,27.774,25.9,32.025,27.01,32.177c0.48,0.079,0.94,0.287,1.32,0.602
	c0.37,0.315,0.66,0.726,0.83,1.189c0.16,0.463,0.2,0.962,0.1,1.445c-0.09,0.483-0.31,0.931-0.64,1.299
	c-0.13,0.153-13.67,15.26-12.23,31.109c0.68,7.499,4.69,14.083,11.86,19.62c24.7,18.879,56.18-11.227,56.49-11.532
	c0.28-0.28,0.62-0.494,1-0.626s0.78-0.179,1.18-0.137c0.38,0.027,0.75,0.134,1.09,0.314s0.63,0.43,0.87,0.732
	c0.94,1.221,23.46,29.78,55.48,11.075s19.05-52.321,18.49-53.781c-0.18-0.405-0.26-0.846-0.23-1.286
	c0.03-0.441,0.17-0.867,0.4-1.243c0.24-0.371,0.56-0.681,0.94-0.905c0.38-0.223,0.8-0.354,1.24-0.382
	c0.48,0,48.22-4.142,56.68-38.586c7.85-31.829-31.24-47.961-41.05-51.536c-7.63,15.26-52.65,101.415-98.97,97.6
	c-4.05-0.278-7.99-1.432-11.55-3.382c-3.56-1.949-6.66-4.648-9.07-7.911C1223.47,895.597,1227.77,851.975,1229.88,836.758z"/>
<path style="fill:#313131;" d="M1900.22,1525.39H100.278c-0.723,0-1.416-0.29-1.927-0.8c-0.511-0.51-0.798-1.2-0.798-1.93
	c0-0.72,0.287-1.41,0.798-1.92c0.511-0.52,1.204-0.8,1.927-0.8H1900.22c0.73,0,1.42,0.28,1.93,0.8c0.51,0.51,0.8,1.2,0.8,1.92
	c0,0.73-0.29,1.42-0.8,1.93S1900.95,1525.39,1900.22,1525.39z"/>
<path style="fill:#FFFFFF;" d="M275.924,1341.59c0,64.33-17.963,116.46-40.112,116.46c-22.15,0-40.091-52.13-40.091-116.46
	c0-64.33,17.941-73.45,40.091-73.45C257.961,1268.14,275.924,1277.28,275.924,1341.59z"/>
<path style="fill:#313131;" d="M235.812,1460.77c-23.98,0-42.816-52.32-42.816-119.18c0-63.22,17.113-76.17,42.816-76.17
	s42.838,12.95,42.838,76.17C278.65,1408.43,259.836,1460.77,235.812,1460.77z M235.812,1270.87c-18.901,0-37.366,5.45-37.366,70.72
	c0,68.04,19.315,113.73,37.366,113.73s37.344-45.69,37.344-113.73C273.156,1276.32,254.735,1270.87,235.812,1270.87z"/>
<path style="fill:#313131;" d="M235.81,1279.04c-0.554,0-1.094-0.17-1.549-0.48c-0.455-0.32-0.804-0.76-1.002-1.28l-6.082-16.46
	c-0.123-0.34-0.179-0.69-0.164-1.05s0.1-0.71,0.251-1.04c0.151-0.32,0.364-0.61,0.628-0.86c0.264-0.24,0.573-0.43,0.909-0.55
	s0.694-0.18,1.052-0.16c0.358,0.01,0.709,0.1,1.034,0.25c0.325,0.15,0.617,0.36,0.859,0.63c0.243,0.26,0.431,0.57,0.554,0.9
	l6.082,16.44c0.247,0.68,0.215,1.43-0.087,2.08c-0.302,0.65-0.851,1.16-1.526,1.41C236.464,1278.99,236.138,1279.05,235.81,1279.04z
	"/>
<path style="fill:#313131;" d="M266.898,1301.54c-0.58,0-1.144-0.19-1.609-0.54c-0.466-0.34-0.808-0.83-0.979-1.38
	c-0.17-0.56-0.159-1.15,0.032-1.7c0.191-0.55,0.552-1.02,1.03-1.35l11.837-7.93c0.601-0.4,1.338-0.55,2.047-0.41
	c0.709,0.14,1.334,0.56,1.736,1.16c0.401,0.6,0.548,1.34,0.407,2.05c-0.141,0.71-0.558,1.33-1.16,1.73l-11.837,7.92
	C267.961,1301.39,267.435,1301.55,266.898,1301.54z"/>
<path style="fill:#313131;" d="M204.418,1361.38c-0.52,0.01-1.029-0.14-1.461-0.43l-15.718-9.96c-0.607-0.4-1.034-1.01-1.189-1.72
	s-0.025-1.44,0.361-2.06c0.389-0.6,1.001-1.03,1.704-1.18c0.702-0.16,1.437-0.03,2.045,0.36l15.74,10.07
	c0.494,0.32,0.872,0.79,1.077,1.34c0.204,0.55,0.225,1.15,0.058,1.72c-0.167,0.56-0.512,1.06-0.984,1.41
	c-0.472,0.35-1.045,0.54-1.633,0.54V1361.38z"/>
<path style="fill:#313131;" d="M263.038,1413.27c-0.528,0-1.045-0.16-1.489-0.44c-0.444-0.29-0.797-0.69-1.018-1.17
	c-0.144-0.33-0.222-0.69-0.229-1.05s0.058-0.71,0.189-1.05c0.132-0.33,0.329-0.64,0.579-0.89c0.25-0.26,0.548-0.47,0.878-0.61
	l15.675-6.87c0.329-0.15,0.687-0.24,1.052-0.26c0.364-0.01,0.728,0.04,1.07,0.17c0.342,0.13,0.654,0.33,0.919,0.58
	c0.265,0.25,0.477,0.55,0.623,0.88c0.146,0.34,0.223,0.7,0.227,1.06c0.004,0.37-0.065,0.73-0.203,1.07
	c-0.139,0.34-0.343,0.64-0.602,0.9c-0.26,0.26-0.568,0.46-0.906,0.59l-15.675,6.87C263.784,1413.2,263.413,1413.27,263.038,1413.27z
	"/>
<path style="fill:#313131;" d="M213.573,1416.39h-0.239l-16.787-1.53c-0.72-0.07-1.383-0.42-1.845-0.97
	c-0.462-0.56-0.685-1.28-0.618-2c0.066-0.71,0.416-1.38,0.972-1.84c0.556-0.46,1.273-0.69,1.993-0.62l16.786,1.53
	c0.682,0.08,1.307,0.42,1.749,0.95c0.442,0.52,0.67,1.2,0.637,1.88c-0.033,0.69-0.324,1.34-0.815,1.82
	C214.915,1416.09,214.26,1416.37,213.573,1416.39z"/>
<path style="fill:#313131;" d="M220.832,1316.82c-0.514,0-1.017-0.14-1.453-0.42c-0.436-0.27-0.785-0.66-1.01-1.12l-7.325-15.26
	c-0.315-0.65-0.359-1.4-0.122-2.09c0.237-0.68,0.736-1.24,1.387-1.55c0.65-0.32,1.399-0.36,2.082-0.13
	c0.682,0.24,1.243,0.74,1.558,1.39l7.325,15.26c0.156,0.32,0.247,0.67,0.268,1.03c0.021,0.36-0.029,0.71-0.146,1.05
	c-0.117,0.34-0.3,0.65-0.538,0.92c-0.238,0.27-0.526,0.49-0.848,0.64C221.645,1316.73,221.242,1316.82,220.832,1316.82z"/>
<path style="fill:#313131;" d="M261.382,1345.34c-0.669,0-1.315-0.25-1.809-0.7c-0.536-0.48-0.86-1.15-0.901-1.87
	c-0.04-0.72,0.205-1.43,0.683-1.97l10.9-12.38c0.48-0.54,1.155-0.87,1.876-0.91c0.722-0.04,1.431,0.2,1.972,0.68
	c0.54,0.48,0.868,1.16,0.911,1.88c0.043,0.72-0.202,1.43-0.682,1.97l-10.9,12.38c-0.257,0.29-0.573,0.52-0.926,0.68
	C262.152,1345.26,261.769,1345.34,261.382,1345.34z"/>
<path style="fill:#313131;" d="M239.539,1382.14c-0.669,0-1.315-0.25-1.809-0.7l-11.184-10.07c-0.525-0.49-0.837-1.16-0.87-1.88
	c-0.033-0.71,0.216-1.41,0.694-1.94c0.478-0.53,1.146-0.86,1.86-0.9c0.714-0.05,1.417,0.19,1.957,0.66l11.183,10.07
	c0.411,0.37,0.7,0.86,0.829,1.4c0.129,0.53,0.092,1.1-0.107,1.61c-0.198,0.52-0.549,0.96-1.005,1.27
	C240.631,1381.97,240.091,1382.14,239.539,1382.14z"/>
<path style="fill:#FFFFFF;" d="M305.855,1472.76c0,26.03-31.371,47.16-70.066,47.16c-38.696,0-70.11-21.13-70.11-47.16
	c0-13.93,8.981-26.46,23.282-35.05h93.742C296.917,1446.3,305.855,1458.83,305.855,1472.76z"/>
<path style="fill:#313131;" d="M235.831,1522.64c-40.156,0-72.835-22.37-72.835-49.88c0-14.36,8.982-27.99,24.591-37.39
	c0.427-0.25,0.918-0.39,1.417-0.39h93.741c0.5,0,0.99,0.14,1.417,0.39c15.609,9.4,24.548,23.03,24.548,37.39
	C308.622,1500.27,275.965,1522.64,235.831,1522.64z M189.767,1440.37c-13.56,8.37-21.321,20.12-21.321,32.33
	c0,24.5,30.237,44.43,67.385,44.43s67.341-19.93,67.341-44.43c0-12.21-7.739-23.98-21.277-32.33H189.767z"/>
<path style="fill:#FFFFFF;" d="M273.219,1511.85h-74.797v9.79h74.797V1511.85z"/>
<path style="fill:#313131;" d="M273.154,1524.36h-74.732c-0.722,0-1.416-0.28-1.927-0.79c-0.511-0.52-0.798-1.21-0.798-1.93v-9.79
	c0-0.72,0.287-1.42,0.798-1.93s1.205-0.8,1.927-0.8h74.732c0.723,0,1.416,0.29,1.927,0.8c0.511,0.51,0.798,1.21,0.798,1.93v9.79
	c0,0.72-0.287,1.41-0.798,1.93C274.57,1524.08,273.877,1524.36,273.154,1524.36z M201.213,1518.85h69.347v-4.36h-69.347V1518.85z"/>
<path style="fill:#FFFFFF;" d="M1603.28,1457.07v51.57c0,7.31,7.81,13.24,17.44,13.24h221.36v-11.32h-17.79v-55.41h17.79v-11.34
	h-221.4C1611.09,1443.81,1603.28,1449.74,1603.28,1457.07z"/>
<path style="fill:#313131;" d="M1842.08,1524.6h-221.4c-11.1,0-20.12-7.17-20.12-15.95v-51.58c0-8.72,9.02-15.98,20.12-15.98h221.4
	c0.73,0,1.42,0.28,1.93,0.79c0.51,0.52,0.8,1.21,0.8,1.93v11.34c0,0.72-0.29,1.41-0.8,1.92c-0.51,0.52-1.2,0.8-1.93,0.8h-15.06
	v50.08h15.06c0.73,0,1.42,0.28,1.93,0.8c0.51,0.51,0.8,1.2,0.8,1.92v11.32c-0.03,0.7-0.33,1.37-0.84,1.85
	C1843.46,1524.33,1842.79,1524.6,1842.08,1524.6z M1620.68,1446.54c-8.09,0-14.67,4.73-14.67,10.53v51.58
	c0,5.79,6.54,10.5,14.67,10.5h218.68v-5.86h-15.07c-0.72,0-1.41-0.29-1.92-0.8s-0.8-1.2-0.8-1.93v-55.41c0-0.73,0.29-1.42,0.8-1.93
	s1.2-0.8,1.92-0.8h15.07v-5.88H1620.68z"/>
<path style="fill:#313131;" d="M1842.08,1524.6h-220.51c-11.07,0-20.1-7.17-20.1-15.95v-51.58c0-8.72,9.03-15.98,20.1-15.98h220.51
	c0.72,0,1.42,0.28,1.93,0.79c0.51,0.52,0.8,1.21,0.8,1.93v11.34c0,0.72-0.29,1.41-0.8,1.92c-0.51,0.52-1.21,0.8-1.93,0.8h-15.06
	v50.08h15.06c0.72,0,1.42,0.28,1.93,0.8c0.51,0.51,0.8,1.2,0.8,1.92v11.32c-0.03,0.7-0.33,1.37-0.84,1.85
	C1843.46,1524.33,1842.79,1524.6,1842.08,1524.6z M1621.57,1446.54c-8.07,0-14.65,4.73-14.65,10.53v51.58
	c0,5.79,6.54,10.5,14.65,10.5h217.79v-5.86h-15.07c-0.72,0-1.41-0.29-1.92-0.8c-0.52-0.51-0.8-1.2-0.8-1.93v-55.41
	c0-0.73,0.28-1.42,0.8-1.93c0.51-0.51,1.2-0.8,1.92-0.8h15.07v-5.88H1621.57z"/>
<path style="fill:#FFFFFF;" d="M1623.49,1462.34v41.03c0,3.97,4.23,7.19,9.46,7.19h191.34v-55.41h-191.34
	C1627.72,1455.15,1623.49,1458.37,1623.49,1462.34z"/>
<path style="fill:#313131;" d="M1824.29,1513.29h-191.34c-6.71,0-12.19-4.47-12.19-9.92v-41.03c0-5.47,5.48-9.92,12.19-9.92h191.34
	c0.72,0,1.42,0.29,1.93,0.8s0.8,1.2,0.8,1.93v55.41c0,0.73-0.29,1.42-0.8,1.93S1825.01,1513.29,1824.29,1513.29z M1632.95,1457.81
	c-3.64,0-6.74,2.02-6.74,4.47v41.09c0,2.42,3.1,4.47,6.74,4.47h188.62v-50.03H1632.95z"/>
<path style="fill:#313131;" d="M1824.29,1475.95h-180.37c-0.73,0-1.42-0.29-1.93-0.8s-0.8-1.21-0.8-1.93s0.29-1.42,0.8-1.93
	s1.2-0.79,1.93-0.79h180.37c0.73,0,1.42,0.28,1.93,0.79s0.8,1.21,0.8,1.93s-0.29,1.42-0.8,1.93S1825.02,1475.95,1824.29,1475.95z"/>
<path style="fill:#313131;" d="M1824.29,1495.2h-180.37c-0.73,0-1.42-0.29-1.93-0.8s-0.8-1.21-0.8-1.93s0.29-1.42,0.8-1.93
	s1.2-0.79,1.93-0.79h180.37c0.73,0,1.42,0.28,1.93,0.79s0.8,1.21,0.8,1.93s-0.29,1.42-0.8,1.93S1825.02,1495.2,1824.29,1495.2z"/>
<path style="fill:#FFFFFF;" d="M1501.56,1457.07v51.57c0,7.31,7.78,13.24,17.44,13.24h221.32v-11.32h-17.81v-55.41h17.81v-11.34
	h-221.36C1509.34,1443.81,1501.56,1449.74,1501.56,1457.07z"/>
<path style="fill:#313131;" d="M1740.32,1524.6h-221.36c-11.1,0-20.12-7.17-20.12-15.95v-51.58c0-8.72,9.02-15.98,20.12-15.98
	h221.36c0.36-0.01,0.71,0.06,1.04,0.2c0.34,0.13,0.64,0.33,0.89,0.59c0.26,0.25,0.46,0.55,0.59,0.88c0.14,0.34,0.21,0.69,0.2,1.05
	v11.34c-0.01,0.71-0.3,1.39-0.81,1.89s-1.2,0.77-1.91,0.77h-15.04v50.14h15.04c0.36-0.01,0.71,0.06,1.04,0.2
	c0.34,0.13,0.64,0.34,0.89,0.59c0.26,0.25,0.46,0.55,0.59,0.89c0.14,0.33,0.21,0.68,0.2,1.04v11.32c-0.02,0.7-0.32,1.37-0.83,1.86
	S1741.02,1524.61,1740.32,1524.6z M1518.96,1446.54c-8.09,0-14.67,4.73-14.67,10.53v51.58c0,5.79,6.54,10.5,14.67,10.5h218.66v-5.86
	h-15.07c-0.72,0-1.41-0.29-1.93-0.8c-0.51-0.51-0.79-1.2-0.79-1.93v-55.41c0-0.73,0.28-1.42,0.79-1.93c0.52-0.51,1.21-0.8,1.93-0.8
	h15.07v-5.88H1518.96z"/>
<path style="fill:#313131;" d="M1740.32,1524.6h-220.47c-11.07,0-20.1-7.17-20.1-15.95v-51.58c0-8.72,9.03-15.98,20.1-15.98h220.47
	c0.36-0.01,0.71,0.06,1.04,0.2c0.33,0.13,0.64,0.33,0.89,0.59c0.25,0.25,0.45,0.55,0.59,0.88c0.14,0.34,0.2,0.69,0.2,1.05v11.34
	c-0.01,0.71-0.3,1.39-0.81,1.89s-1.2,0.77-1.91,0.77h-15.05v50.14h15.05c0.36-0.01,0.71,0.06,1.04,0.2
	c0.33,0.13,0.64,0.34,0.89,0.59s0.45,0.55,0.59,0.89c0.14,0.33,0.2,0.68,0.2,1.04v11.32c-0.02,0.7-0.32,1.37-0.83,1.86
	S1741.02,1524.61,1740.32,1524.6z M1519.85,1446.54c-8.07,0-14.65,4.73-14.65,10.53v51.58c0,5.79,6.54,10.5,14.65,10.5h217.76v-5.86
	h-15.06c-0.72,0-1.42-0.29-1.93-0.8s-0.8-1.2-0.8-1.93v-55.41c0-0.73,0.29-1.42,0.8-1.93s1.21-0.8,1.93-0.8h15.06v-5.88H1519.85z"/>
<path style="fill:#FFFFFF;" d="M1521.77,1462.34v41.03c0,3.97,4.23,7.19,9.46,7.19h191.32v-55.41h-191.32
	C1526,1455.15,1521.77,1458.37,1521.77,1462.34z"/>
<path style="fill:#313131;" d="M1722.55,1513.29h-191.32c-6.72,0-12.19-4.47-12.19-9.92v-41.03c0-5.47,5.47-9.92,12.19-9.92h191.32
	c0.72,0,1.41,0.29,1.93,0.8c0.51,0.51,0.79,1.2,0.79,1.93v55.41c0,0.73-0.28,1.42-0.79,1.93
	C1723.96,1513,1723.27,1513.29,1722.55,1513.29z M1531.23,1457.81c-3.66,0-6.74,2.02-6.74,4.47v41.09c0,2.42,3.08,4.47,6.74,4.47
	h188.59v-50.03H1531.23z"/>
<path style="fill:#313131;" d="M1722.55,1475.95H1542.2c-0.73,0-1.42-0.29-1.93-0.8s-0.8-1.21-0.8-1.93s0.29-1.42,0.8-1.93
	s1.2-0.79,1.93-0.79h180.35c0.72,0,1.42,0.28,1.93,0.79s0.79,1.21,0.79,1.93s-0.28,1.42-0.79,1.93S1723.27,1475.95,1722.55,1475.95z
	"/>
<path style="fill:#313131;" d="M1722.55,1495.2H1542.2c-0.73,0-1.42-0.29-1.93-0.8s-0.8-1.21-0.8-1.93s0.29-1.42,0.8-1.93
	s1.2-0.79,1.93-0.79h180.35c0.72,0,1.42,0.28,1.93,0.79s0.79,1.21,0.79,1.93s-0.28,1.42-0.79,1.93S1723.27,1495.2,1722.55,1495.2z"
	/>
<path style="fill:#313131;" d="M1768.92,1379.33v51.29c0,7.26-6.54,13.08-14.8,13.08h-281.77v-11.25h15.08v-55h-15.13v-11.2h281.82
	C1762.29,1366.25,1768.92,1372.09,1768.92,1379.33z"/>
<path style="fill:#313131;" d="M1754.12,1446.54h-281.77c-0.73,0-1.42-0.29-1.93-0.8s-0.8-1.21-0.8-1.93v-11.25
	c0-0.72,0.29-1.41,0.8-1.93c0.51-0.51,1.2-0.79,1.93-0.79h12.4v-49.66h-12.4c-0.73,0-1.42-0.29-1.93-0.8s-0.8-1.21-0.8-1.93v-11.21
	c0-0.72,0.29-1.41,0.8-1.92c0.51-0.51,1.2-0.8,1.93-0.8h281.77c9.65,0,17.44,7.13,17.44,15.89v51.3
	C1771.64,1439.43,1763.77,1446.54,1754.12,1446.54z M1475.07,1441.09h279.05c6.54,0,12.07-4.67,12.07-10.43v-51.34
	c0-5.75-5.42-10.44-12.07-10.44h-279.05v5.8h12.36c0.73,0,1.42,0.29,1.93,0.8s0.8,1.2,0.8,1.93v55.11c0,0.72-0.29,1.41-0.8,1.92
	c-0.51,0.52-1.2,0.8-1.93,0.8h-12.4L1475.07,1441.09z"/>
<path style="fill:#313131;" d="M1753.4,1446.54h-281.05c-0.73,0-1.42-0.29-1.93-0.8s-0.8-1.21-0.8-1.93v-11.25
	c0-0.72,0.29-1.41,0.8-1.93c0.51-0.51,1.2-0.79,1.93-0.79h12.4v-49.66h-12.4c-0.73,0-1.42-0.29-1.93-0.8s-0.8-1.21-0.8-1.93v-11.21
	c0-0.72,0.29-1.41,0.8-1.92c0.51-0.51,1.2-0.8,1.93-0.8h281.05c9.65,0,17.44,7.13,17.44,15.89v51.3
	C1770.84,1439.43,1763.01,1446.54,1753.4,1446.54z M1475.12,1441.09h278.28c6.54,0,12.05-4.67,12.05-10.43v-51.34
	c0-5.75-5.4-10.44-12.05-10.44h-278.33v5.8h12.36c0.73,0,1.42,0.29,1.93,0.8s0.8,1.2,0.8,1.93v55.11c0,0.72-0.29,1.41-0.8,1.92
	c-0.51,0.52-1.2,0.8-1.93,0.8h-12.4L1475.12,1441.09z"/>
<path style="fill:#FFFFFF;" d="M1751.74,1384.6v40.81c-0.12,2.01-1.04,3.9-2.55,5.24c-1.5,1.34-3.48,2.02-5.49,1.91h-256.27v-55.11
	h256.27c2.01-0.11,3.99,0.58,5.49,1.92C1750.7,1380.71,1751.62,1382.59,1751.74,1384.6z"/>
<path style="fill:#313131;" d="M1743.7,1435.29h-256.27c-0.72,0-1.41-0.29-1.92-0.8s-0.8-1.2-0.8-1.93v-55.11
	c0-0.72,0.29-1.41,0.8-1.93c0.51-0.51,1.2-0.79,1.92-0.79h256.27c2.73-0.11,5.4,0.87,7.41,2.72c2.02,1.85,3.23,4.42,3.36,7.15v40.81
	c-0.13,2.74-1.33,5.31-3.35,7.16C1749.1,1434.42,1746.43,1435.4,1743.7,1435.29z M1490.2,1429.84h253.5
	c1.27,0.1,2.54-0.29,3.54-1.11c0.99-0.81,1.63-1.98,1.78-3.25v-40.88c-0.15-1.27-0.79-2.44-1.78-3.25c-1-0.82-2.27-1.21-3.54-1.11
	h-253.5V1429.84z"/>
<path style="fill:#313131;" d="M1734.37,1398.16h-246.94c-0.72,0-1.41-0.29-1.92-0.8s-0.8-1.2-0.8-1.92c0-0.73,0.29-1.42,0.8-1.93
	s1.2-0.8,1.92-0.8h246.94c0.72,0,1.41,0.29,1.92,0.8s0.8,1.2,0.8,1.93c0,0.72-0.29,1.41-0.8,1.92S1735.09,1398.16,1734.37,1398.16z"
	/>
<path style="fill:#313131;" d="M1734.37,1417.3h-246.94c-0.72,0-1.41-0.29-1.92-0.8s-0.8-1.2-0.8-1.92c0-0.73,0.29-1.42,0.8-1.93
	s1.2-0.8,1.92-0.8h246.94c0.72,0,1.41,0.29,1.92,0.8s0.8,1.2,0.8,1.93c0,0.72-0.29,1.41-0.8,1.92S1735.09,1417.3,1734.37,1417.3z"/>
<path style="fill:#313131;" d="M1855.4,1379.33v51.29c0,7.26-6.54,13.08-14.78,13.08h-281.79v-11.25h15.13v-55h-15.13v-11.2h281.77
	C1848.77,1366.25,1855.4,1372.09,1855.4,1379.33z"/>
<path style="fill:#313131;" d="M1840.6,1446.54h-281.77c-0.72,0-1.42-0.29-1.93-0.8s-0.8-1.21-0.8-1.93v-11.25
	c0-0.72,0.29-1.41,0.8-1.93c0.51-0.51,1.21-0.79,1.93-0.79h12.4v-49.66h-12.4c-0.72,0-1.42-0.29-1.93-0.8s-0.8-1.21-0.8-1.93v-11.21
	c0-0.72,0.29-1.41,0.8-1.92c0.51-0.51,1.21-0.8,1.93-0.8h281.77c9.66,0,17.44,7.13,17.44,15.89v51.3
	C1858.04,1439.43,1850.28,1446.54,1840.6,1446.54z M1561.55,1441.09h279.05c6.54,0,12.05-4.67,12.05-10.43v-51.34
	c0-5.75-5.4-10.44-12.05-10.44h-279.05v5.8h12.41c0.72,0,1.41,0.29,1.92,0.8c0.52,0.51,0.8,1.2,0.8,1.93v55.11
	c0,0.72-0.28,1.41-0.8,1.92c-0.51,0.52-1.2,0.8-1.92,0.8h-12.41V1441.09z"/>
<path style="fill:#313131;" d="M1839.86,1446.54h-281.03c-0.72,0-1.42-0.29-1.93-0.8s-0.8-1.21-0.8-1.93v-11.25
	c0-0.72,0.29-1.41,0.8-1.93c0.51-0.51,1.21-0.79,1.93-0.79h12.4v-49.66h-12.4c-0.72,0-1.42-0.29-1.93-0.8s-0.8-1.21-0.8-1.93v-11.21
	c0-0.72,0.29-1.41,0.8-1.92c0.51-0.51,1.21-0.8,1.93-0.8h281.03c9.63,0,17.44,7.13,17.44,15.89v51.3
	C1857.34,1439.43,1849.49,1446.54,1839.86,1446.54z M1561.55,1441.09h278.31c6.65,0,12.03-4.67,12.03-10.43v-51.34
	c0-5.75-5.38-10.44-12.03-10.44h-278.31v5.8h12.41c0.72,0,1.41,0.29,1.92,0.8c0.52,0.51,0.8,1.2,0.8,1.93v55.11
	c0,0.72-0.28,1.41-0.8,1.92c-0.51,0.52-1.2,0.8-1.92,0.8h-12.41V1441.09z"/>
<path style="fill:#FFFFFF;" d="M1838.22,1384.6v40.81c-0.12,2.01-1.04,3.9-2.54,5.24c-1.51,1.34-3.49,2.02-5.5,1.91h-256.22v-55.11
	h256.22c2.01-0.11,3.99,0.58,5.5,1.92C1837.18,1380.71,1838.1,1382.59,1838.22,1384.6z"/>
<path style="fill:#313131;" d="M1830.18,1435.29h-256.22c-0.72,0-1.42-0.29-1.93-0.8s-0.8-1.2-0.8-1.93v-55.11
	c0-0.72,0.29-1.41,0.8-1.93c0.51-0.51,1.21-0.79,1.93-0.79h256.22c2.73-0.11,5.4,0.87,7.42,2.72c2.01,1.85,3.22,4.42,3.35,7.15
	v40.81c-0.13,2.74-1.33,5.31-3.35,7.16C1835.58,1434.42,1832.91,1435.4,1830.18,1435.29z M1576.68,1429.84h253.5
	c1.28,0.11,2.55-0.29,3.55-1.1c0.99-0.81,1.62-1.99,1.77-3.26v-40.88c-0.15-1.27-0.78-2.45-1.77-3.26c-1-0.81-2.27-1.21-3.55-1.1
	h-253.5V1429.84z"/>
<path style="fill:#313131;" d="M1820.98,1398.16h-247.02c-0.72,0-1.42-0.29-1.93-0.8s-0.8-1.2-0.8-1.92c0-0.73,0.29-1.42,0.8-1.93
	s1.21-0.8,1.93-0.8h247.02c0.72,0,1.41,0.29,1.93,0.8c0.51,0.51,0.79,1.2,0.79,1.93c0,0.72-0.28,1.41-0.79,1.92
	C1822.39,1397.87,1821.7,1398.16,1820.98,1398.16z"/>
<path style="fill:#313131;" d="M1820.98,1417.3h-247.02c-0.72,0-1.42-0.29-1.93-0.8s-0.8-1.2-0.8-1.92c0-0.73,0.29-1.42,0.8-1.93
	s1.21-0.8,1.93-0.8h247.02c0.72,0,1.41,0.29,1.93,0.8c0.51,0.51,0.79,1.2,0.79,1.93c0,0.72-0.28,1.41-0.79,1.92
	C1822.39,1417.01,1821.7,1417.3,1820.98,1417.3z"/>
<path style="fill:#FFFFFF;" d="M1534.11,1353.03v-50.01c0-7.26,6.54-13.08,14.78-13.08h270.91v10.9h-16.52v54.29h16.52v11.11
	h-270.91C1540.73,1366.24,1534.11,1360.29,1534.11,1353.03z"/>
<path style="fill:#313131;" d="M1819.8,1368.93h-270.91c-9.66,0-17.44-7.13-17.44-15.9v-50.01c0-8.72,7.85-15.87,17.44-15.87h270.91
	c0.73,0,1.42,0.29,1.93,0.8s0.8,1.2,0.8,1.93v10.96c0,0.73-0.29,1.42-0.8,1.93s-1.2,0.8-1.93,0.8H1806v48.81h13.8
	c0.73,0,1.42,0.29,1.93,0.8c0.51,0.51,0.8,1.2,0.8,1.92v11.14c-0.01,0.72-0.31,1.4-0.82,1.9S1820.52,1368.93,1819.8,1368.93z
	 M1548.89,1292.62c-6.65,0-12.06,4.67-12.06,10.42v50.15c0,5.75,5.41,10.44,12.06,10.44h268.14V1358h-13.8
	c-0.72,0-1.41-0.28-1.92-0.79c-0.51-0.52-0.8-1.21-0.8-1.93v-54.44c0-0.72,0.29-1.41,0.8-1.92c0.51-0.51,1.2-0.8,1.92-0.8h13.8v-5.6
	L1548.89,1292.62z"/>
<path style="fill:#313131;" d="M1819.8,1368.93h-206.84c-9.66,0-17.44-7.13-17.44-15.9v-50.01c0-8.72,7.87-15.87,17.44-15.87h206.84
	c0.72,0,1.42,0.29,1.93,0.8s0.8,1.2,0.8,1.93v10.96c0,0.73-0.29,1.42-0.8,1.93s-1.21,0.8-1.93,0.8H1806v48.81h13.8
	c0.72,0,1.42,0.29,1.93,0.8c0.51,0.51,0.8,1.2,0.8,1.92v11.14c-0.02,0.72-0.31,1.4-0.82,1.9S1820.52,1368.93,1819.8,1368.93z
	 M1612.96,1292.62c-6.65,0-12.08,4.67-12.08,10.42v50.15c0,5.75,5.43,10.44,12.08,10.44h204.12V1358h-13.8
	c-0.73,0-1.42-0.28-1.93-0.79c-0.51-0.52-0.8-1.21-0.8-1.93v-54.44c0-0.72,0.29-1.41,0.8-1.92s1.2-0.8,1.93-0.8h13.8v-5.6
	L1612.96,1292.62z"/>
<path style="fill:#FFFFFF;" d="M1610.47,1347.95v-39.91c0.13-2.01,1.04-3.89,2.54-5.24c1.5-1.34,3.47-2.04,5.49-1.93h184.78v54.26
	H1618.5c-2.02,0.1-3.99-0.59-5.49-1.93C1611.5,1351.85,1610.59,1349.97,1610.47,1347.95z"/>
<path style="fill:#313131;" d="M1803.28,1357.85H1618.5c-2.74,0.11-5.41-0.87-7.42-2.73c-2.01-1.85-3.21-4.43-3.33-7.16v-39.92
	c0.12-2.74,1.32-5.31,3.33-7.17c2.01-1.85,4.68-2.83,7.42-2.73h184.78c0.72,0,1.41,0.29,1.92,0.8c0.52,0.51,0.8,1.2,0.8,1.93v54.26
	c0,0.72-0.28,1.41-0.8,1.93C1804.69,1357.57,1804,1357.85,1803.28,1357.85z M1618.5,1303.59c-1.28-0.1-2.54,0.3-3.53,1.12
	c-0.99,0.81-1.62,1.97-1.77,3.24v39.92c0.14,1.27,0.78,2.44,1.77,3.25c0.98,0.82,2.25,1.21,3.53,1.11h182.05v-48.64H1618.5z"/>
<path style="fill:#313131;" d="M1803.28,1339.67h-179.81c-0.73,0-1.42-0.29-1.93-0.8s-0.8-1.2-0.8-1.92c0-0.73,0.29-1.42,0.8-1.93
	s1.2-0.8,1.93-0.8h179.81c0.72,0,1.41,0.29,1.92,0.8s0.8,1.2,0.8,1.93c0,0.72-0.29,1.41-0.8,1.92S1804,1339.67,1803.28,1339.67z"/>
<path style="fill:#313131;" d="M1803.28,1321.79h-179.81c-0.73,0-1.42-0.28-1.93-0.79s-0.8-1.21-0.8-1.93c0-0.72,0.29-1.42,0.8-1.93
	s1.2-0.8,1.93-0.8h179.81c0.72,0,1.41,0.29,1.92,0.8s0.8,1.21,0.8,1.93c0,0.72-0.29,1.42-0.8,1.93S1804,1321.79,1803.28,1321.79z"/>
</svg>
